<svg width="96" height="97" viewBox="0 0 96 97" fill="none" xmlns="http://www.w3.org/2000/svg">
<path d="M83.497 63.8626C86.0515 63.6978 88.4412 63.3682 90.5013 62.3793C94.1271 60.6488 94.7863 57.0231 94.5391 52.9853C94.4567 51.1725 94.1271 49.2772 93.7975 47.6291C92.479 39.8008 87.9468 11.6188 87.6172 10.4652C86.3811 6.09777 83.2498 5.52095 79.5417 6.01537C78.9648 6.01537 27.9571 12.3604 25.2378 12.8549C21.5296 13.5965 18.1511 14.9973 17.4095 18.3759C16.6678 21.7544 23.4249 64.4394 23.8369 66.4171C24.4138 68.8892 25.6498 70.0428 27.2155 70.5373C28.0395 71.0317 29.0284 70.9493 30.2644 70.9493C33.6429 70.8669 77.564 65.4282 83.497 63.8626Z" fill="#FCBDBF"/>
<path d="M76.9048 69.7955C79.2945 70.0427 81.6842 70.1251 83.8267 69.5483C87.6172 68.477 89.0181 65.0161 89.5125 61.0607C89.8421 59.2478 89.8421 57.3526 89.9245 55.7045C90.2542 47.7114 84.5683 20.271 84.4859 19.3646C84.2387 14.9148 81.437 13.8436 77.8936 13.6788C77.3168 13.5963 34.467 13.926 31.8301 13.926C28.2044 14.0084 24.7434 14.8324 23.3426 17.9637C21.9417 21.0951 17.1623 63.2856 17.2447 65.3457C17.2447 67.8178 18.1511 69.2187 19.552 69.8779C20.2112 70.4547 21.2001 70.6195 22.3537 70.7843C25.4026 71.3612 71.0541 70.3723 76.9048 69.7955Z" fill="#B7F6F7"/>
<path d="M70.3124 75.0694C72.7021 75.3166 75.0918 75.399 77.2343 74.8222C81.0249 73.751 82.4257 70.29 82.9202 66.3346C83.2498 64.5218 83.2498 62.6265 83.3322 60.9784C83.6618 52.9853 80.1184 17.2222 80.1184 16.3158C79.8712 11.866 77.0695 10.7947 73.5262 10.6299C72.9493 10.5475 25.1554 10.8771 22.5184 10.8771C18.8927 10.9595 15.4317 11.7836 14.0309 14.9149C12.63 18.1286 8.92188 68.6419 8.92188 70.702C8.92188 73.1741 9.82831 74.575 11.2292 75.2342C11.8884 75.811 12.8772 75.9759 14.0309 76.1407C17.1622 76.5527 64.4618 75.5638 70.3124 75.0694Z" fill="#FFE2A1"/>
<path d="M61.8249 70.9493C64.3794 71.1141 66.8515 71.0317 68.994 70.2901C72.7845 69.054 73.9382 65.4283 74.103 61.3905C74.2678 59.4952 74.5974 57.1879 74.7622 55.5398C75.4215 47.2171 80.2008 19.8592 80.036 18.9527C79.9536 18.4583 79.624 16.975 79.5416 16.563C78.4704 13.3493 75.8335 13.5965 72.5373 13.6789C71.9605 13.5965 20.2936 13.9261 17.4918 14.0909C13.7013 14.3381 10.1579 15.4094 9.00428 18.7055C7.85063 22.0016 1.75278 64.6042 1.91759 66.6643C2.1648 69.1364 3.23604 70.5373 4.80171 71.1141C5.54334 71.6909 6.53218 71.7733 7.76823 71.8557C11.1468 72.1029 55.727 71.8557 61.8249 70.9493Z" fill="#FCBDBF"/>
<path d="M34.3021 18.8706C48.97 18.0466 63.7202 16.9753 78.388 16.5633C78.5528 16.5633 79.212 16.5633 79.2944 16.4809C79.7064 16.5633 79.2944 15.0801 79.5416 13.7616L79.7064 13.1848C79.8712 12.7728 79.9536 12.3607 80.2009 11.9487C81.1897 9.88864 83.085 9.22941 85.0627 9.47662C86.7931 9.72383 87.4524 11.2071 87.9468 11.2071C88.194 11.2071 87.6172 9.55902 87.5348 9.39422C87.4524 9.14701 86.6283 7.41654 85.3923 6.5101C84.1562 5.60366 82.2609 5.68606 80.6129 5.52126C75.0918 5.02684 40.4824 5.85087 33.2309 6.01568C33.1485 6.01568 31.3356 6.01568 30.594 6.01568C28.8635 6.01568 27.0506 6.09808 25.3202 6.18048C23.9193 6.18048 16.1734 6.18048 15.8438 6.26289C11.2292 7.82855 9.08669 13.2672 8.92188 17.8818C8.83948 18.129 8.83948 18.3762 8.92188 18.7882C8.92188 19.2826 8.75708 20.0243 8.83948 20.7659C10.2403 20.8483 27.2979 19.2826 34.3021 18.8706Z" fill="#FF4440"/>
<path d="M69.0763 22.5785C69.1587 22.4137 69.0763 22.2489 69.0763 22.1665C69.3236 21.0953 69.1587 19.9416 68.3347 18.9528C66.8514 17.0575 63.8025 16.8103 62.1545 18.4584C60.5888 20.024 61.1656 23.3202 62.8961 24.6386C65.121 26.4515 68.3347 24.8858 69.0763 22.5785Z" fill="#FF4440"/>
<path d="M50.4533 22.6612C50.5357 22.4964 50.4533 22.414 50.4533 22.2492C50.7005 21.3427 50.5357 20.3539 49.794 19.4475C48.4756 17.7994 45.8387 17.5522 44.3554 18.953C42.9546 20.2715 43.449 23.238 45.0146 24.3917C46.9923 26.0397 49.794 24.7213 50.4533 22.6612Z" fill="#FF4440"/>
<path d="M65.2035 17.2222C61.6601 16.563 61.9897 11.6188 63.2258 8.73466C63.3082 8.48745 63.473 8.24024 63.6378 8.07544C63.8026 7.82823 63.9674 7.58101 64.2146 7.3338C64.297 7.2514 64.7915 6.75698 64.8739 6.75698C65.5331 6.18016 66.3571 5.68574 67.0988 5.52093C68.3348 5.52093 69.5709 5.52093 70.7245 5.52093C70.6421 4.9441 70.4773 4.36728 70.2301 3.87286C69.7357 2.96642 69.2412 2.3896 68.3348 1.89518C68.17 1.73037 68.0876 1.73037 67.9228 1.64797C67.5932 1.40076 67.1812 1.23595 66.7691 1.15355C63.5554 -0.164909 60.7537 2.05998 59.1056 5.43852C59.2704 5.43852 59.3528 5.43852 59.5176 5.43852C59.3528 5.43852 59.2704 5.43852 59.1056 5.43852C56.2215 11.5364 56.8807 21.3424 64.6266 22.7432C67.8404 23.3201 68.4172 17.799 65.2035 17.2222Z" fill="#BBD9FD"/>
<path d="M49.4644 20.6834V20.4362C49.7117 18.4585 48.2284 17.3873 46.8275 17.4697C45.0971 16.8105 44.8499 13.1847 44.7675 11.7015C44.6026 9.64138 45.0971 7.99331 46.3331 7.08687C46.4979 7.00447 46.5803 6.92207 46.7451 6.83966C47.6516 6.34524 48.6404 6.01563 49.5469 5.68602C50.5357 5.68602 51.4421 5.68602 52.431 5.60361C52.5134 4.94439 52.3486 1.15383 49.8765 0.824213C45.5091 0.412196 42.4602 2.47228 40.9769 5.76842C41.0593 5.76842 41.0593 5.76842 41.1417 5.76842H40.9769C40.3177 7.16928 39.9057 8.89975 39.8232 10.7126C39.576 15.1624 41.1417 22.6611 46.5803 23.0731C48.146 23.2379 49.2996 22.0843 49.4644 20.6834Z" fill="#BBD9FD"/>
<path d="M32.9013 23.0728C32.9013 22.908 32.9013 22.8256 32.9013 22.6608C33.0661 21.7544 32.9013 20.7655 32.1596 19.8591C30.7588 18.2934 28.1219 18.1286 26.721 19.6119C25.4026 21.0127 26.0618 23.8968 27.6275 25.0505C29.6051 26.6986 32.3245 25.2153 32.9013 23.0728Z" fill="#FF4440"/>
<path d="M31.5828 6.01562C31.5004 6.01562 29.6875 6.01562 28.9459 6.01562C27.2154 6.01562 25.4025 6.09803 23.672 6.18043C23.5072 6.18043 23.1776 6.18043 22.848 6.18043C22.7656 6.42764 22.6832 6.67485 22.6008 6.92206C20.6231 12.6903 22.3536 21.1779 28.5338 23.7324C31.3356 24.886 32.9836 20.7658 31.1707 19.0354C29.6051 16.8929 29.0283 14.9976 28.9459 12.3607C28.8634 10.9598 28.8634 6.59245 30.1819 6.42764L31.5828 6.01562Z" fill="#BBD9FD"/>
<path d="M28.8635 6.01559C29.6875 6.01559 31.418 5.93319 31.5004 6.01559C32.1596 6.01559 33.1485 6.01559 34.2197 5.93319C34.8789 5.10916 35.1261 4.03791 34.6317 3.04907C33.3133 0.494563 31.2532 -0.494278 28.4515 0.247353C25.4849 0.988983 23.7545 3.54349 22.6832 6.1804C23.0952 6.1804 23.3425 6.1804 23.5073 6.1804C25.4025 6.098 27.133 6.098 28.8635 6.01559Z" fill="#BBD9FD"/>
<path d="M23.9193 91.9621C26.2266 93.4454 32.1597 94.7639 36.9391 95.3407C50.0412 96.7415 68.3348 95.9999 76.0807 93.4454C83.909 90.8085 84.2386 86.8531 64.3794 84.7931C47.4867 83.0626 27.7099 85.4523 23.5073 89.078C22.4361 89.9845 22.5185 91.0557 23.9193 91.9621Z" fill="#BBD9FD"/>
<path d="M24.661 32.0547L20.0464 32.1371C19.14 32.1371 18.3984 32.7963 18.2336 33.5379L17.6567 37.4933C17.5743 38.2349 18.1512 38.8942 19.0576 38.8118L23.5898 38.7294C24.4962 38.7294 25.2378 38.0701 25.4027 37.3285L25.9795 33.3731C26.1443 32.6315 25.4851 32.0547 24.661 32.0547Z" fill="white"/>
<path d="M36.8567 31.8076L32.3245 31.89C31.4181 31.89 30.6764 32.5493 30.5116 33.2909L29.9348 37.2462C29.8524 37.9879 30.4292 38.6471 31.3357 38.5647L35.8679 38.4823C36.7743 38.4823 37.5159 37.8231 37.6807 37.0814L38.2576 33.1261C38.34 32.3844 37.7631 31.8076 36.8567 31.8076Z" fill="white"/>
<path d="M49.0524 31.5605L44.5202 31.643C43.6137 31.643 42.8721 32.3022 42.7073 33.0438L42.1305 37.0816C42.0481 37.8232 42.6249 38.4824 43.5313 38.4L48.0635 38.3176C48.97 38.3176 49.7116 37.6584 49.8764 36.9168L50.4532 32.9614C50.618 32.2198 49.9588 31.5605 49.0524 31.5605Z" fill="white"/>
<path d="M61.3306 31.3957L56.7984 31.4781C55.8919 31.4781 55.1503 32.1373 54.9855 32.8789L54.4087 36.8343C54.3263 37.5759 54.9031 38.2351 55.8095 38.1527L60.3417 38.0703C61.2482 38.0703 61.9898 37.4111 62.1546 36.6695L62.7314 32.7141C62.8138 31.9725 62.237 31.3133 61.3306 31.3957Z" fill="white"/>
<path d="M23.0953 42.52L18.5632 42.6024C17.6567 42.6024 16.9151 43.2617 16.7503 44.0033L16.1735 47.9586C16.0911 48.7003 16.6679 49.3595 17.5743 49.2771L22.1065 49.1947C23.0129 49.1947 23.7546 48.5355 23.9194 47.7938L24.4962 43.8385C24.661 43.0968 24.0018 42.52 23.0953 42.52Z" fill="white"/>
<path d="M35.3734 42.2729L30.8412 42.3554C29.9348 42.3554 29.1932 43.0146 29.0284 43.7562L28.4515 47.794C28.3691 48.5356 28.946 49.1948 29.8524 49.1124L34.3846 49.03C35.291 49.03 36.0327 48.3708 36.1975 47.6292L36.7743 43.6738C36.8567 42.8498 36.1975 42.2729 35.3734 42.2729Z" fill="white"/>
<path d="M47.5691 42.0259L43.0369 42.1083C42.1305 42.1083 41.3888 42.7675 41.224 43.5091L40.6472 47.4645C40.5648 48.2061 41.1416 48.8654 42.0481 48.783L46.5803 48.7006C47.4867 48.7006 48.2283 48.0413 48.3931 47.2997L48.97 43.3443C49.0524 42.6851 48.4755 42.0259 47.5691 42.0259Z" fill="white"/>
<path d="M59.8473 41.861L55.3151 41.9434C54.4087 41.9434 53.667 42.6026 53.5022 43.3442L52.9254 47.2996C52.843 48.0412 53.4198 48.7005 54.3263 48.6181L58.8585 48.5357C59.7649 48.5357 60.5065 47.8764 60.6713 47.1348L61.2482 43.1794C61.3306 42.4378 60.6713 41.7786 59.8473 41.861Z" fill="white"/>
<path d="M21.6121 52.9855L17.0799 53.0679C16.1734 53.0679 15.4318 53.7271 15.267 54.4688L14.6902 58.4241C14.6078 59.1658 15.1846 59.825 16.091 59.7426L20.6232 59.6602C21.5297 59.6602 22.2713 59.0009 22.4361 58.2593L23.0129 54.304C23.0953 53.5623 22.5185 52.9031 21.6121 52.9855Z" fill="white"/>
<path d="M33.8901 52.7379L29.358 52.8203C28.4515 52.8203 27.7099 53.4796 27.5451 54.2212L26.9683 58.1766C26.8859 58.9182 27.4627 59.5774 28.3691 59.495L32.9013 59.4126C33.8077 59.4126 34.5494 58.7534 34.7142 58.0118L35.291 54.0564C35.3734 53.3148 34.7142 52.6555 33.8901 52.7379Z" fill="white"/>
<path d="M46.0859 52.4907L41.5538 52.5731C40.6473 52.5731 39.9057 53.2324 39.7409 53.974L39.1641 57.9294C39.0817 58.7534 39.6585 59.3302 40.5649 59.3302L45.0971 59.2478C46.0035 59.2478 46.7452 58.5886 46.91 57.8469L47.4868 53.8916C47.5692 53.0675 46.9924 52.4907 46.0859 52.4907Z" fill="white"/>
<path d="M58.2816 52.2437L53.7494 52.3261C52.843 52.3261 52.1014 52.9853 51.9366 53.7269L51.3597 57.6823C51.2773 58.4239 51.8542 59.0831 52.7606 59.0007L57.2928 58.9183C58.1992 58.9183 58.9409 58.2591 59.1057 57.5175L59.6825 53.5621C59.8473 52.8205 59.1881 52.2437 58.2816 52.2437Z" fill="#FF4440"/>
</svg>
