<svg width="24" height="24" viewBox="0 0 24 24" fill="none" xmlns="http://www.w3.org/2000/svg">
<path fill-rule="evenodd" clip-rule="evenodd" d="M19.4756 23.0119C20.2578 23.552 21.8056 22.6695 22.9324 21.0376C24.0592 19.4055 24.3385 17.6466 23.5564 17.1063C22.774 16.5661 21.2652 17.4037 20.1384 19.0358C19.0116 20.6677 18.6935 22.4717 19.4756 23.0119Z" fill="#EA5D0B"/>
<path fill-rule="evenodd" clip-rule="evenodd" d="M17.5244 23.0119C16.7422 23.552 15.1944 22.6695 14.0676 21.0376C12.9408 19.4055 12.6614 17.6466 13.4436 17.1063C14.226 16.5661 15.7348 17.4037 16.8616 19.0358C17.9884 20.6677 18.3065 22.4717 17.5244 23.0119Z" fill="#0854A1"/>
<path fill-rule="evenodd" clip-rule="evenodd" d="M22.0938 15.75C22.0938 14.8006 20.4846 14.0312 18.4993 14.0312C16.514 14.0312 14.9048 14.8006 14.9048 15.75C14.9048 16.6994 16.514 17.469 18.4993 17.469C20.4846 17.469 22.0938 16.6994 22.0938 15.75Z" fill="#009CCE"/>
<mask id="mask0_991:14165" style="mask-type:alpha" maskUnits="userSpaceOnUse" x="13" y="0" width="11" height="11">
<path fill-rule="evenodd" clip-rule="evenodd" d="M13 0.34375H24V10.2114H13V0.34375Z" fill="white"/>
</mask>
<g mask="url(#mask0_991:14165)">
<path fill-rule="evenodd" clip-rule="evenodd" d="M18.9501 1.85573C18.9874 1.5475 18.9418 1.09741 19.1847 0.885664C19.256 0.557039 19.7737 0.63381 19.6928 0.424351C19.6426 0.293268 19.3997 0.355831 19.3014 0.379893C19.2264 0.397768 18.5172 0.621893 18.2447 0.652372C18.129 0.620289 18.0135 0.588435 17.8984 0.555893C17.4527 0.616164 17.196 0.970227 16.9485 1.25141C16.7409 1.48723 16.4595 2.06518 16.6834 2.411C16.6712 2.48639 16.6582 2.56202 16.646 2.63787L17.1516 3.37671C17.3262 3.50206 17.3496 3.5951 17.5372 3.71862C17.5762 3.7766 17.6145 3.83458 17.6534 3.89325C17.8067 3.99385 18.2603 3.99546 18.3361 3.92946C19.0658 3.99752 18.9865 2.52123 19.2177 2.21071C19.1886 2.0716 19.066 1.927 18.9501 1.85573ZM15.8068 6.28873C15.9617 6.24885 16.2253 6.22823 16.3637 6.15925C16.5839 6.04925 17.3406 5.52033 17.0995 5.08927C17.0257 4.18177 15.9301 4.94879 15.4635 4.63048C14.9919 4.56952 14.4614 3.67714 14.3193 3.29444C14.2643 3.14341 14.2867 3.19498 14.2109 3.07535C14.2116 3.06344 14.1628 3.11683 14.1632 3.10446C14.0257 3.26487 14.0491 3.40558 14.0278 3.79723C13.9657 3.7931 13.904 3.78966 13.8422 3.78531C13.8302 3.92762 13.816 4.00485 13.7498 4.07796C13.7363 4.10225 13.7221 4.12516 13.7083 4.14991C13.5908 4.1105 13.6499 4.16596 13.602 4.06764C13.168 4.08987 13.1996 4.52666 13 4.77439C13.0087 5.59023 14.6222 6.59558 15.8068 6.28873ZM21.167 3.8135C20.4632 3.91914 20.0329 4.14396 19.7666 4.32798C19.5807 4.45768 19.5266 4.54431 19.4872 4.59908C19.4464 4.65362 19.4194 4.77416 19.4391 4.90158C19.4597 5.02739 19.5113 5.16191 19.6211 5.23708C20.4852 5.17314 21.9867 5.11837 22.2787 5.8446C22.2941 5.94589 22.3172 6.00685 22.319 6.03091C22.6055 5.9601 22.3958 5.98531 22.8179 6.05108C22.9144 6.06621 23.1525 6.01281 23.3104 5.97385C23.3821 5.95712 23.4232 5.89204 23.4232 5.89204C23.4232 5.89204 23.4092 5.82306 23.4133 5.78502C23.4133 5.78502 23.5614 5.79625 23.6219 5.7495C24.0217 5.6851 23.8116 5.49741 24 5.28521C23.887 3.92762 22.4939 3.61229 21.1672 3.8135M19.6238 6.76654C19.4231 6.91985 19.339 6.88204 19.2216 7.11923C19.2092 7.11923 19.2393 7.15452 19.2276 7.15452C19.347 7.39354 19.6211 7.48933 19.8227 7.65708C19.8851 7.71025 20.0553 8.00541 20.1362 8.02673C20.227 8.13466 20.2861 8.43441 20.3457 8.43441C20.4069 8.51852 20.3402 8.71675 20.4007 8.79375C20.4044 9.14918 20.3555 9.17393 20.2934 9.242C20.2934 9.26675 20.3274 9.33114 20.3274 9.35521C20.3441 9.37193 20.4869 9.47437 20.549 9.462C20.7419 9.4675 21.5339 10.0858 21.5969 10.205C22.165 10.2476 22.124 10.0739 22.5159 9.90773C22.6215 9.86212 22.7063 9.90521 22.7755 9.83302C22.8486 9.75854 22.8541 9.6121 22.9243 9.53579C22.9334 8.1381 21.0323 6.81466 19.6238 6.76631M17.3858 7.08554C17.306 7.16964 17.0892 7.20058 17.028 7.29706C16.9352 7.44281 16.7216 7.77419 16.555 7.93231C16.0167 8.44312 14.8647 8.70002 14.2964 8.21189C14.2592 8.21441 14.2808 8.23619 14.3255 8.37575C14.367 8.63998 14.5799 9.26056 14.5012 9.41869C14.5526 9.59491 14.6055 9.53029 14.7025 9.62814C14.7685 9.69414 14.7953 9.86694 14.8711 9.91346C14.9575 9.90773 15.0444 9.90108 15.1308 9.89535C15.1461 9.94348 15.1629 9.99183 15.178 10.0411C15.2887 10.0331 15.4005 10.0246 15.5116 10.0168C15.5742 10.0312 15.763 10.1286 15.8185 10.1438C15.942 10.1351 16.0653 10.1266 16.1884 10.1183C16.4714 10.1935 16.7182 10.0752 16.9568 9.91414C17.0897 9.825 17.2352 9.83921 17.3532 9.73837C17.5244 9.59125 17.7577 9.30456 17.8668 9.10587C18.1342 8.62004 18.0435 7.45519 17.8008 7.16735C17.7059 7.06354 17.5939 7.06148 17.3858 7.08554Z" fill="#F1471C"/>
</g>
<path fill-rule="evenodd" clip-rule="evenodd" d="M0 11H11V0H0V11Z" fill="#FF7900"/>
<path fill-rule="evenodd" clip-rule="evenodd" d="M3.75148 9.61136C3.74254 9.71197 3.81725 9.80111 3.91808 9.80982C3.9229 9.81028 3.92771 9.81051 3.93252 9.81051C4.07254 9.80501 4.20546 9.74795 4.30606 9.65032V9.28824C3.93023 9.33636 3.75148 9.43261 3.75148 9.61365V9.61136ZM4.31523 9.93426C4.1665 10.0351 3.9905 10.0878 3.81106 10.0855C3.57777 10.1048 3.3729 9.93128 3.35365 9.69799C3.35204 9.67919 3.35158 9.66017 3.35273 9.64115C3.35273 9.29969 3.66669 9.11865 4.31523 9.04509V8.95801C4.31523 8.84824 4.23044 8.78407 4.0746 8.78407C3.93023 8.7804 3.79273 8.8448 3.70335 8.95801L3.43752 8.80446C3.58992 8.59982 3.83604 8.48684 4.09065 8.50449C4.4894 8.50449 4.71169 8.67865 4.71169 8.96282V10.0743H4.35419L4.31523 9.93426Z" fill="white"/>
<path fill-rule="evenodd" clip-rule="evenodd" d="M5.02789 8.58016L5.36018 8.53203L5.39685 8.71536C5.54214 8.58588 5.72754 8.51072 5.92164 8.50201C6.15929 8.47359 6.37471 8.64318 6.40312 8.88082C6.40793 8.92093 6.40725 8.96172 6.4006 9.00182V10.0672H5.99727V9.07263C5.99727 8.88472 5.94914 8.80016 5.80248 8.80016C5.66108 8.81001 5.52771 8.87028 5.42664 8.96951V10.0672H5.02789V8.58016Z" fill="white"/>
<path fill-rule="evenodd" clip-rule="evenodd" d="M9.37065 9.1002C9.38875 8.93932 9.27279 8.79403 9.11169 8.77616C9.09496 8.7741 9.078 8.77364 9.06127 8.77478C8.88023 8.77478 8.76565 8.89166 8.7519 9.1002H9.37065ZM9.06815 10.0971C8.60981 10.0971 8.34856 9.80603 8.34856 9.30187C8.34856 8.7977 8.61898 8.50208 9.06127 8.50208C9.50356 8.50208 9.76711 8.78395 9.76711 9.28353V9.35916H8.74273C8.74273 9.6502 8.86648 9.79687 9.10481 9.79687C9.2469 9.79962 9.37936 9.72514 9.45086 9.60207L9.74648 9.76707C9.59798 9.99303 9.33765 10.1195 9.06815 10.0971Z" fill="white"/>
<path fill-rule="evenodd" clip-rule="evenodd" d="M1.35442 8.8391C1.05421 8.8391 0.99692 9.10951 0.99692 9.29743C0.99692 9.48512 1.05421 9.75576 1.35442 9.75576C1.65463 9.75576 1.70963 9.48305 1.70963 9.29743C1.70963 9.11158 1.65463 8.8391 1.35442 8.8391ZM1.35442 10.1133C0.949712 10.1293 0.608712 9.8142 0.59267 9.40926C0.591295 9.37512 0.592441 9.34051 0.595879 9.3066C0.553712 8.90372 0.846129 8.54301 1.249 8.50085C1.28407 8.49741 1.31913 8.49626 1.35442 8.49764C1.75913 8.48274 2.09921 8.79876 2.11411 9.20347C2.11525 9.23785 2.11411 9.27245 2.11067 9.3066C2.15261 9.7081 1.86134 10.0677 1.45984 10.1098C1.42477 10.1135 1.38948 10.1144 1.35442 10.1133Z" fill="white"/>
<path fill-rule="evenodd" clip-rule="evenodd" d="M2.38789 8.53653H2.7706V8.7084C2.87602 8.58282 3.02864 8.50651 3.19227 8.49757C3.20969 8.49528 3.22756 8.49528 3.24498 8.49757V8.87569H3.22435C3.05019 8.87569 2.85769 8.90319 2.7981 9.0384V10.0559H2.38789V8.53653Z" fill="white"/>
<path fill-rule="evenodd" clip-rule="evenodd" d="M8.10565 8.53205V9.98244C8.10565 10.2391 8.08502 10.6585 7.35627 10.6699C7.05606 10.6699 6.77648 10.5531 6.71919 10.2898L7.11794 10.2256C7.13398 10.3012 7.17981 10.3768 7.40669 10.3768C7.63356 10.3768 7.71606 10.2758 7.71606 10.0354V9.85434C7.64365 10.0051 7.48621 10.0959 7.31961 10.0835C6.9644 10.0835 6.68252 9.83578 6.68252 9.31809C6.68252 8.80017 6.97127 8.51807 7.29669 8.51807C7.62211 8.51807 7.71606 8.65809 7.74127 8.73119L7.77565 8.54786L8.10565 8.53205ZM7.38606 9.73975C7.69315 9.73975 7.71835 9.42786 7.71835 9.22413C7.71835 9.02017 7.60148 8.791 7.38377 8.791C7.2394 8.791 7.07669 8.89642 7.07669 9.24934C7.07669 9.43038 7.09044 9.74182 7.38606 9.73975Z" fill="white"/>
<path fill-rule="evenodd" clip-rule="evenodd" d="M10.5852 8.45861H10.5004V8.04152L10.3354 8.46319H10.2827L10.1154 8.04152V8.46319H10.0329V7.95902H10.1612L10.3125 8.34402L10.4614 7.95902H10.5898L10.5852 8.45861ZM9.92519 8.0209H9.76706V8.45861H9.68227V8.0209H9.52414V7.95215H9.92519V8.0209Z" fill="white"/>
<path fill-rule="evenodd" clip-rule="evenodd" d="M5.46063 21.6741C3.317 21.6741 1.579 19.9232 1.579 17.764C1.579 15.6048 3.317 13.8542 5.46063 13.8542C7.60448 13.8542 9.34248 15.6048 9.34248 17.764C9.34248 19.9232 7.60448 21.6741 5.46063 21.6741ZM5.46063 12.9999C2.4448 12.9999 4.57764e-05 15.4625 4.57764e-05 18.4999C4.57764e-05 21.5375 2.4448 23.9999 5.46063 23.9999C8.47646 23.9999 10.9212 21.5375 10.9212 18.4999C10.9212 15.4625 8.47646 12.9999 5.46063 12.9999Z" fill="#EC1C24"/>
<path fill-rule="evenodd" clip-rule="evenodd" d="M5.44766 21.7068C5.44766 21.7068 6.68951 20.3728 6.68951 19.328C6.68951 18.2833 5.93418 17.9086 5.44766 17.9086C4.96137 17.9086 4.23193 18.2702 4.23193 19.3411C4.23193 20.4124 5.44766 21.7068 5.44766 21.7068Z" fill="#EC1C24"/>
</svg>
