<svg width="128" height="128" fill="none" xmlns="http://www.w3.org/2000/svg"><path d="M117.191 114.605c3.537.203 6.527-2.54 6.732-6.12l3.705-64.65c.206-3.583-2.48-6.648-6.001-6.85L32.51 31.878c-3.54-.203-6.535 2.536-6.74 6.12l-3.706 64.649c-.205 3.58 2.477 6.648 5.988 6.849l89.139 5.109Z" fill="#FECAF3"/><path d="M114.08 104.722c3.552-.164 6.254-3.2 6.089-6.782l-2.979-64.688c-.165-3.585-3.163-6.356-6.698-6.193l-89.496 4.12c-3.555.164-6.263 3.197-6.098 6.783l2.979 64.687c.165 3.583 3.16 6.357 6.685 6.194l89.518-4.121Z" fill="#DA44B6"/><path d="M109.776 91.618c3.538-.659 5.831-4.044 5.175-7.57l-11.852-63.662a6.487 6.487 0 0 0-7.564-5.199L6.373 31.785a6.473 6.473 0 0 0-5.184 7.572l11.85 63.662c.657 3.526 4.04 5.855 7.553 5.201l89.184-16.602Z" fill="#FECAF3"/><path fill-rule="evenodd" clip-rule="evenodd" d="M57.552 76.627c-.445-2.388-6.556-8.664-11.333-7.775-2.147.4-2.757 1.012-3.428 1.687-.822.826-1.736 1.746-5.681 2.48-3.945.734-5.129.206-6.193-.27-.87-.387-1.659-.74-3.806-.34-4.777.89-8.22 8.944-7.776 11.333.445 2.388.89 4.777 3.278 4.332l33.44-6.225c1.967-.366 2.012-2.05 1.719-3.968l-.22-1.254ZM43.774 55.714c-1.105-5.936-6.278-9.952-11.555-8.97-5.277.983-8.658 6.591-7.553 12.528 1.105 5.936 6.278 9.952 11.555 8.97 5.277-.983 8.658-6.591 7.553-12.528Zm17.7-11.12a3.24 3.24 0 1 0 1.186 6.37l28.663-5.337a3.24 3.24 0 0 0-1.186-6.369l-28.662 5.336Zm2.372 12.738a3.24 3.24 0 0 0 1.186 6.37l28.662-5.336a3.24 3.24 0 0 0-1.185-6.37l-28.663 5.336Zm-.22 16.517a3.24 3.24 0 0 1 2.591-3.778l28.663-5.335a3.24 3.24 0 0 1 1.185 6.37L67.403 76.44a3.24 3.24 0 0 1-3.778-2.592Z" fill="#DA44B6"/></svg>