<svg width="64" height="64" viewBox="0 0 64 64" fill="none"
  xmlns="http://www.w3.org/2000/svg">
  <path fill="#855CEA" fill-rule="evenodd" clip-rule="evenodd" d="M48 34C52.4183 34 56 29.9706 56 25C56 20.0294 52.4183 16 48 16C43.5817 16 40 20.0294 40 25C40 29.9706 43.5817 34 48 34ZM40 36C36 36 32 42 32 44C32 46 32 48 34 48H62C64 48 64 46 64 44C64 42 60 36 56 36C54.202 36 53.6163 36.4041 52.9714 36.849C52.1816 37.3939 51.3031 38 48 38C44.6969 38 43.8184 37.3939 43.0286 36.849C42.3837 36.4041 41.798 36 40 36Z" fill-opacity="0.5"/>
  <path fill="#855CEA" fill-rule="evenodd" clip-rule="evenodd" d="M24 36C30.6274 36 36 29.732 36 22C36 14.268 30.6274 8 24 8C17.3726 8 12 14.268 12 22C12 29.732 17.3726 36 24 36ZM12 38C6 38 0 47 0 50C0 53 0 56 3 56H45C48 56 48 53 48 50C48 47 42 38 36 38C33.3031 38 32.4245 38.6061 31.4572 39.2735C30.2724 40.0908 28.9546 41 24 41C19.0454 41 17.7276 40.0908 16.5428 39.2735C15.5755 38.6061 14.6969 38 12 38Z"/>
  <path fill="#855CEA" fill-rule="evenodd" clip-rule="evenodd" d="M24 36C30.6274 36 36 29.732 36 22C36 14.268 30.6274 8 24 8C17.3726 8 12 14.268 12 22C12 29.732 17.3726 36 24 36ZM12 38C6 38 0 47 0 50C0 53 0 56 3 56H45C48 56 48 53 48 50C48 47 42 38 36 38C33.3031 38 32.4245 38.6061 31.4572 39.2735C30.2724 40.0908 28.9546 41 24 41C19.0454 41 17.7276 40.0908 16.5428 39.2735C15.5755 38.6061 14.6969 38 12 38Z"/>
</svg>
