<svg xmlns="http://www.w3.org/2000/svg" width="63" height="64" fill="none"><path fill="#FFD799" fill-rule="evenodd" d="M0 2a2 2 0 0 1 2-2h36l14 14v48a2 2 0 0 1-2 2H2a2 2 0 0 1-2-2V2Z" clip-rule="evenodd"/><path fill="#FF9300" fill-rule="evenodd" d="M36.5 0a.5.5 0 0 0-.5.5V16h15.5a.5.5 0 0 0 .5-.5V14L38 0h-1.5ZM54.847 26.608a1.455 1.455 0 0 0-2.057 0L31.939 47.446l9.329 9.327 20.851-20.836a1.449 1.449 0 0 0 0-2.056l-7.272-7.273ZM28.818 55.273h.003l-1.137 3.97a1.448 1.448 0 0 0 .372 1.423 1.433 1.433 0 0 0 1.423.373l9.364-2.677-8.483-8.483-1.542 5.394Z" clip-rule="evenodd"/></svg>