<svg width="24" height="24" fill="none" xmlns="http://www.w3.org/2000/svg"><g clip-path="url(#a)"><mask id="b" style="mask-type:luminance" maskUnits="userSpaceOnUse" x="15" y="17" width="7" height="7"><path fill-rule="evenodd" clip-rule="evenodd" d="M15.75 17.486h5.78V24h-5.78v-6.514Z" fill="#fff"/></mask><g mask="url(#b)"><path fill-rule="evenodd" clip-rule="evenodd" d="m21.343 19.596-1.721-1.884a.83.83 0 0 0-.553-.226h-1.127a.665.665 0 0 0-.512.226l-1.536 1.864c-.205.245-.185.614.02.901l.512.697.984-1.291v2.581l.962 1.209c.164.205.41.327.635.327.062 0 .123 0 .164-.02a.657.657 0 0 0 .512-.615l.02-.143v-3.4l1.168 1.413.492-.737c.246-.267.205-.656-.02-.902" fill="#F4A41D"/></g><path fill-rule="evenodd" clip-rule="evenodd" d="M18.495 13c1.131 0 2.048.908 2.048 2.028s-.916 2.028-2.048 2.028a2.038 2.038 0 0 1-2.048-2.028c0-1.12.917-2.028 2.048-2.028" fill="#F4A41D"/><mask id="c" style="mask-type:luminance" maskUnits="userSpaceOnUse" x="13" y="0" width="11" height="11"><path fill-rule="evenodd" clip-rule="evenodd" d="M13 .344h11v9.867H13V.344Z" fill="#fff"/></mask><g mask="url(#c)"><path fill-rule="evenodd" clip-rule="evenodd" d="M18.95 1.856c.037-.308-.008-.759.235-.97.071-.329.589-.252.508-.462-.05-.13-.293-.068-.392-.044-.074.018-.784.242-1.056.272l-.347-.096c-.445.06-.702.414-.95.695-.207.236-.489.814-.265 1.16l-.037.227.506.739c.174.125.198.218.385.342l.117.174c.153.1.606.102.682.036.73.069.65-1.408.882-1.718a.62.62 0 0 0-.268-.355Zm-3.143 4.433c.155-.04.418-.06.557-.13.22-.11.977-.639.736-1.07-.074-.907-1.17-.14-1.637-.459-.471-.06-1.002-.953-1.144-1.336-.055-.15-.032-.099-.108-.219 0-.012-.048.042-.048.03-.137.16-.114.3-.135.692l-.186-.012c-.012.143-.026.22-.092.293l-.042.072c-.117-.04-.058.016-.106-.082-.434.022-.402.459-.602.706.009.816 1.622 1.822 2.807 1.515Zm5.36-2.475c-.704.105-1.134.33-1.4.514-.186.13-.24.216-.28.271-.04.055-.068.175-.048.303.02.125.072.26.182.335.864-.064 2.366-.119 2.658.608.015.1.038.162.04.186.287-.07.077-.046.499.02.096.015.334-.038.492-.077.072-.017.113-.082.113-.082s-.014-.069-.01-.107c0 0 .148.011.209-.035.4-.065.19-.253.378-.465-.113-1.357-1.506-1.673-2.833-1.472m-1.543 2.954c-.2.153-.285.115-.402.352-.013 0 .017.036.006.036.119.239.393.334.595.502.062.053.232.348.313.37.091.108.15.407.21.407.06.085-.006.283.055.36.003.355-.045.38-.107.448 0 .025.033.09.033.113.017.017.16.12.222.107.193.005.985.624 1.048.743.568.043.527-.131.919-.297.106-.046.19-.003.26-.075.073-.074.078-.22.148-.297.01-1.398-1.892-2.721-3.3-2.77m-2.238.32c-.08.084-.297.115-.358.211-.093.146-.306.477-.473.635-.538.511-1.69.768-2.259.28-.037.002-.015.024.03.164.041.264.254.885.175 1.043.052.176.104.111.202.21.066.065.092.238.168.284l.26-.018.047.146.334-.024c.062.014.251.112.306.127l.37-.026c.283.075.53-.043.769-.204.133-.089.278-.075.396-.176.171-.147.405-.433.514-.632.267-.486.177-1.65-.066-1.939-.095-.103-.207-.106-.415-.081Z" fill="#F1471C"/></g><path d="M6.057 3.477c-.342.272-.67.633-.86 1.028-.392.811-.175 1.557-.007 2.041.228.66.69.992 1.242 1.235.786.347 1.773.37 2.67.138.317-.081.807-.251.915-.41.116-.171.134-.503-.115-.648-.243-.142-.267-.034-.991.127a2.644 2.644 0 0 1-1.715-.154c-.416-.18-.698-.456-.795-.833-.276-1.083.32-1.484.437-1.558l-.781-.966Z" fill="url(#d)"/><path d="M6.88 4.75c-.311-.041-1.224-.138-2.178-.307-1.478-.262-3.215-.626-3.77-.665C-.135 3.704-.313 5.09.54 5.328c.483.134 1.81-.007 2.133.63.099.194.359.926.653 1.832.116.356 1.055.3.88-.457-.1-.433-.326-1.6-.326-1.6s2.694.285 2.913.304L6.88 4.75Z" fill="url(#e)"/><path d="M8.3 4.037c.341.01.937.097 1.205.277L11 4.608c.014-.83-.441-1.276-.951-1.533-.387-.196-.93-.355-1.745-.32-.78.033-1.599.204-2.252.724l.78.97A2.519 2.519 0 0 1 8.3 4.036Z" fill="url(#f)"/><path d="M9.48 4.299s.08.05.114.082c.163.148.216.326-.278.408l.391 1.208c.89-.238 1.281-.763 1.292-1.403l-1.518-.295Z" fill="url(#g)"/><path d="M9.331 4.786c-.438.072-1.287.12-2.457-.036l-.088 1.287c1.9.165 2.57.052 2.936-.046l-.39-1.205Z" fill="url(#h)"/><path fill-rule="evenodd" clip-rule="evenodd" d="M5.46 21.674c-2.143 0-3.881-1.75-3.881-3.91 0-2.159 1.738-3.91 3.881-3.91 2.144 0 3.882 1.751 3.882 3.91 0 2.16-1.738 3.91-3.882 3.91m0-8.674C2.446 13 0 15.463 0 18.5 0 21.538 2.445 24 5.46 24c3.016 0 5.461-2.462 5.461-5.5 0-3.037-2.445-5.5-5.46-5.5" fill="#EC1C24"/><path fill-rule="evenodd" clip-rule="evenodd" d="M5.448 21.706s1.242-1.334 1.242-2.378c0-1.045-.756-1.42-1.242-1.42-.487 0-1.216.362-1.216 1.433 0 1.071 1.216 2.365 1.216 2.365" fill="#EC1C24"/></g><defs><linearGradient id="d" x1="6.203" y1="4.365" x2="9.063" y2="7.471" gradientUnits="userSpaceOnUse"><stop stop-color="#0186F5"/><stop offset=".132" stop-color="#0186F5"/><stop offset=".315" stop-color="#35C2B0"/><stop offset=".667" stop-color="#AAD825"/><stop offset="1" stop-color="#FED700"/></linearGradient><linearGradient id="e" x1="3.855" y1="7.682" x2="3.879" y2="5.733" gradientUnits="userSpaceOnUse"><stop stop-color="#FF7F00"/><stop offset="1" stop-color="#FE0201"/></linearGradient><linearGradient id="f" x1="6.279" y1="3.878" x2="9.437" y2="3.939" gradientUnits="userSpaceOnUse"><stop stop-color="#0186F5"/><stop offset=".198" stop-color="#0186F5"/><stop offset="1" stop-color="#3156FD"/></linearGradient><linearGradient id="g" x1="9.609" y1="5.067" x2="9.9" y2="4.492" gradientUnits="userSpaceOnUse"><stop stop-color="#8434D5"/><stop offset=".854" stop-color="#3156FD"/><stop offset="1" stop-color="#3156FD"/></linearGradient><linearGradient id="h" x1="9.285" y1="5.386" x2="6.861" y2="5.501" gradientUnits="userSpaceOnUse"><stop stop-color="#8434D5"/><stop offset="1" stop-color="#FE0201"/></linearGradient><clipPath id="a"><path fill="#fff" d="M0 0h24v24H0z"/></clipPath></defs></svg>