<svg xmlns="http://www.w3.org/2000/svg" width="96" height="96" fill="none"><path fill="#fff" d="M95.248 57.849C101.369 24.37 68.8 8 45.84 8 18.846 8 0 28.214 0 47.256c0 25.548 21.952 39.498 38.71 41.437 18.846 2.18 52.208-7.166 56.538-30.844Z"/><path fill="#FECAF3" d="M14.338 50.419c-.099 2.135-.075 4.17.417 6.026 1.029 3.264 3.974 4.237 7.332 4.461 1.561.157 3.145.09 4.506 0 6.782-.223 13.72.247 20.512-.088a56.248 56.248 0 0 0 6.347-.38c.915-.134 1.706-.167 2.398-.324.792-.033 1.584-.066 2.275-.223 3.77-.525 4.582-3.04 4.558-6.204l.155-1.566c.022-.223-.056-.57-.157-.693.033-.335.067-.67-.023-.905.099-2.136.198-4.271.085-6.54.022-.224.055-.56-.034-.794.109-3.377.555-18.123.068-29.124.175-4.047 1.173-11.85-3.502-13.561-2.722-.95-38.95-.293-40.768-.137-2.052.246-3.256 1.028-3.724 2.336-.512.626-.59 1.409-.7 2.527.068 2.717-.362 40.046.255 45.189Z"/><path fill="#DA44B6" fill-rule="evenodd" d="M37.274 13.048c4.236.002 8.47.003 12.68-.026 1.8-.045 1.855-2.845.056-2.8-8.41-.052-16.941-.005-25.362.053-1.9-.077-1.843 2.734-.054 2.8 4.21-.03 8.445-.028 12.68-.027Zm-3.695 5.95c-.334.004-.666.013-1.158.026-1.106.03-3.016.082-7.537.138-1.8.045-1.745-2.754-.056-2.81l3.801-.113c2.947-.088 3.825-.115 4.702-.1.372.006.744.02 1.273.039.644.023 1.52.055 2.91.092 1.789.066 1.845 2.876.057 2.81l-.414-.01c-2.176-.06-2.877-.078-3.578-.071Zm-4.157 5.93c2.941.047 5.912.094 8.806-.06 1.8-.045 1.743-2.856-.056-2.81-2.436.13-4.922.082-7.402.035-1.999-.038-3.993-.075-5.951-.02-1.9-.077-1.743 2.855.056 2.81 1.498-.004 3.018.02 4.547.045Zm13.575 10.625c-6.143-.276-7.487-.298-18.474-.383-1.8.045-1.745-2.754.055-2.8 8.264-.151 11.168.004 15.058.212 1.03.055 2.13.114 3.416.171 1.788.066 1.734 2.866-.055 2.8Zm-3.252 8.988c-6.892-.05-8.677.007-13.897.175l-.933.03c-1.8.045-1.743 2.855.057 2.81 6.645-.015 8.09-.058 9.755-.106 1.09-.032 2.274-.067 5.075-.099 1.8-.045 1.854-2.844-.057-2.81Zm-15.343-5.905c8.42-.058 16.952-.105 25.361-.053 1.8-.045 1.857 2.766-.054 2.8-4.21.029-8.446.027-12.68.026-4.236-.001-8.471-.003-12.682.027-1.8.045-1.745-2.755.055-2.8Z" clip-rule="evenodd"/><rect width="34" height="60" x="46" y="17" fill="#BBD9FD" stroke="#297EF2" stroke-width="4" rx="6"/><path fill="#FECAF3" d="M56.097 52.878c-.029.63-.022 1.23.119 1.778.294.963 1.135 1.25 2.094 1.316.447.047.9.027 1.288 0 1.938-.066 3.92.073 5.86-.026.613-.003 1.228-.04 1.814-.112.261-.04.488-.05.685-.095.226-.01.453-.02.65-.066 1.077-.155 1.31-.898 1.302-1.831l.045-.462a.365.365 0 0 0-.045-.205c.01-.098.019-.197-.007-.267.029-.63.057-1.26.025-1.93.006-.066.015-.165-.01-.234.03-.996.159-5.347.02-8.594.05-1.194.335-3.496-1.001-4.001-.778-.28-11.129-.087-11.648-.04-.587.072-.93.303-1.064.689-.147.184-.169.415-.2.745.02.802-.104 11.817.073 13.335Z"/><path fill="#FEC267" fill-rule="evenodd" d="M29.284 95.509c2.376-4.106 6.35-10.972 7.652-12.274-.424-5.083-1.059-13.13 1.482-20.33 2.542-7.201 8.683-20.12 9.319-21.178.635-1.06 3.811.847 4.659 3.176.847 2.33-1.271 7.836-2.542 10.165-1.27 2.33-.847 7.413-.423 8.683.077.231.343.61.718 1.142 1.486 2.112 4.683 6.656 4.593 14.107H72.5c-2.781 7.127-9.12 9.973-12.707 11.584-.784.351-1.436.644-1.891.91-1.147 1.31-2.463 3.176-3.315 4.383L54.5 96H29l.284-.491Z" clip-rule="evenodd"/><path fill="#FF962F" d="M42.442 83.446c-.339-4.235-3.67-10.8-5.294-13.553 0 3.388-.127 10.843-.636 13.553 0 .509-5.33 8.248-8.012 12.554h8.648c.917-2.188 2.753-6.963 5.294-12.554Z"/><path stroke="#297EF2" stroke-linecap="round" stroke-linejoin="round" stroke-width="2" d="M53 39v-4h4M53 55v4h4M73 39v-4h-4M73 55v4h-4"/><rect width="8" height="1" x="59" y="41" fill="#DA44B6" rx=".5"/><rect width="4" height="1" x="59" y="43" fill="#DA44B6" rx=".5"/><rect width="4" height="1" x="59" y="45" fill="#DA44B6" rx=".5"/><rect width="6" height="1" x="59" y="48" fill="#DA44B6" rx=".5"/><rect width="8" height="1" x="59" y="50" fill="#DA44B6" rx=".5"/><rect width="5" height="1" x="59" y="52" fill="#DA44B6" rx=".5"/></svg>