<svg xmlns="http://www.w3.org/2000/svg" width="64" height="64" fill="none"><path fill="#FCBABA" fill-rule="evenodd" d="M32 0c17.673 0 32 14.327 32 32 0 17.673-14.327 32-32 32C14.327 64 0 49.673 0 32 0 14.327 14.327 0 32 0Z" clip-rule="evenodd"/><path fill="#F52D2D" fill-rule="evenodd" d="m26.834 46.388 10.903-.007v.016a5.439 5.439 0 0 1-5.454 5.443c-3.01 0-5.45-2.438-5.449-5.437v-.015Zm.002-2.728-10.886.005a2.726 2.726 0 0 1-2.742-2.727 2.74 2.74 0 0 1 2.727-2.727l.003-5.455c.003-6.682 3.643-15.184 10.914-18.083V13.64a5.44 5.44 0 0 1 5.455-5.442 5.44 5.44 0 0 1 5.448 5.436v1.033c7.267 2.891 10.896 11.389 10.893 18.07l-.003 5.456a2.714 2.714 0 0 1 2.724 2.726 2.736 2.736 0 0 1-2.744 2.728l-10.886.007-10.903.006Z" clip-rule="evenodd"/></svg>