<svg xmlns="http://www.w3.org/2000/svg" width="214" height="160" fill="none"><path fill="#BBD9FD" fill-rule="evenodd" d="M63.916 156.591c3.578 1.273 12.756 2.374 20.152 2.813 20.197 1.204 48.419.55 60.383-1.662 12.052-2.232 12.587-5.607-18.051-7.277-26.09-1.424-56.543.605-63.055 3.626-1.748.811-1.652 1.712.571 2.5Z" clip-rule="evenodd"/><path fill="#297EF1" fill-rule="evenodd" d="m114.736 22.83-43.43 8.988c-6.315 1.314-10.368 7.456-9.061 13.737l18.087 86.563c1.307 6.288 7.488 10.31 13.796 9.022l43.437-9.022c6.321-1.288 10.361-7.449 9.054-13.737l-18.081-86.55c-1.313-6.28-7.488-10.316-13.802-9.002Z" clip-rule="evenodd"/><path fill="#BBD9FD" fill-rule="evenodd" d="m134.767 104.453-49.142 10.19L71.65 47.774l49.155-10.177 13.962 66.856Zm-17.504 20.249c-1.333 2.001-4.039 2.575-6.062 1.248a4.33 4.33 0 0 1-1.247-6.03c1.366-1.948 4.006-2.49 6.055-1.261a4.343 4.343 0 0 1 1.267 6.029l-.013.014Z" clip-rule="evenodd"/><path fill="#fff" d="M163.381 0c-23.472 0-42.5 19.028-42.5 42.5l.003.576c.208 15.525 8.814 29.457 22.123 36.731l.301.162.117-.204c-.633 1.066-1.029 2.176-1.029 3.278 0 2.373 1.132 4.368 3.418 5.165l.383.128c4.335 1.365 8.253.071 12.994-3.248l.362-.26.936.075c.959.065 1.923.097 2.892.097 23.472 0 42.5-19.028 42.5-42.5S186.853 0 163.381 0Z"/><path fill="#BBD9FD" d="M163.381 0c-23.472 0-42.5 19.028-42.5 42.5l.003.576c.208 15.525 8.814 29.457 22.123 36.731l.301.162.117-.204c-.633 1.066-1.029 2.176-1.029 3.278 0 2.373 1.132 4.368 3.418 5.165l.383.128c4.335 1.365 8.253.071 12.994-3.248l.362-.26.936.075c.959.065 1.923.097 2.892.097 23.472 0 42.5-19.028 42.5-42.5S186.853 0 163.381 0Zm0 5c20.71 0 37.5 16.79 37.5 37.5s-16.79 37.5-37.5 37.5c-1.427 0-2.843-.08-4.245-.237l-.966-.11-1.488 1.085c-3.732 2.678-6.371 3.619-8.953 2.837l-.267-.087c-.061-.022-.066-.03-.066-.445 0-.048.112-.362.301-.68l.102-.162a8.954 8.954 0 0 0 1.205-2.797l.49-1.998-1.867-.865c-13.152-6.098-21.746-19.29-21.746-34.041 0-20.71 16.789-37.5 37.5-37.5Z"/><path fill="#297EF2" d="M140.333 37c0-6.534 0-9.8 1.272-12.296a11.664 11.664 0 0 1 5.098-5.099c2.496-1.271 5.763-1.271 12.297-1.271h9.333c6.534 0 9.801 0 12.297 1.271a11.664 11.664 0 0 1 5.098 5.099C187 27.199 187 30.466 187 37v9.334c0 6.533 0 9.8-1.272 12.296a11.664 11.664 0 0 1-5.098 5.099C178.134 65 174.867 65 168.333 65H159c-6.534 0-9.801 0-12.297-1.271a11.664 11.664 0 0 1-5.098-5.099c-1.272-2.496-1.272-5.763-1.272-12.297V37Z"/><path fill="#fff" fill-rule="evenodd" d="M168.783 46.394a.857.857 0 0 1-1.171.248 1.239 1.239 0 0 1-.093-.064 6.244 6.244 0 0 1-3.86 1.332 6.235 6.235 0 0 1-3.851-1.327c-.029.02-.057.041-.086.059a.86.86 0 0 1-1.172-.245.844.844 0 0 1 .24-1.155c.33-.217.353-.65.353-.655a.855.855 0 0 1 .272-.595.78.78 0 0 1 .596-.223.84.84 0 0 1 .816.853c0 .006-.001.236-.084.555a4.561 4.561 0 0 0 5.843-.011 2.761 2.761 0 0 1-.081-.53.837.837 0 0 1 .827-.868h.015c.454 0 .831.366.842.822 0 0 .024.436.35.651a.839.839 0 0 1 .244 1.153m3.586-9.834a9.178 9.178 0 0 0-2.609-5.414c-1.673-1.681-3.883-2.604-6.223-2.604-2.339 0-4.548.923-6.221 2.605a9.163 9.163 0 0 0-2.612 5.441c-2.009.244-3.866 1.18-5.301 2.682a9.216 9.216 0 0 0-2.536 6.388c0 5.037 3.99 9.134 8.896 9.134h15.806c4.904 0 8.898-4.097 8.898-9.134 0-4.76-3.566-8.681-8.098-9.098" clip-rule="evenodd"/></svg>