<svg width="96" height="96" viewBox="0 0 96 96" fill="none" xmlns="http://www.w3.org/2000/svg">
<path d="M15.72 91.7876C18.4041 93.061 25.2808 94.1582 30.8253 94.6088C45.9502 95.8137 67.0898 95.1769 76.0433 92.9729C85.0751 90.759 85.4767 87.3892 62.5249 85.6945C42.982 84.2643 20.1673 86.2725 15.2988 89.2896C13.9861 90.0929 14.0645 90.9941 15.72 91.7876Z" fill="#D4E6FF"/>
<circle cx="48.1837" cy="40.1837" r="39.1837" fill="#B3D3FF"/>
<path fill-rule="evenodd" clip-rule="evenodd" d="M51.75 27.9337L59.25 35.4337L35.5943 59.1837H28V51.7472L51.75 27.9337ZM65.2804 21.4641L65.7196 21.9033C67.6594 23.8431 67.6743 27.029 65.7307 28.9969L63.0769 31.6837L55.5 24.1837L58.2232 21.4605C60.1729 19.5108 63.3306 19.5143 65.2804 21.4641ZM45.5 54.1837H60.4927C61.8774 54.1837 63 55.2934 63 56.6837C63 58.0644 61.8842 59.1837 60.5061 59.1837H40.5L45.5 54.1837Z" fill="#297EF2"/>
</svg>
