<svg xmlns="http://www.w3.org/2000/svg" width="96" height="96" fill="none"><path fill="#FDD5D5" fill-rule="evenodd" d="M96 77.985C96 81.306 93.339 84 90.006 84H5.994C2.685 84 0 81.306 0 77.985V52.501c.452 0 .91-.102 1.342-.318l22.743-11.371 46.712 20.437a3 3 0 0 0 2.545-.066L96 49.854v28.131Zm0-34.486V18.015A6.009 6.009 0 0 0 89.994 12H6.003A5.995 5.995 0 0 0 0 18.015v28.13l22.658-11.328a3 3 0 0 1 2.544-.066l46.713 20.437 22.743-11.371c.432-.216.89-.318 1.342-.318Z" clip-rule="evenodd"/><path fill="#F52D2D" fill-rule="evenodd" d="M36 52.5c4.5 0 9 6.75 9 9l-.012 1.179C44.93 64.474 44.603 66 42.75 66h-31.5C9 66 9 63.75 9 61.5s4.5-9 9-9c2.023 0 2.682.455 3.407.955.889.613 1.877 1.295 5.593 1.295s4.704-.682 5.593-1.295c.725-.5 1.384-.955 3.407-.955Zm-1.338-7.06-10.577-4.628-5.546 2.773c1.256 3.888 4.57 6.665 8.461 6.665 3.238 0 6.077-1.924 7.662-4.81ZM27 30c4.774 0 8.68 4.182 8.981 9.467l-10.779-4.715a3 3 0 0 0-2.544.065l-4.196 2.098C19.655 32.897 23.027 30 27 30Zm35.34 21-10.796-4.724A2.996 2.996 0 0 1 54 45h27a3 3 0 0 1 2.708 4.292L80.292 51H62.341Zm-1.254 6 9.712 4.248a3 3 0 0 0 2.544-.065l8.25-4.125A3.001 3.001 0 0 1 81 63H54a3 3 0 1 1 0-6h7.086ZM51 36a3 3 0 0 1 3-3h27a3 3 0 0 1 0 6H54a3 3 0 0 1-3-3Z" clip-rule="evenodd"/></svg>