<svg xmlns="http://www.w3.org/2000/svg" width="96" height="96" fill="none"><path fill="#F8D3F0" d="M90.006 84C93.339 84 96 81.306 96 77.985v-59.97A6.009 6.009 0 0 0 89.994 12H6.003A5.995 5.995 0 0 0 0 18.015v59.97C0 81.306 2.685 84 5.994 84h84.012Z"/><path fill="#E049BF" fill-rule="evenodd" d="M45 61.5c0-2.25-4.5-9-9-9-2.023 0-2.682.455-3.407.956-.889.612-1.877 1.294-5.593 1.294s-4.704-.681-5.593-1.294c-.725-.501-1.384-.956-3.407-.956-4.5 0-9 6.75-9 9S9 66 11.25 66h31.5c1.853 0 2.18-1.526 2.238-3.32L45 61.5Zm-9-21.375C36 34.533 31.97 30 27 30s-9 4.533-9 10.125 4.03 10.125 9 10.125 9-4.533 9-10.125ZM54 33a3 3 0 1 0 0 6h27a3 3 0 1 0 0-6H54Zm0 12a3 3 0 1 0 0 6h27a3 3 0 1 0 0-6H54Zm-3 15a3 3 0 0 1 3-3h27a3 3 0 1 1 0 6H54a3 3 0 0 1-3-3Z" clip-rule="evenodd"/></svg>
