<svg width="96" height="96" viewBox="0 0 96 96" fill="none" xmlns="http://www.w3.org/2000/svg" xmlns:xlink="http://www.w3.org/1999/xlink">
<style>.shadow_147 {
	-webkit-animation: 2s ease-in-out 0s infinite normal forwards running shadow_147;
	animation: 2s ease-in-out 0s infinite normal forwards running shadow_147;
	width: 64px;
}
@keyframes shadow_147 {
	0% {
    -webkit-transform: translateX(15.92px) translateY(90px) scaleX(1.125);
		transform: translateX(15.92px) translateY(90px) scaleX(1.125);
	}
	50% {
		-webkit-transform: translateX(19.92px) translateY(90px) scaleX(1);
		transform: translateX(19.92px) translateY(90px) scaleX(1);
	}
	100% {
		-webkit-transform: translateX(15.92px) translateY(90px) scaleX(1.125);
		transform: translateX(15.92px) translateY(90px) scaleX(1.125);
	}
}.file_194 {
	-webkit-animation: 2s ease-in-out 0s infinite normal forwards running file_194;
	animation: 2s ease-in-out 0s infinite normal forwards running file_194;
	-webkit-transform: translateX(16px) translateY(0px);
	transform: translateX(16px) translateY(0px);
}
@keyframes file_194 {
	0% {
		-webkit-transform: translateX(16px) translateY(0px);
		transform: translateX(16px) translateY(0px);
	}
	50% {
		-webkit-transform: translateX(16px) translateY(5px);
		transform: translateX(16px) translateY(5px);
	}
	100% {
		-webkit-transform: translateX(16px) translateY(0px);
		transform: translateX(16px) translateY(0px);
	}
}.line_6_434 {
	-webkit-animation: 2s linear 0s infinite normal forwards running line_6_434;
	animation: 2s linear 0s infinite normal forwards running line_6_434;
	fill: rgba(41,126,242,1);
}
@keyframes line_6_434 {
	0% {
		fill: rgba(41,126,242,1);
	}
	56.5% {
		fill: rgba(41,126,242,1);
	}
	58.5% {
		fill: rgba(252,158,42,1);
	}
	75% {
		fill: rgba(252,158,42,1);
	}
	100% {
		fill: rgba(41,126,242,1);
	}
}.line_5_424 {
	-webkit-animation: 2s linear 0s infinite normal forwards running line_5_424;
	animation: 2s linear 0s infinite normal forwards running line_5_424;
	fill: rgba(41,126,242,1);
}
@keyframes line_5_424 {
	0% {
		fill: rgba(41,126,242,1);
	}
	51.5% {
		fill: rgba(41,126,242,1);
	}
	53.5% {
		fill: rgba(252,158,42,1);
	}
	75% {
		fill: rgba(252,158,42,1);
	}
	100% {
		fill: rgba(41,126,242,1);
	}
}.line_4_395 {
	-webkit-animation: 2s linear 0s infinite normal forwards running line_4_395;
	animation: 2s linear 0s infinite normal forwards running line_4_395;
	fill: rgba(41,126,242,1);
}
@keyframes line_4_395 {
	0% {
		fill: rgba(41,126,242,1);
	}
	45% {
		fill: rgba(41,126,242,1);
	}
	48.5% {
		fill: rgba(252,158,42,1);
	}
	75% {
		fill: rgba(252,158,42,1);
	}
	100% {
		fill: rgba(41,126,242,1);
	}
}.line_3_649 {
	-webkit-animation: 2s linear 0s infinite normal forwards running line_3_649;
	animation: 2s linear 0s infinite normal forwards running line_3_649;
	fill: rgba(41,126,242,1);
}
@keyframes line_3_649 {
	0% {
		fill: rgba(41,126,242,1);
	}
	35% {
		fill: rgba(41,126,242,1);
	}
	38.5% {
		fill: rgba(252,158,42,1);
	}
	75% {
		fill: rgba(252,158,42,1);
	}
	100% {
		fill: rgba(41,126,242,1);
	}
}.line_2_898 {
	-webkit-animation: 2s linear 0s infinite normal forwards running line_2_898;
	animation: 2s linear 0s infinite normal forwards running line_2_898;
	fill: rgba(41,126,242,1);
}
@keyframes line_2_898 {
	0% {
		fill: rgba(41,126,242,1);
	}
	28.5% {
		fill: rgba(41,126,242,1);
	}
	32.5% {
		fill: rgba(252,158,42,1);
	}
	75% {
		fill: rgba(252,158,42,1);
	}
	100% {
		fill: rgba(41,126,242,1);
	}
}.line_1_935 {
	-webkit-animation: 2s linear 0s infinite normal forwards running line_1_935;
	animation: 2s linear 0s infinite normal forwards running line_1_935;
	fill: rgba(41,126,242,1);
}
@keyframes line_1_935 {
	0% {
		fill: rgba(41,126,242,1);
	}
	22% {
		fill: rgba(41,126,242,1);
	}
	26.5% {
		fill: rgba(252,158,42,1);
	}
	75% {
		fill: rgba(252,158,42,1);
	}
	100% {
		fill: rgba(41,126,242,1);
	}
}.scan_654 {
	-webkit-filter: drop-shadow(1px 0px 2px rgba(255, 213, 139, .5)) drop-shadow(0px 1px 2px rgba(255, 213, 139, .5)) drop-shadow(-1px 0px 2px rgba(255, 213, 139, .5)) drop-shadow(0px -1px 2px rgba(255, 213, 139, .5));
	filter: drop-shadow(1px 0px 2px rgba(255, 213, 139, .5)) drop-shadow(0px 1px 2px rgba(255, 213, 139, .5)) drop-shadow(-1px 0px 2px rgba(255, 213, 139, .5)) drop-shadow(0px -1px 2px rgba(255, 213, 139, .5));
	-webkit-animation: 2s linear 0s infinite normal forwards running scan_654;
	animation: 2s linear 0s infinite normal forwards running scan_654;
	-webkit-transform: translateX(8px) translateY(0px);
	transform: translateX(8px) translateY(0px);
	opacity: 0;
}
@keyframes scan_654 {
	0% {
		-webkit-transform: translateX(8px) translateY(0px);
		transform: translateX(8px) translateY(0px);
		opacity: 0;
	}
	25% {
		opacity: 1;
	}
	60% {
		opacity: 1;
	}
	75% {
		-webkit-transform: translateX(8px) translateY(89px);
		transform: translateX(8px) translateY(89px);
		opacity: 0;
	}
	100% {
		-webkit-transform: translateX(8px) translateY(89px);
		transform: translateX(8px) translateY(89px);
		opacity: 0;
	}
}
</style>
<g clip-path="url(#clip_0_19)" width="96" height="96" data-name="ocr-animation">
	<path d="M2.0304 3.94374C4.26641 4.70886 9.99519 5.36805 14.6141 5.63878C27.2142 6.36271 44.8248 5.98015 52.2837 4.65589C59.8078 3.32575 60.1424 1.30111 41.022 0.282906C24.7415 -0.576389 5.73533 0.630155 1.67949 2.44291C0.585962 2.92553 0.651247 3.46701 2.0304 3.94374" fill="#D4E6FF" data-name="shadow" class="shadow_147" transform="translate(19.92 90)"/>
	<g transform="translate(16 4.9)" class="file_194" width="64" height="78.77" data-name="file">
		<path fill-rule="evenodd" clip-rule="evenodd" d="M0 8C0 3.58172 3.58172 0 8 0H45.1124C46.1732 0 47.1907 0.421427 47.9408 1.17157L62.8284 16.0592C63.5786 16.8093 64 17.8268 64 18.8876V70.7692C64 75.1875 60.4183 78.7692 56 78.7692H8C3.58172 78.7692 0 75.1875 0 70.7692V8Z" fill="#B2D3FF" data-name="paper"/>
		<path fill-rule="evenodd" clip-rule="evenodd" d="M0.630096 0C0.451861 0 0.307373 0.144488 0.307373 0.322723V11.6923C0.307373 16.1106 3.8891 19.6923 8.30737 19.6923H19.677C19.8552 19.6923 19.9997 19.5478 19.9997 19.3696V19.3696C19.9997 18.0001 19.4557 16.6868 18.4873 15.7184L4.28128 1.51237C3.31293 0.544017 1.99956 0 0.630096 0V0Z" fill="#197BFF" data-name="coin" transform="translate(44.31 0)"/>
		<g transform="translate(11.95 25.98)" width="40.03" height="40.89" data-name="text">
			<path d="M26.3682 0.147559C19.3384 0.0979448 7.18687 -0.0378626 1.43247 0.147559C-0.303505 0.191402 -0.248395 2.90252 1.48758 2.85868C12.0964 2.83126 19.5972 2.93754 26.4233 2.85868C28.1593 2.81484 28.2113 0.114367 26.3682 0.147559Z" fill="#297EF2" data-name="line 6" class="line_6_434" transform="translate(0.16 38.05)"/>
			<path d="M1.4323 0.426469C9.55502 0.368305 30.4871 0.377513 38.5992 0.426518C40.3351 0.382671 40.3903 3.0938 38.5471 3.12699C34.4858 3.15607 28.0818 3.12747 20.2463 3.12709C12.4108 3.12672 5.44161 3.09785 1.38025 3.12693C-0.355724 3.17078 -0.303669 0.470312 1.4323 0.426469Z" fill="#297EF2" data-name="line 5" class="line_5_424" transform="translate(0.11 31.38)"/>
			<path d="M26.6253 3.12447C19.0656 3.14316 8.98578 3.16957 1.27624 3.11155C-0.459729 3.1554 -0.407672 0.454929 1.3283 0.411085C11.412 0.223221 27.7933 0.325508 33.5433 0.411085C35.2686 0.474407 35.2165 3.17488 33.4912 3.11155C31.853 3.11155 29.4578 3.11747 26.6253 3.12447Z" fill="#297EF2" data-name="line 4" class="line_4_395" transform="translate(0 24.3)"/>
			<path d="M1.43545 3.17032C2.63108 3.16661 4.62899 3.19978 7.5718 3.2183C15.0209 3.26516 14.8583 3.33334 17.9 3.17032C19.636 3.12648 19.5809 0.415351 17.8449 0.459194C16.0471 0.459194 14.5471 0.521077 12.5266 0.492241C7.47001 0.457364 3.21227 0.407143 1.38034 0.459194C-0.452142 0.385216 -0.300521 3.21416 1.43545 3.17032Z" fill="#FD9E2A" data-name="line 3" class="line_3_649" transform="translate(0.07 13.43)"/>
			<path d="M28.2647 3.58766C22.328 3.43027 11.9479 3.45308 1.32841 3.58766C-0.407562 3.63151 -0.355507 0.931042 1.2733 0.876542C11.3676 0.581513 22.2729 0.719154 28.2096 0.876544C29.9349 0.939866 29.99 3.65099 28.2647 3.58766Z" fill="#FD9E2A" data-name="line 2" class="line_2_898" transform="translate(0.04 6.7)"/>
			<path d="M20.4774 2.76895C28.3129 2.76933 34.6421 2.76981 38.7035 2.74073C40.4395 2.69688 40.4915 -0.00358412 38.7555 0.0402594C30.6435 -0.0087428 9.50318 -0.0179026 1.38047 0.0402616C-0.452015 -0.0337165 -0.396906 2.67741 1.32841 2.74073C5.38972 2.71165 12.642 2.76858 20.4774 2.76895Z" fill="#FD9E2A" data-name="line 1" class="line_1_935" transform="translate(0.02 0)"/>
		</g>
	</g>
	<rect width="80" height="2" rx="1" fill="white" data-name="scan" class="scan_654"/>
</g>
<defs><clipPath id="clip_0_19"><rect width="96" height="96"/></clipPath>
</defs>
</svg>
