<svg width="24" height="24" fill="none" xmlns="http://www.w3.org/2000/svg"><g clip-path="url(#a)"><circle cx="18.5" cy="18.5" r="5.5" fill="url(#b)"/><path d="M20.454 16.282c-.526-.502-1.293-.753-2.302-.753-.299 0-.571.01-.817.028-.245.02-.48.042-.705.068v5.759c.224.027.45.05.68.068.23.019.481.028.753.028 1.052 0 1.845-.237 2.379-.713.534-.475.801-1.217.801-2.226 0-1.005-.263-1.758-.789-2.26Zm-.685 3.168c-.085.236-.2.425-.343.562a1.136 1.136 0 0 1-.504.283c-.2.053-.42.08-.658.08-.11 0-.197-.002-.266-.006l-.065-.005v-3.712a8.352 8.352 0 0 1 .395-.01c.213-.001.416.028.606.086.183.056.348.154.491.292.143.138.258.33.343.57.087.242.13.554.13.926.002.382-.042.696-.129.934Z" fill="#fff"/><path d="M19.16 6.527a.692.692 0 0 1 .406.045c.12.059.218.156.276.277a.692.692 0 0 1-.913.91.554.554 0 0 1-.273-.273.693.693 0 0 1 .504-.96Z" fill="#30CEBB"/><path fill-rule="evenodd" clip-rule="evenodd" d="M22.579 6.413V5.275a.665.665 0 0 0-.692-.636h-4a.664.664 0 0 0-.691.636v3.719a.66.66 0 0 0 .692.633h4.002a.66.66 0 0 0 .692-.633V7.787h-1.318V6.403l1.315.01Zm-1.775.965h-.346a1.24 1.24 0 0 1-.194.474l.25.25-.315.314-.25-.249a1.239 1.239 0 0 1-.473.194v.346h-.447V8.36a1.224 1.224 0 0 1-.47-.194l-.253.25-.314-.316.249-.249a1.237 1.237 0 0 1-.194-.474h-.346v-.46h.346c.03-.168.097-.329.194-.47l-.25-.253.315-.314.253.252c.14-.1.301-.166.47-.197V5.59h.447v.346c.17.03.332.098.474.197l.249-.252.314.314-.249.253c.095.142.158.302.187.47h.346l.007.46Z" fill="#30CEBB"/><path fill-rule="evenodd" clip-rule="evenodd" d="M16.719 10.207c.262.25.608.389.968.392V11h4.663v-.427a1.424 1.424 0 0 0 1.152-1.358V5.158a1.422 1.422 0 0 0-1.456-1.384h-4.314a1.422 1.422 0 0 0-1.456 1.384v4.057c.01.376.17.733.443.992Zm1.013-5.96a.951.951 0 0 0-.982.91v4.058a.952.952 0 0 0 .982.91h4.314a.948.948 0 0 0 1-.91V5.158a.948.948 0 0 0-.983-.91h-4.33Z" fill="#30CEBB"/><path d="M21.5 2.542c0-1.484-.952-2.421-2.508-2.525a32.192 32.192 0 0 0-2.1 0c-.401 0-.82.37-1.647 1.107l-.311.273c-.32.272-.624.561-.913.865-.398.412-.53.636-.523.872.007.235 0 .799 0 1.414v.931a2.82 2.82 0 0 0 .606 1.626 2.075 2.075 0 0 0 1.56.903l.024-.983c-.581 0-1.207-.92-1.207-1.546V3.725a.242.242 0 0 1 .242-.242h1.847a.346.346 0 0 0 .346-.346v-2.1l.055-.027a30.395 30.395 0 0 1 1.969 0c1.037.062 1.58.584 1.591 1.546v.675h.979v-.305c0-.104-.01-.273-.01-.384Z" fill="#005151"/><ellipse cx="5.5" cy="5.501" rx="5.5" ry="5.413" fill="#0062D1"/><path fill-rule="evenodd" clip-rule="evenodd" d="M5.463 6.352v1.077l.007.018a.965.965 0 1 1-1.93-.025V3.107c0-.07.057-.127.126-.127h3.129a1.655 1.655 0 1 1 .011 3.31H5.527a.064.064 0 0 0-.064.062ZM6.737 4.88H5.525a.064.064 0 0 0-.064.062v.8c.001.034.03.062.064.062h1.256a1.169 1.169 0 0 0-.044-2.335H4.09a.064.064 0 0 0-.061.064v3.914a.47.47 0 1 0 .94 0V4.518c0-.07.056-.126.125-.126h1.643a.245.245 0 1 1 0 .488Z" fill="#fff"/><path fill-rule="evenodd" clip-rule="evenodd" d="M6.947 23.008H2.539a.477.477 0 0 1-.477-.476v-6.83h5.362v6.83a.477.477 0 0 1-.477.476Z" fill="#F9BB59"/><path fill-rule="evenodd" clip-rule="evenodd" d="M2.063 15.682v6.958c0 .207.134.391.332.454l2.733.865a.238.238 0 0 0 .31-.227v-3.573c0-.134.13-.23.258-.19l.238.076a.199.199 0 0 0 .258-.19v-2.517a.476.476 0 0 0-.332-.454l-3.798-1.202ZM10.997 13s-.357.12-.754.159c-.435.043-1.589.278-2.621.913-1.033.636-1.51 1.51-1.628 1.867-.12.357-.278.556-.278.556s.397-.16.635-.199c.235-.04 1.747-.198 2.621-.874.874-.675 1.42-1.413 1.628-1.787.199-.357.397-.635.397-.635ZM6.391 16.93s.199.04.437-.198c.238-.238.794-.476 1.47-.437.674.04 1.39.437 1.826.755.159.119.318.159.318.159s-.358.08-.596.238c-.238.159-.755.318-1.27.318-.517 0-1.232-.239-1.629-.556-.198-.16-.556-.278-.556-.278Z" fill="#ED7502"/><path fill-rule="evenodd" clip-rule="evenodd" d="M7.424 15.701H2.062v6.83c0 .264.214.477.477.477h4.408a.477.477 0 0 0 .477-.476v-6.83Zm-.12.12v6.71c0 .198-.16.358-.357.358H2.539a.358.358 0 0 1-.357-.357V15.82h5.122Z" fill="#ED7502"/></g><defs><radialGradient id="b" cx="0" cy="0" r="1" gradientUnits="userSpaceOnUse" gradientTransform="rotate(-48.483 32.591 -5.11) scale(11.2018)"><stop offset=".276" stop-color="#004C98"/><stop offset="1" stop-color="#019AD6"/></radialGradient><clipPath id="a"><path fill="#fff" d="M0 0h24v24H0z"/></clipPath></defs></svg>