<svg xmlns="http://www.w3.org/2000/svg" width="64" height="64" fill="none"><circle cx="32" cy="32" r="32" fill="#D9DDE1"/><path fill="#95999D" fill-rule="evenodd" d="m45.522 5.678.597-2.403.179.089c.23.116.46.234.688.355l.67.366.662.382.674.412.65.42c.463.306.917.624 1.363.954l.524.395.634.502.717.6.473.416.529.484.476.456.492.491.327.339.442.473.546.613.375.44.627.772.335.434.497.672.377.535.366.543.498.782.38.631.174.299c.27.473.529.953.775 1.44l.36.735.266.575.332.764.313.774c.347.893.655 1.807.922 2.738l.065.229c-1.15 1.78-3.228 2.11-4.712 1.21l-.242-.162-1.674-1.226a.61.61 0 0 0-.51-.098l-.127.048-2.15 1.102a.083.083 0 0 0 .004.06l.6.221c.05.018.097.042.14.072 1.762 1.222 1.937 3.297.902 4.678l-.173.212-1.518 1.704c-1.003 1.126-2.682 1.42-4.017.741l-.262-.148-4.09-2.578c-.014-.008-.022-.013-.045-.003l-.022.015-.322 1.903.003.022.012.019 2.133 1.95a3.158 3.158 0 0 1 .664 3.857l-.163.268-3.393 5.021-.098.3-.296 7.216a3.164 3.164 0 0 1-.773 1.947l-.215.226-4.63 4.43c-.633.606-1.47.92-2.314.92a3.36 3.36 0 0 1-1.347-.28l-.317-.16-3.003-1.717a3.25 3.25 0 0 1-1.477-1.804l-.078-.288-1.381-6.16-1.325-3.477-.016-.02-.024-.01-6.061-.514a3.323 3.323 0 0 1-2.395-1.331l-.174-.263-3.448-5.804a3.176 3.176 0 0 1-.44-1.786l.031-.31.868-5.63a3.177 3.177 0 0 1 1.026-1.89l.249-.202 5.294-3.9a3.378 3.378 0 0 1 2.96-.506l.298.105 5.05 2.056.081.027.084.015 6.822.726.414-.106 4.536-3.175.018-.025-.002-.03-.437-.955-.016-.02-.024-.007-13.22-.707a3.379 3.379 0 0 1-1.459-.42c-1.164-.651-1.805-1.91-1.634-3.209a3.227 3.227 0 0 1 2.122-2.607l.292-.092 3.835-1.009.256-.14 4.752-4.378a3.348 3.348 0 0 1 1.621-.816l.306-.045 7.305-.735a.046.046 0 0 0 .04-.035Z" clip-rule="evenodd"/></svg>