<svg xmlns="http://www.w3.org/2000/svg" width="96" height="96" fill="none"><path fill="#BBD9FD" fill-rule="evenodd" d="M66.963 43.145c0 13.036-10.613 23.605-23.705 23.605-13.09 0-23.703-10.57-23.703-23.605 0-13.036 10.613-23.604 23.703-23.604 13.092 0 23.705 10.568 23.705 23.604Z" clip-rule="evenodd"/><path fill="#3281EE" fill-rule="evenodd" d="M42.666 22.077c-11.338 0-20.564 9.186-20.564 20.48 0 11.29 9.226 20.477 20.564 20.477 11.34 0 20.565-9.187 20.565-20.478 0-11.293-9.226-20.479-20.565-20.479Zm0 47.034C27.963 69.11 16 57.199 16 42.556 16 27.913 27.963 16 42.666 16c14.705 0 26.667 11.913 26.667 26.556S57.371 69.111 42.666 69.111Z" clip-rule="evenodd"/><path fill="#3281EE" fill-rule="evenodd" d="M73.837 77.372c-1.577 0-3.154-.6-4.357-1.797l-10.193-10.15a6.119 6.119 0 0 1 0-8.68 6.18 6.18 0 0 1 8.715 0l10.192 10.15a6.119 6.119 0 0 1 .001 8.679 6.158 6.158 0 0 1-4.358 1.798Z" clip-rule="evenodd"/><path fill="#BBD9FD" fill-rule="evenodd" d="M23.637 93.174c1.994.873 7.11 1.63 11.234 1.933 11.258.828 26.99.387 33.657-1.13 6.719-1.526 7.018-3.84-10.064-4.993-14.542-.982-31.516.406-35.147 2.476-.974.555-.92 1.173.32 1.714Z" clip-rule="evenodd"/></svg>