<svg width="24" height="24" fill="none" xmlns="http://www.w3.org/2000/svg"><g clip-path="url(#a)"><path d="M13 24h11V13H13v11Z" fill="url(#b)"/><path fill-rule="evenodd" clip-rule="evenodd" d="M18.427 20.1V16.7h2.08v.538h-1.52v.93h1.308v.527h-1.308V20.1h-.56Zm4.44 0-.761-1.369h-.568V20.1h-.56V16.7h1.257c.506 0 1.18.142 1.18.988 0 .575-.299.84-.769.965l.885 1.446h-.664Zm-.702-1.876c.507 0 .666-.216.666-.54 0-.214-.097-.48-.647-.48h-.646v1.02h.627Zm-5.587-.187c-.404-.113-.45-.325-.45-.463 0-.265.204-.44.572-.44a.78.78 0 0 1 .642.325l.444-.259c-.216-.316-.548-.579-1.087-.579-.636 0-1.158.395-1.158.978 0 .573.493.835 1.018.983l.244.07c.451.119.486.322.486.498 0 .322-.337.521-.63.521-.306 0-.547-.1-.744-.448l-.443.263c.287.494.632.694 1.19.694.616 0 1.211-.47 1.211-1.056 0-.694-.564-.89-1.052-1.016l-.243-.07Z" fill="#fff"/><path fill-rule="evenodd" clip-rule="evenodd" d="M19.476 10.012c.782.54 2.33-.342 3.456-1.974 1.127-1.632 1.407-3.39.624-3.931-.782-.54-2.29.297-3.418 1.93-1.127 1.631-1.445 3.435-.662 3.975" fill="#EA5D0B"/><path fill-rule="evenodd" clip-rule="evenodd" d="M17.524 10.012c-.782.54-2.33-.342-3.456-1.974-1.127-1.632-1.407-3.39-.624-3.931.782-.54 2.29.297 3.418 1.93 1.126 1.631 1.445 3.435.662 3.975" fill="#0854A1"/><path fill-rule="evenodd" clip-rule="evenodd" d="M22.094 2.75c0-.95-1.61-1.719-3.595-1.719s-3.594.77-3.594 1.719c0 .95 1.609 1.719 3.594 1.719 1.986 0 3.595-.77 3.595-1.719" fill="#009CCE"/><path fill-rule="evenodd" clip-rule="evenodd" d="M0 11h11V0H0v11Z" fill="#FF7900"/><path fill-rule="evenodd" clip-rule="evenodd" d="M3.751 9.61a.183.183 0 0 0 .181.2.568.568 0 0 0 .374-.16v-.363c-.376.049-.555.145-.555.326V9.61Zm.564.324a.878.878 0 0 1-.504.15.424.424 0 0 1-.458-.444c0-.341.314-.522.962-.596v-.087c0-.11-.085-.174-.24-.174a.458.458 0 0 0-.372.174l-.266-.153a.75.75 0 0 1 .654-.3c.398 0 .62.174.62.458v1.111h-.357l-.039-.14ZM5.028 8.58l.332-.049.037.184a.846.846 0 0 1 .525-.214.433.433 0 0 1 .479.5v1.065h-.404v-.994c0-.188-.048-.273-.195-.273a.596.596 0 0 0-.375.17v1.097h-.4V8.58ZM9.37 9.1a.293.293 0 0 0-.309-.325c-.18 0-.295.117-.309.325h.619Zm-.302.997c-.458 0-.72-.291-.72-.795s.271-.8.713-.8c.443 0 .706.282.706.781v.076H8.743c0 .291.124.438.362.438a.391.391 0 0 0 .346-.195l.296.165a.738.738 0 0 1-.679.33ZM1.354 8.838c-.3 0-.357.27-.357.458s.057.459.357.459.356-.273.356-.459c0-.185-.055-.458-.356-.458Zm0 1.274a.733.733 0 0 1-.758-.806.733.733 0 0 1 .758-.81.733.733 0 0 1 .757.81.731.731 0 0 1-.757.806ZM2.388 8.535h.382v.172a.593.593 0 0 1 .475-.211v.378h-.02c-.175 0-.368.027-.427.163v1.017h-.41v-1.52ZM8.106 8.532v1.45c0 .257-.02.676-.75.688-.3 0-.58-.117-.637-.38l.399-.065c.016.076.062.151.289.151.227 0 .31-.1.31-.341v-.181a.406.406 0 0 1-.397.229c-.356 0-.637-.248-.637-.765 0-.518.288-.8.614-.8.325 0 .42.14.444.213l.035-.184.33-.015Zm-.72 1.207c.307 0 .332-.312.332-.515 0-.204-.116-.433-.334-.433-.145 0-.307.105-.307.458 0 .18.014.492.31.49ZM10.585 8.458H10.5V8.04l-.165.421h-.053l-.167-.421v.421h-.082v-.504h.128l.151.385.15-.385h.128l-.005.5Zm-.66-.438h-.158v.438h-.085V8.02h-.158V7.95h.401v.069Z" fill="#fff"/><path fill-rule="evenodd" clip-rule="evenodd" d="M2.586 16.66c.256-.12.534-.185.817-.193l-.022.013c.05-.003.1-.003.15 0a.37.37 0 0 1 .13.045.155.155 0 0 1 .06.065.103.103 0 0 1 .012.052.15.15 0 0 1 0 .054.26.26 0 0 1-.027.056.311.311 0 0 1-.108.1.267.267 0 0 1-.112.028 1.06 1.06 0 0 1-.236-.04.771.771 0 0 0-.494.005.502.502 0 0 0-.175.104.919.919 0 0 0-.204.313l-.224.466h.743c.017 0 .034.01.042.025a.045.045 0 0 1 0 .047l-.09.16a.047.047 0 0 1-.042.024H2.02L.772 20.353a.047.047 0 0 1-.034.024l-.449.072a.051.051 0 0 1-.042-.016l-.023-.022a.05.05 0 0 1 0-.054l1.123-2.373h-.6a.045.045 0 0 1-.04-.022.05.05 0 0 1 0-.047l.083-.16a.045.045 0 0 1 .043-.027h.626c.103-.205.232-.396.384-.568.211-.215.464-.385.743-.5ZM5.884 17.9c.454-.272.974-.419 1.504-.424v.007c.114 0 .228.008.341.024a.91.91 0 0 1 .292.088.305.305 0 0 1 .123.114.195.195 0 0 1 .023.095c-.001.076-.026.15-.072.21a.632.632 0 0 1-.186.162 2.1 2.1 0 0 1-.589.225 7.795 7.795 0 0 1-1.39.188.685.685 0 0 0-.042.25c0 .035.012.069.034.096a.28.28 0 0 0 .112.081c.132.052.274.076.415.072.447-.018.884-.14 1.276-.355a.05.05 0 0 1 .047 0l.105.067a.05.05 0 0 1 .023.04c-.001.018-.01.034-.025.044a3.39 3.39 0 0 1-1.715.505 1.573 1.573 0 0 1-.61-.1.586.586 0 0 1-.304-.255.45.45 0 0 1-.051-.213.815.815 0 0 1 .193-.492c.14-.17.307-.315.496-.429Zm4.337-.424c-.53.005-1.05.152-1.504.424a1.927 1.927 0 0 0-.496.43.815.815 0 0 0-.193.49.45.45 0 0 0 .051.214c.068.118.175.21.303.256.195.073.401.106.609.099a3.393 3.393 0 0 0 1.717-.505.06.06 0 0 0 .025-.043.047.047 0 0 0-.025-.04l-.103-.068a.05.05 0 0 0-.047 0 2.917 2.917 0 0 1-1.276.355 1.056 1.056 0 0 1-.417-.072.287.287 0 0 1-.11-.08.15.15 0 0 1-.036-.097.644.644 0 0 1 .045-.25 7.769 7.769 0 0 0 1.387-.188c.207-.045.406-.12.59-.225a.673.673 0 0 0 .187-.161.357.357 0 0 0 .072-.211.225.225 0 0 0-.023-.095.305.305 0 0 0-.123-.114.91.91 0 0 0-.292-.088 2.483 2.483 0 0 0-.341-.024v-.007Zm-6.427.11c.102-.038.21-.06.318-.063l.005.018c.05-.001.1.003.148.011.041.006.08.019.117.038.022.013.042.03.058.05a.16.16 0 0 1 .032.094.175.175 0 0 1 0 .05 1.357 1.357 0 0 1-.074.175l-.158.291c.063-.058.135-.12.214-.188.183-.158.384-.294.6-.406a.93.93 0 0 1 .405-.115c.041 0 .082.004.122.011.033.007.066.021.094.04.016.014.03.03.043.048.013.025.02.053.02.08a.345.345 0 0 1-.045.153.33.33 0 0 1-.15.142.343.343 0 0 1-.167.038c-.048 0-.097-.004-.145-.008a.7.7 0 0 0-.49.11c-.13.08-.247.178-.35.29a4.35 4.35 0 0 0-.537.706l-.134.247a.065.065 0 0 1-.03.027l-.031.01a.262.262 0 0 1-.067 0H3.41a.567.567 0 0 1-.106-.01.43.43 0 0 1-.15-.05.08.08 0 0 1-.025-.029.063.063 0 0 1 0-.03.087.087 0 0 1 0-.037l.014-.023.583-1.073a.994.994 0 0 0 .077-.164.088.088 0 0 0 0-.038c.002-.004-.003-.018-.016-.03a.12.12 0 0 0-.076-.022.522.522 0 0 0-.153.027 2.441 2.441 0 0 0-.447.222.047.047 0 0 1-.054 0l-.096-.064a.052.052 0 0 1-.023-.039c0-.016.007-.03.02-.04a3.97 3.97 0 0 1 .346-.225c.156-.089.32-.164.49-.224Zm3.423.11c.07-.003.14.01.202.04.017.009.032.021.043.036a.07.07 0 0 1 .013.043.258.258 0 0 1-.033.121.547.547 0 0 1-.225.186c-.187.095-.388.16-.595.194a4.712 4.712 0 0 1-.61.074c.036-.051.076-.1.119-.146.139-.146.298-.271.473-.37.184-.11.391-.17.604-.178h.01Zm3.035.04a.434.434 0 0 0-.202-.04h-.02c-.212.008-.42.069-.602.177a2.021 2.021 0 0 0-.476.37 1.213 1.213 0 0 0-.119.147c.205-.012.41-.036.611-.074.206-.034.406-.099.593-.194a.516.516 0 0 0 .224-.186.224.224 0 0 0 .034-.121.068.068 0 0 0 0-.043.144.144 0 0 0-.043-.036Z" fill="#CD1E25"/></g><defs><radialGradient id="b" cx="0" cy="0" r="1" gradientUnits="userSpaceOnUse" gradientTransform="rotate(132.716 7.736 12.212) scale(10.2742)"><stop stop-color="#EE0005"/><stop offset=".559" stop-color="#EB0004"/><stop offset="1" stop-color="#B30008"/></radialGradient><clipPath id="a"><path fill="#fff" d="M0 0h24v24H0z"/></clipPath></defs></svg>