<svg xmlns="http://www.w3.org/2000/svg" width="128" height="128" viewBox="0 0 128 128">
    <g fill="none" fill-rule="evenodd">
        <path fill="#FFB4E6" d="M128 64c0 35.346-28.654 64-64 64-35.346 0-64-28.654-64-64C0 28.654 28.654 0 64 0c35.346 0 64 28.654 64 64"/>
        <path fill="#000105" d="M42 124.118V69h42v55.813A63.942 63.942 0 0 1 64 128c-7.73 0-15.14-1.37-22-3.882z"/>
        <path fill="#A67048" d="M81.889 26.585a2.16 2.16 0 0 0-1.198-1.927 23.859 23.859 0 0 0-.155-3.516c-.967-8.19-8.603-14.645-17.495-14.645-6.178 0-16.396 4.487-17.323 18.194a2.158 2.158 0 0 0-1.138 1.894c0 .869.515 1.613 1.255 1.959.53 2.62 2.104 5.39 4.06 7.339 2.417 2.409 4.06 5.395 3.48 9.057 17.012-2.217 21.845-7.034 21.845-7.034s-.097-.77 1.45-2.601c.969-1.148 2.62-3.205 3.482-6.596a2.17 2.17 0 0 0 1.737-2.124"/>
        <path fill="#020306" d="M57.87 26.947a1.23 1.23 0 0 1-1.232 1.228c-.681 0-1.233-.55-1.233-1.228 0-.678.552-1.229 1.233-1.229.68 0 1.231.55 1.231 1.229M70.919 26.947a1.23 1.23 0 0 1-1.233 1.228c-.68 0-1.233-.55-1.233-1.228 0-.678.552-1.229 1.233-1.229.68 0 1.233.55 1.233 1.229"/>
        <path fill="#623C20" d="M64.829 33.71a2.035 2.035 0 0 0-1.653-.806c-1.096 0-1.61.772-1.632.805a.347.347 0 0 1-.585-.37c.03-.046.73-1.126 2.217-1.126 1.486 0 2.204 1.075 2.233 1.122a.344.344 0 0 1-.29.533.346.346 0 0 1-.29-.158z"/>
        <path fill="#000" d="M63.041 6.497c-6.129 0-16.234 4.415-17.301 17.865 15.484 1.009 17.446-9.338 17.446-9.338 3.006 8.91 13.563 9.477 17.513 9.365a23.96 23.96 0 0 0-.163-3.247c-.967-8.19-8.603-14.645-17.495-14.645M51.567 37.838c-2.83-5.375-4.813-9.085-4.813-9.085-.315.025-.533-.036-.919-.21.52 2.932 2.176 5.462 4.06 7.34a15.293 15.293 0 0 1 1.672 1.956v-.001zM76.67 35.305c.965-1.142 2.647-2.987 3.468-6.55-.03.013-2.56 3.001-4.637 8.236.216-.379.67-1.098 1.168-1.686"/>
        <path fill="#EE7D00" d="M125.52 107.528c-.348-.347-.862-.482-1.342-.414l-.003-.022h.001a1.565 1.565 0 0 0 1.296-1.781 1.567 1.567 0 0 0-1.74-1.298 1.552 1.552 0 0 0-.492-3.065 1.557 1.557 0 0 0 1.255-1.769 1.555 1.555 0 0 0-1.739-1.298 1.562 1.562 0 0 0 1.253-1.774 1.57 1.57 0 0 0-1.738-1.298 1.547 1.547 0 0 0 1.246-1.767 1.557 1.557 0 0 0-1.731-1.298c.825-.16 1.379-.94 1.247-1.769a1.55 1.55 0 0 0-1.773-1.29 1.564 1.564 0 0 0 1.288-1.782 1.56 1.56 0 0 0-1.739-1.298 1.542 1.542 0 0 0 1.247-1.768 1.558 1.558 0 0 0-1.732-1.297 1.55 1.55 0 0 0 1.248-1.768 1.558 1.558 0 0 0-1.732-1.298 1.556 1.556 0 0 0 1.247-1.768 1.555 1.555 0 0 0-1.739-1.298 1.56 1.56 0 0 0 1.247-1.775 1.563 1.563 0 0 0-1.739-1.298 1.546 1.546 0 0 0 1.253-1.768 1.559 1.559 0 0 0-1.738-1.297 1.553 1.553 0 0 0-.486-3.066 1.551 1.551 0 0 0 1.248-1.768 1.547 1.547 0 0 0-1.732-1.298 1.558 1.558 0 0 0 1.247-1.775 1.559 1.559 0 0 0-1.732-1.298 1.548 1.548 0 0 0 1.248-1.768 1.555 1.555 0 0 0-1.74-1.297 1.546 1.546 0 0 0 1.247-1.768 1.547 1.547 0 0 0-1.732-1.298 1.56 1.56 0 0 0 1.248-1.774 1.548 1.548 0 0 0-1.732-1.291 1.56 1.56 0 0 0 1.247-1.776 1.561 1.561 0 0 0-1.774-1.29 1.556 1.556 0 0 0 1.288-1.775 1.557 1.557 0 0 0-1.738-1.298 1.551 1.551 0 0 0 1.247-1.768 1.549 1.549 0 0 0-1.738-1.297 1.563 1.563 0 0 0 1.253-1.775 1.565 1.565 0 0 0-1.74-1.299 1.541 1.541 0 0 0 1.248-1.767 1.559 1.559 0 0 0-1.732-1.298 1.55 1.55 0 0 0 1.247-1.768 1.55 1.55 0 0 0-1.78-1.29l-.001-.008c.021-.003.042-.002.064-.006.096-.014.194-.05.29-.083.09-.042.18-.09.27-.145a1.558 1.558 0 0 0 .693-1.291c0-.104-.013-.208-.035-.304-.02-.104-.048-.2-.083-.29a1.616 1.616 0 0 0-.34-.504 1.456 1.456 0 0 0-.235-.194 2.712 2.712 0 0 0-.27-.145 1.51 1.51 0 0 0-.9-.09c-.105.02-.2.048-.29.09a1.71 1.71 0 0 0-.272.145 1.252 1.252 0 0 0-.235.194 1.255 1.255 0 0 0-.194.234 1.784 1.784 0 0 0-.146.27 1.507 1.507 0 0 0-.093.838h-.01v-.003a1.553 1.553 0 0 0-1.78-1.284 1.555 1.555 0 0 0-1.296 1.78 1.554 1.554 0 0 0-1.787-1.284 1.54 1.54 0 0 0-1.288 1.775v.002l-.007.001v-.003a1.547 1.547 0 0 0-1.78-1.284 1.555 1.555 0 0 0-1.296 1.78 1.561 1.561 0 0 0-1.788-1.29 1.551 1.551 0 0 0-1.288 1.781v.001a1.556 1.556 0 0 0-1.787-1.284 1.552 1.552 0 0 0-1.295 1.774l.002.004h-.001v-.004a1.559 1.559 0 0 0-3.077.497 1.558 1.558 0 0 0-1.787-1.285 1.555 1.555 0 0 0-1.296 1.776l.001.002v-.002a1.557 1.557 0 0 0-3.076.495 1.563 1.563 0 0 0-1.787-1.29 1.558 1.558 0 0 0-1.295 1.781v.002-.002a1.55 1.55 0 0 0-1.787-1.284 1.549 1.549 0 0 0-1.289 1.775v.004-.004a1.56 1.56 0 0 0-1.787-1.285 1.55 1.55 0 0 0-1.288 1.782h-.007a1.547 1.547 0 0 0-1.78-1.284 1.547 1.547 0 0 0-1.296 1.774v0a1.559 1.559 0 0 0-1.788-1.284 1.55 1.55 0 0 0-1.288 1.78l-.007.001a1.556 1.556 0 0 0-1.78-1.29 1.555 1.555 0 0 0-1.295 1.781v.001-.001a1.554 1.554 0 0 0-1.787-1.284 1.552 1.552 0 0 0-1.29 1.774l.002.004h-.002a1.561 1.561 0 0 0-3.082.493 1.553 1.553 0 0 0-1.787-1.285 1.548 1.548 0 0 0-1.288 1.776v.002-.002a1.56 1.56 0 1 0-3.083.496 1.565 1.565 0 0 0-1.787-1.291 1.56 1.56 0 0 0-1.288 1.781v.002-.002a1.558 1.558 0 0 0-1.787-1.283 1.56 1.56 0 0 0-1.296 1.779 1.555 1.555 0 0 0-1.78-1.29 1.554 1.554 0 0 0-1.295 1.782 1.554 1.554 0 0 0-1.788-1.284 1.554 1.554 0 0 0-1.296 1.775l.002.003c-.002-.001 0-.002-.002-.003a1.55 1.55 0 0 0-1.78-1.285 1.553 1.553 0 0 0-1.295 1.78 1.564 1.564 0 0 0-1.787-1.29 1.55 1.55 0 0 0-1.288 1.783l-.007.001v-.002a1.549 1.549 0 0 0-1.781-1.285 1.556 1.556 0 0 0-1.295 1.78 1.564 1.564 0 0 0-1.787-1.29 1.55 1.55 0 0 0-1.288 1.782l-.007.001v-.001a1.546 1.546 0 0 0-1.78-1.284 1.555 1.555 0 0 0-1.296 1.778 1.559 1.559 0 0 0-1.787-1.288 1.554 1.554 0 0 0-1.288 1.78h-.001a1.567 1.567 0 0 0-1.787-1.29 1.563 1.563 0 0 0-1.295 1.782v.002-.002a1.559 1.559 0 0 0-3.076.495 1.56 1.56 0 1 0-3.083.494v-.002a1.554 1.554 0 0 0-1.787-1.285 1.549 1.549 0 0 0-1.288 1.776v.003-.003a1.56 1.56 0 0 0-1.787-1.285 1.56 1.56 0 0 0-1.295 1.781h-.002c-.003-.017-.002-.037-.005-.055-.021-.104-.049-.2-.09-.29a1.724 1.724 0 0 0-.146-.27 1.56 1.56 0 0 0-1.6-.663 1.604 1.604 0 0 0-.797.429 1.616 1.616 0 0 0-.34.504c-.034.09-.069.186-.082.29-.022.097-.035.2-.035.304a1.56 1.56 0 0 0 .693 1.29c.083.057.18.104.27.14.096.041.194.069.291.09.104.02.2.033.305.033.082 0 .165-.01.246-.024a1.555 1.555 0 0 0-1.278 1.786 1.563 1.563 0 0 0 1.697 1.29 1.558 1.558 0 0 0-1.192 1.768 1.562 1.562 0 0 0 1.697 1.29 1.558 1.558 0 0 0-1.191 1.769 1.562 1.562 0 0 0 1.697 1.291 1.546 1.546 0 0 0-1.184 1.768c.13.814.879 1.373 1.69 1.291a1.554 1.554 0 0 0 .513 3.058 1.55 1.55 0 0 0-1.192 1.769c.13.814.879 1.38 1.697 1.29a1.557 1.557 0 0 0-1.192 1.768 1.553 1.553 0 0 0 1.698 1.29 1.569 1.569 0 0 0-1.192 1.776c.131.814.887 1.374 1.697 1.291a1.558 1.558 0 0 0-1.192 1.767c.14.815.888 1.375 1.698 1.291a1.557 1.557 0 0 0-1.191 1.768 1.562 1.562 0 0 0 1.697 1.292 1.546 1.546 0 0 0-1.185 1.768c.131.814.88 1.373 1.69 1.29a1.546 1.546 0 0 0-1.184 1.768c.132.815.88 1.374 1.697 1.292a1.55 1.55 0 0 0-1.191 1.767c.13.814.872 1.374 1.683 1.298a1.55 1.55 0 0 0-1.178 1.76 1.56 1.56 0 0 0 1.697 1.298 1.552 1.552 0 0 0 .506 3.06 1.552 1.552 0 0 0 .506 3.058 1.557 1.557 0 0 0-1.192 1.768 1.554 1.554 0 0 0 1.69 1.29 1.563 1.563 0 0 0-1.185 1.77c.14.813.88 1.373 1.691 1.297a1.547 1.547 0 0 0-1.184 1.76 1.567 1.567 0 0 0 1.697 1.298 1.555 1.555 0 0 0-1.192 1.769c.139.814.887 1.373 1.698 1.29a1.546 1.546 0 0 0-1.185 1.768c.132.815.88 1.375 1.697 1.292a1.545 1.545 0 0 0-1.191 1.767 1.55 1.55 0 0 0 1.683 1.29 1.554 1.554 0 1 0 .52 3.06 1.557 1.557 0 0 0-1.192 1.768 1.564 1.564 0 0 0 1.792 1.284l.002.015a1.521 1.521 0 0 0-.853.413 1.296 1.296 0 0 0-.193.235 1.69 1.69 0 0 0-.145.269c-.036.09-.07.187-.083.29-.021.096-.036.2-.036.304a1.56 1.56 0 0 0 2.66 1.098c.299-.297.457-.684.457-1.098 0-.057-.009-.112-.014-.168a1.554 1.554 0 0 0 1.768 1.21 1.554 1.554 0 0 0 1.309-1.63 1.557 1.557 0 1 0 3.062-.49c.2.767.956 1.27 1.76 1.147a1.557 1.557 0 0 0 1.308-1.63c.201.766.956 1.271 1.753 1.146a1.558 1.558 0 0 0 1.31-1.636c.2.766.955 1.27 1.759 1.146a1.562 1.562 0 0 0 1.308-1.636 1.55 1.55 0 0 0 1.753 1.146 1.551 1.551 0 0 0 1.309-1.63c.2.767.957 1.271 1.753 1.146a1.552 1.552 0 0 0 1.309-1.635 1.562 1.562 0 0 0 3.07-.491 1.544 1.544 0 0 0 1.752 1.146 1.547 1.547 0 0 0 1.309-1.629 1.56 1.56 0 1 0 3.068-.49c.194.766.95 1.277 1.753 1.145a1.546 1.546 0 0 0 1.309-1.629c.2.766.956 1.271 1.753 1.147a1.553 1.553 0 0 0 1.308-1.637c.201.766.956 1.277 1.76 1.146a1.554 1.554 0 0 0 1.31-1.63c.2.767.956 1.27 1.752 1.147a1.56 1.56 0 0 0 1.31-1.636c.2.766.955 1.27 1.759 1.146a1.566 1.566 0 0 0 1.31-1.637 1.545 1.545 0 0 0 1.752 1.147 1.548 1.548 0 0 0 1.309-1.63c.2.767.955 1.27 1.76 1.146a1.553 1.553 0 0 0 1.301-1.637c.201.767.956 1.278 1.76 1.147a1.554 1.554 0 0 0 1.31-1.63 1.556 1.556 0 1 0 3.062-.483c.2.766.955 1.263 1.759 1.139a1.56 1.56 0 0 0 1.309-1.637 1.544 1.544 0 0 0 1.752 1.147 1.546 1.546 0 0 0 1.31-1.63c.2.766.956 1.271 1.752 1.146a1.552 1.552 0 0 0 1.31-1.636c.2.773.955 1.278 1.759 1.146a1.552 1.552 0 0 0 1.308-1.629c.201.766.956 1.27 1.754 1.146a1.558 1.558 0 0 0 1.308-1.644 1.56 1.56 0 0 0 3.07-.475 1.556 1.556 0 0 0 3.061-.484c.201.76.956 1.264 1.752 1.14a1.568 1.568 0 0 0 1.316-1.63c.195.766.95 1.27 1.754 1.139a1.552 1.552 0 0 0 1.308-1.63c.201.767.956 1.271 1.753 1.147a1.553 1.553 0 0 0 1.309-1.636c.2.765.956 1.276 1.76 1.146a1.553 1.553 0 0 0 1.309-1.63c.2.767.956 1.27 1.752 1.146a1.56 1.56 0 0 0 1.31-1.636 1.56 1.56 0 0 0 3.069-.484c.194.767.949 1.27 1.752 1.14a1.55 1.55 0 0 0 1.3-1.679 1.56 1.56 0 0 0 2.62.76c.291-.296.458-.684.458-1.097 0-.408-.167-.808-.458-1.098"/>
        <path fill="#F5AC5D" d="M11.426 50.913l98.3-15.608 11.309 70.62-98.493 15.898z"/>
        <path fill="#CC6B00" d="M14.756 52.787l4.849 4.143 83.817-13.81 3.404-4.54z"/>
        <path fill="#EE7D00" d="M25.151 118.547l3.383-4.046-8.93-57.571-4.848-4.143z"/>
        <path fill="#CC6B00" d="M117.362 104.095l-92.21 14.452 3.382-4.046 84.672-13.585z"/>
        <path fill="#EE7D00" d="M113.206 100.916l4.156 3.179-10.536-65.515-3.404 4.54z"/>
        <path fill="#A67048" d="M7.367 68.833c0-2.505-.29-5.106 2.126-5.588 2.416-.482 6.51-.193 7.556 4.047 1.046 4.239-5.333 7.033-7.46 6.166-2.125-.868-2.222-4.625-2.222-4.625M118.282 48.374c-.534-3.435-1.164-5.288-4.11-4.494-2.946.793-5.412 3.564-4.832 6.551.58 2.987 4.5 4.767 6.599 4.503 2.099-.264 2.952-2.653 2.343-6.56"/>
        <path fill="#FFF" d="M19.605 56.93l83.817-13.81 9.784 57.796L28.534 114.5z"/>
        <g fill="#CD3C13" fill-rule="nonzero">
            <path d="M86.533 85.813a2.93 2.93 0 0 1 .648 4.092l-3.444 4.74a2.93 2.93 0 0 1-4.091.648l-11.85-8.61-8.61 11.85a2.93 2.93 0 0 1-4.09.648l-4.74-3.444a2.93 2.93 0 0 1-.649-4.091l8.61-11.85-11.85-8.61a2.93 2.93 0 0 1-.648-4.09l3.444-4.74a2.93 2.93 0 0 1 4.091-.649l11.85 8.61 8.61-11.85a2.93 2.93 0 0 1 4.09-.648l4.74 3.444a2.93 2.93 0 0 1 .649 4.091l-8.61 11.85 11.85 8.61z"/>
        </g>
    </g>
</svg>
