<svg xmlns="http://www.w3.org/2000/svg" width="128" height="128" viewBox="0 0 96 96">
    <g fill="none" fill-rule="evenodd">
        <path fill="#4AB2E5" d="M96 48c0 26.51-21.49 48-48 48S0 74.51 0 48 21.49 0 48 0s48 21.49 48 48"/>
        <path fill="#FFCCB4" d="M46.235 52.226l-7.012 6.933-3.794-3.741V46.81c0-1.674.078-3.296-2.223-5.363 0 0 2.301.68 4.16-.471 1.857-1.15 4.76-3.924 4.76-3.924l4.109 4.212v10.962zM64.39 32.97c-.496-.497-.89-1.02-1.098-2.119-.21-1.099-1.857-6.358-2.094-7.273-.234-.916-.34-1.047-.967-1.622-.629-.576-3.741-3.951-4.448-4.657-.706-.706-1.7-.89-2.46-.89-.759 0-2.38.576-2.38 2.381-.575-.733-2.067-2.459-2.616-3.06-.55-.603-2.381-1.309-3.741-.68-1.361.627-1.754 2.066-.76 4.132.995 2.067 2.513 4.108 3.298 4.998.784.89 1.125 1.386 1.569 2.773.445 1.386 2.695 7.142 3.06 8.058.367.916.34 1.465.34 2.067v1.151s-2.641-3.009-4.944-5.285c-2.302-2.276-3.034-3.532-4.996-3.532-1.963 0-2.852 1.073-3.743 1.884-.888.811-5.754 5.206-6.645 5.991-.89.785-1.57 1.413-.993 2.826 0 0-2.094-.21-2.094 2.145v15.698c0 1.02.393 2.564 1.78 3.976 1.385 1.413 16.403 18.602 16.77 19.047.355.43 2.4 14.104 2.53 14.976a47.753 47.753 0 0 0 19.234-4.782c.017-.042.038-.079.056-.121-1.701-4.5-5.154-13.186-5.154-13.186s5.599-25.902 5.833-26.634c.237-.733.237-.942.237-2.302V40.53c0-1.02.026-1.883-1.466-3.427s-3.61-3.636-4.108-4.134z"/>
        <path fill="#EFBFA9" d="M59.534 47.621c0 .68-.14 1.553-.89 1.92V35.186c0-.663-.174-1.169-.575-1.919-.401-.75-3.523-9.245-3.89-10.395-.366-1.151-.854-1.64-1.308-2.058-.452-.419-1.904-1.826-2.355-2.55.165.2.316.385.428.527 0-.348.074-.637.176-.898.708.761 2.694 2.908 3.2 3.514.609.732.644.977 1.115 2.372s2.79 7.97 3.175 8.738c.383.768.924.89.924 2.913v12.191zm4.507-15.036c.109.136.227.262.35.386.193.191.627.622 1.17 1.164.15.912.235 1.872.235 2.34V47.43c0 1.64-1.204 2.11-1.204 2.11s.14-10.308 0-13.482c-.068-1.554-.317-2.7-.551-3.473zM53.795 47.43c0 .767-.627 1.796-1.134 2.11v-9.61c0-.662-.093-1.189-1.128-2.332a98 98 0 0 1 .561.631v-1.12c.146.096.288.212.41.344.699.75 1.291 1.465 1.291 2.564v7.413z"/>
        <path fill="#EE7D00" d="M47.795 83.604c.594 3.337 1.449 8.928 1.805 11.289l6.01.5a47.655 47.655 0 0 0 13.383-4.22c.018-.042.038-.08.056-.121-.767-2.026-1.887-4.9-2.888-7.448H47.795z"/>
        <path fill="#000" d="M59.08 87.302l-3.173 5.65-3-5.824h-4.518c.64 3.937 1.304 8.38 1.37 8.827a47.748 47.748 0 0 0 19.235-4.783c.017-.04.038-.078.055-.12a446.292 446.292 0 0 0-1.442-3.75H59.08z"/>
        <path fill="#FFF" d="M52.366 90.842a1.081 1.081 0 1 1-2.163 0 1.081 1.081 0 0 1 2.163 0"/>
    </g>
</svg>
