<svg id="ehzj6171x7w1" xmlns="http://www.w3.org/2000/svg" xmlns:xlink="http://www.w3.org/1999/xlink" viewBox="0 0 136 125" shape-rendering="geometricPrecision" text-rendering="geometricPrecision"><style><![CDATA[#ehzj6171x7w6_ts {animation: ehzj6171x7w6_ts__ts 1000ms linear infinite normal forwards}@keyframes ehzj6171x7w6_ts__ts { 0% {transform: translate(66.836951px,106.112446px) scale(1,1);animation-timing-function: cubic-bezier(0,0,0.580000,1)} 50% {transform: translate(66.836951px,106.112446px) scale(0.900000,0.900000);animation-timing-function: cubic-bezier(0.420000,0,1,1)} 100% {transform: translate(66.836951px,106.112446px) scale(1,1)} }#ehzj6171x7w7_to {animation: ehzj6171x7w7_to__to 1000ms linear infinite normal forwards}@keyframes ehzj6171x7w7_to__to { 0% {transform: translate(20.039504px,9.669622px);animation-timing-function: cubic-bezier(0,0,0.580000,1)} 50% {transform: translate(20.316618px,6.709373px);animation-timing-function: cubic-bezier(0.420000,0,1,1)} 100% {transform: translate(20.039504px,9.669622px)} }#ehzj6171x7w35_to {animation: ehzj6171x7w35_to__to 1000ms linear infinite normal forwards}@keyframes ehzj6171x7w35_to__to { 0% {transform: translate(20.039560px,6.709373px)} 40% {transform: translate(18.187354px,0.709373px)} 100% {transform: translate(18.187354px,0.709373px)} }#ehzj6171x7w35 {animation: ehzj6171x7w35_c_o 1000ms linear infinite normal forwards}@keyframes ehzj6171x7w35_c_o { 0% {opacity: 1} 40% {opacity: 0} 100% {opacity: 0} }#ehzj6171x7w36_to {animation: ehzj6171x7w36_to__to 1000ms linear infinite normal forwards}@keyframes ehzj6171x7w36_to__to { 0% {transform: translate(6.839262px,18.222190px)} 40% {transform: translate(1.839262px,15.222190px)} 100% {transform: translate(1.839262px,15.222190px)} }#ehzj6171x7w36 {animation: ehzj6171x7w36_c_o 1000ms linear infinite normal forwards}@keyframes ehzj6171x7w36_c_o { 0% {opacity: 1} 40% {opacity: 0} 100% {opacity: 0} }#ehzj6171x7w37_to {animation: ehzj6171x7w37_to__to 1000ms linear infinite normal forwards}@keyframes ehzj6171x7w37_to__to { 0% {transform: translate(6.710789px,35.636070px)} 40% {transform: translate(-2.289211px,37.636070px)} 100% {transform: translate(-2.289211px,37.636070px)} }#ehzj6171x7w37 {animation: ehzj6171x7w37_c_o 1000ms linear infinite normal forwards}@keyframes ehzj6171x7w37_c_o { 0% {opacity: 1} 40% {opacity: 0} 100% {opacity: 0} }]]></style><defs><polygon id="ehzj6171x7w2" points="0.480000,0.309000 30.795000,0.309000 30.795000,30.805000 0.480000,30.805000"/><polygon id="ehzj6171x7w3" points="0.480000,0.309000 30.795000,0.309000 30.795000,30.805000 0.480000,30.805000"/></defs><g id="ehzj6171x7w4" transform="matrix(1 0 0 1 8.04218173000001 6.67378604500000)"><g id="ehzj6171x7w5"><g id="ehzj6171x7w6_ts" transform="translate(66.836951,106.112446) scale(1,1)"><path id="ehzj6171x7w6" d="M40.893000,107.851000C43.063000,109.263000,48.631000,110.489000,53.115000,110.980000C65.360000,112.323000,82.476000,111.620000,89.725000,109.173000C97.033000,106.709000,97.359000,102.971000,78.776000,101.099000C62.956000,99.504000,44.493000,101.736000,40.546000,105.080000C39.486000,105.976000,39.546000,106.974000,40.893000,107.851000" transform="translate(-67.096268,-106.112446)" fill="rgb(187,217,253)" stroke="none" stroke-width="1"/></g><g id="ehzj6171x7w7_to" transform="translate(20.039504,9.669622)"><g id="ehzj6171x7w7" transform="translate(0,0)"><path id="ehzj6171x7w8" d="M56.925455,13.229377C56.512455,10.895377,55.918455,8.651377,54.817455,6.830377C52.869455,3.625377,49.392455,3.365377,45.647455,4.059377C43.940455,4.321377,42.237455,4.859377,40.767455,5.284377C33.652455,7.344377,7.911455,14.453377,6.855455,14.872377C2.956455,16.466377,2.741455,19.428377,3.585455,22.804377C3.664455,23.347377,14.831455,70.134377,15.596455,72.607377C16.634455,75.958377,18.346455,78.984377,21.543455,79.319377C24.745455,79.667377,63.733455,69.003377,65.543455,68.369377C67.759455,67.590377,68.750455,66.333377,68.996455,64.824377C69.334455,64.016377,69.206455,63.095377,69.034455,61.941377C68.585455,58.908377,59.003455,18.601377,56.924455,13.229377" fill="rgb(255,177,92)" stroke="none" stroke-width="1"/><path id="ehzj6171x7w9" d="M64.247455,38.982377C62.276712,33.750445,60.535058,28.435063,59.027455,23.051377C57.708645,19.072289,56.555652,15.040148,55.571455,10.965377C54.874378,8.477180,54.275250,5.962577,53.775455,3.427377C53.495455,3.035377,53.176455,2.743377,52.793455,2.643377C52.477455,2.555377,52.177455,2.595377,51.883455,2.667377C51.840455,2.670377,51.796455,2.657377,51.749455,2.674377C51.479345,2.794542,51.200553,2.894158,50.915455,2.972377C50.880455,2.986377,50.852455,3.032377,50.819455,3.058377C42.849455,6.330377,23.077455,12.425377,14.589455,15.947377C14.172455,16.148377,13.719455,16.291377,13.389455,16.707377C12.905455,17.189377,12.599455,17.929377,12.710455,19.050377C12.811455,20.159377,13.220455,21.211377,13.516455,22.277377C13.546455,22.382377,13.604455,22.463377,13.647455,22.552377C18.398455,37.760377,23.157455,52.964377,27.919455,68.162377C27.955455,68.284377,28.009455,68.362377,28.053455,68.456377L28.053455,68.466377C28.165455,68.853377,28.277455,69.236377,28.401455,69.609377C28.693455,70.604377,29.042455,71.539377,29.531455,72.232377C29.685455,72.507377,29.851455,72.771377,30.039455,72.992377C30.931455,74.032377,32.189455,73.822377,33.188455,73.320377C41.431455,69.876377,59.909455,61.156377,67.978455,57.762377C68.835455,57.526377,69.735455,57.042377,70.109455,55.918377C70.368455,55.123377,70.329455,54.246377,70.155455,53.345377C67.752455,48.733377,66.018455,43.662377,64.247455,38.982377" fill="rgb(187,217,253)" stroke="none" stroke-width="1"/><path id="ehzj6171x7w10" d="M17.519455,6.746377C17.355455,7.760377,17.591455,9.916377,17.608455,10.937377C17.613455,11.041377,17.643455,11.131377,17.662455,11.218377C18.307455,24.578377,18.951455,37.942377,19.606455,51.303377C19.672455,52.648377,20.274455,58.793377,20.520455,60.300377C20.521455,60.305377,20.527455,60.313377,20.530455,60.322377C20.541693,60.456489,20.597693,60.582929,20.689455,60.681377C21.425455,61.489377,21.950455,62.453377,22.774455,63.174377C22.996455,63.712377,23.982455,63.695377,24.101455,62.964377C24.218455,62.239377,24.556455,61.591377,24.898455,60.943377C24.956455,60.936377,25.021455,60.925377,25.082455,60.916377C25.507455,61.483377,25.922455,62.056377,26.462455,62.528377C26.677455,63.067377,27.669455,63.046377,27.784455,62.314377C27.902455,61.615377,28.219455,60.989377,28.546455,60.364377L28.669455,60.344377C29.082455,60.895377,29.484455,61.448377,30.008455,61.906377C30.227455,62.441377,31.217455,62.424377,31.333455,61.692377C31.445455,61.008377,31.754455,60.386377,32.078455,59.772377C32.131005,59.765946,32.183105,59.756260,32.234455,59.743377C32.644455,60.288377,33.042455,60.831377,33.556455,61.280377C33.774455,61.822377,34.762455,61.801377,34.881455,61.066377C34.992455,60.393377,35.297455,59.779377,35.615455,59.170377C35.696455,59.153377,35.777455,59.140377,35.860455,59.127377C36.260455,59.663377,36.657455,60.199377,37.168455,60.646377C37.388455,61.186377,38.376455,61.166377,38.495455,60.432377C38.605455,59.760377,38.906455,59.147377,39.225455,58.540377C39.274455,58.533377,39.325455,58.523377,39.373455,58.513377C39.777455,59.049377,40.173455,59.586377,40.678455,60.029377C40.901455,60.573377,41.887455,60.547377,42.006455,59.816377C42.114455,59.146377,42.419455,58.536377,42.732455,57.928377C42.841455,57.908377,42.952455,57.888377,43.062455,57.872377C43.462455,58.404377,43.857455,58.938377,44.365455,59.382377C44.582455,59.922377,45.569455,59.902377,45.690455,59.168377C45.798455,58.502377,46.099455,57.891377,46.416455,57.289377C46.481455,57.279377,46.548455,57.264377,46.612455,57.254377C47.013455,57.789377,47.404455,58.319377,47.911455,58.758377C48.130455,59.298377,49.116455,59.280377,49.236455,58.548377C49.346455,57.885377,49.644455,57.278377,49.953455,56.683377C50.027455,56.666377,50.102455,56.658377,50.168455,56.645377C50.564455,57.172377,50.957455,57.700377,51.458455,58.135377C51.677455,58.675377,52.664455,58.655377,52.785455,57.922377C52.892455,57.270377,53.181455,56.676377,53.485455,56.092377C53.587455,56.069377,53.698455,56.054377,53.807455,56.036377C54.192455,56.552377,54.578455,57.072377,55.071455,57.499377C55.288455,58.039377,56.277455,58.021377,56.399455,57.289377C56.502455,56.662377,56.771455,56.087377,57.066455,55.519377C57.183455,55.497377,57.298455,55.485377,57.411455,55.465377C57.791455,55.965377,58.161455,56.461377,58.634455,56.877377C58.855455,57.415377,59.844455,57.396377,59.961455,56.663377C60.136455,55.607377,60.781455,54.698377,61.207455,53.741377C61.627455,52.976377,60.959455,51.994377,60.676455,50.239377C60.006455,46.041377,59.528455,41.751377,59.097455,37.704377C58.554440,32.563973,58.234140,27.402478,58.137455,22.234377C57.887460,18.368084,57.797383,14.493110,57.867455,10.619377C57.827455,8.232377,57.867455,5.851377,58.016455,3.458377C57.995455,3.402377,57.961455,3.359377,57.939455,3.310377C57.915455,3.250377,57.899455,3.184377,57.850455,3.123377C57.830455,3.098377,57.820455,3.075377,57.800455,3.055377C57.760559,2.982637,57.715089,2.913096,57.664455,2.847377C57.113455,2.040377,56.689455,1.155377,56.012455,0.437377C55.846455,-0.120623,54.862455,-0.198623,54.670455,0.520377C54.467455,1.284377,54.016455,1.944377,53.586455,2.607377C53.184455,1.957377,52.813455,1.287377,52.282455,0.728377C52.115455,0.166377,51.132455,0.095377,50.942455,0.809377C50.750455,1.529377,50.339455,2.156377,49.929455,2.782377C49.552455,2.162377,49.194455,1.538377,48.690455,1.002377C48.529455,0.445377,47.541455,0.372377,47.350455,1.091377C47.159455,1.807377,46.749455,2.432377,46.340455,3.059377C45.964455,2.435377,45.601455,1.813377,45.099455,1.284377C44.934455,0.722377,43.950455,0.648377,43.759455,1.368377C43.562455,2.109377,43.132455,2.750377,42.715455,3.390377C42.327455,2.755377,41.961455,2.110377,41.445455,1.563377C41.278455,1.007377,40.293455,0.931377,40.103455,1.647377C39.917455,2.357377,39.513455,2.974377,39.108455,3.587377C38.738455,2.976377,38.380455,2.367377,37.888455,1.843377C37.724455,1.280377,36.738455,1.207377,36.548455,1.926377C36.346455,2.688377,35.892455,3.348377,35.462455,4.011377C35.060455,3.356377,34.690455,2.688377,34.160455,2.128377C33.996455,1.570377,33.008455,1.497377,32.819455,2.211377C32.630455,2.932377,32.213455,3.559377,31.807455,4.184377C31.429455,3.562377,31.069455,2.934377,30.567455,2.407377C30.402455,1.847377,29.419455,1.773377,29.229455,2.489377C29.037455,3.206377,28.625455,3.836377,28.216455,4.459377C27.841455,3.839377,27.479455,3.214377,26.976455,2.682377C26.816455,2.126377,25.828455,2.048377,25.636455,2.770377C25.444455,3.510377,25.010455,4.152377,24.590455,4.794377C24.203455,4.155377,23.834455,3.514377,23.322455,2.966377C23.157455,2.407377,22.169455,2.331377,21.982455,3.052377C21.847455,3.552377,21.606455,4.006377,21.335455,4.448377C21.106160,4.069972,20.841653,3.714060,20.545455,3.385377C20.379455,2.832377,19.393455,2.754377,19.202455,3.465377C18.931455,4.502377,18.201455,5.347377,17.681455,6.260377C17.675455,6.280377,17.676455,6.292377,17.663455,6.310377C17.585592,6.444085,17.536542,6.592596,17.519455,6.746377" fill="rgb(255,226,161)" stroke="none" stroke-width="1"/><path id="ehzj6171x7w11" d="M70.298455,19.550377C70.512455,17.428377,70.546455,15.332377,70.038455,13.498377C69.140455,10.247377,66.195455,9.158377,62.780455,8.843377C61.231455,8.648377,59.631455,8.700377,58.254455,8.707377C51.474455,8.744377,27.300455,8.611377,26.526455,8.697377C22.762455,9.119377,21.845455,11.633377,21.752455,14.760377C21.690455,15.254377,19.885455,58.516377,19.944455,60.843377C20.027455,63.999377,20.763455,67.035377,23.448455,68.121377C26.132455,69.197377,62.513455,69.527377,64.246455,69.423377C66.344455,69.290377,67.518455,68.445377,68.092455,67.196377C68.589455,66.574377,68.698455,65.753377,68.842455,64.712377C69.195455,61.973377,70.783455,24.706377,70.298455,19.551377" fill="rgb(183,246,247)" stroke="none" stroke-width="1"/><path id="ehzj6171x7w12" d="M72.705455,52.333377C72.826455,46.733377,73.210455,41.154377,73.817455,35.605377C74.088455,31.425377,74.514455,27.255377,75.132455,23.102377C75.420455,20.537377,75.792455,17.982377,76.282455,15.440377C76.167455,14.973377,75.981455,14.582377,75.665455,14.348377C75.403455,14.148377,75.112455,14.071377,74.812455,14.030377C74.770455,14.016377,74.734455,13.986377,74.685455,13.985377C74.553455,13.989377,74.443455,13.986377,74.317455,13.986377C74.144301,13.983628,73.971405,13.971946,73.799455,13.951377C73.761455,13.947377,73.719455,13.983377,73.677455,13.991377C65.062455,14.048377,44.444455,12.311377,35.257455,12.405377C34.796455,12.437377,34.321455,12.399377,33.857455,12.661377C33.231455,12.926377,32.671455,13.501377,32.354455,14.581377C32.033455,15.647377,32.016455,16.776377,31.895455,17.874377C31.884455,17.982377,31.907455,18.079377,31.914455,18.179377C30.634455,34.061377,29.366455,49.941377,28.103455,65.816377C28.090455,65.944377,28.107455,66.036377,28.117455,66.141377C28.117455,66.141377,28.117455,66.144377,28.113455,66.146377C28.069455,66.550377,28.033455,66.948377,28.005455,67.343377C27.907455,68.373377,27.879455,69.368377,28.075455,70.193377C28.109368,70.497689,28.172322,70.798058,28.263455,71.090377C28.701455,72.386377,29.945455,72.663377,31.059455,72.570377C39.994455,72.459377,60.391455,71.279377,69.143455,71.146377C70.027455,71.248377,71.043455,71.135377,71.808455,70.232377C72.348455,69.594377,72.639455,68.764377,72.815455,67.862377C72.309455,62.685377,72.597455,57.336377,72.705455,52.332377" fill="rgb(255,142,142)" stroke="none" stroke-width="1"/><path id="ehzj6171x7w13" d="M65.679455,25.352377C65.541455,22.970377,65.214455,20.660377,64.326455,18.713377C62.759455,15.283377,59.322455,14.613377,55.499455,14.862377C53.759455,14.922377,51.999455,15.258377,50.477455,15.510377C43.005455,16.748377,16.324455,20.856377,15.481455,21.080377C15.002455,21.213377,13.663455,21.647377,13.277455,21.828377C10.377455,23.186377,10.889455,25.553377,11.282455,28.612377C11.295455,29.166377,16.924455,77.206377,17.393455,79.767377C18.040455,83.235377,19.390455,86.455377,22.542455,87.171377C25.700455,87.899377,65.894455,81.849377,67.772455,81.434377C70.077455,80.914377,71.215455,79.776377,71.639455,78.297377C72.076455,77.532377,72.052455,76.597377,72.018455,75.428377C71.930455,72.342377,67.121455,30.960377,65.678455,25.352377" fill="rgb(254,194,103)" stroke="none" stroke-width="1"/><path id="ehzj6171x7w14" d="M20.166455,63.691377C17.886455,50.143377,15.399455,36.544377,13.469455,22.954377C13.449455,22.790377,13.352455,22.222377,13.273455,22.104377C13.295455,21.687377,11.975455,22.252377,10.747455,22.142377C10.709455,22.142377,10.229455,22.078377,10.191455,22.078377C9.782464,22.006407,9.379610,21.903102,8.986455,21.769377C6.994455,21.048377,6.196455,19.376377,6.219455,17.518377C6.245455,15.853377,7.550455,15.118377,7.499455,14.675377C7.472455,14.435377,6.031455,15.180377,5.865455,15.237377C5.638455,15.310377,4.111455,16.297377,3.415455,17.515377C2.715455,18.742377,2.935455,20.483377,2.975455,22.025377C3.111455,27.225377,7.464455,59.311377,8.305455,66.022377C8.291455,66.107377,8.505455,67.759377,8.612455,68.497377C8.824455,70.124377,9.044455,71.752377,9.274455,73.378377C9.453455,74.651377,10.200455,81.872377,10.356455,82.204377C12.256455,86.330377,17.582455,87.737377,21.853455,87.439377C22.096455,87.454377,22.330455,87.429377,22.707455,87.383377C23.180455,87.323377,23.841455,87.401377,24.587455,87.251377C24.505455,85.873377,21.257455,70.171377,20.166455,63.691377" fill="rgb(255,147,0)" stroke="none" stroke-width="1"/><path id="ehzj6171x7w15" d="M41.199455,56.630377C41.119455,56.394377,41.244455,56.168377,41.503455,56.121377L50.453455,54.481377C50.566696,54.454503,50.686000,54.481438,50.776710,54.554358C50.867420,54.627278,50.919365,54.738007,50.917455,54.854377C50.917455,54.854377,51.360455,59.409377,46.882455,60.231377C42.401455,61.049377,41.199455,56.631377,41.199455,56.631377" fill="rgb(50,129,238)" stroke="none" stroke-width="1"/><path id="ehzj6171x7w16" d="M40.669455,39.554377C38.623455,35.952377,34.239455,33.970377,30.382455,35.511377C29.485453,35.712283,28.648257,36.121290,27.938455,36.705377C27.872455,36.746377,27.815455,36.802377,27.752455,36.847377L27.590455,36.989377C26.869920,37.536074,26.291055,38.247653,25.902455,39.064377C25.824455,39.200377,25.742455,39.334377,25.672455,39.474377C25.657455,39.522377,25.620455,39.551377,25.607455,39.598377C25.557455,39.728377,25.535455,39.858377,25.489455,39.991377C25.261926,40.568675,25.113905,41.174215,25.049455,41.791377C24.826455,43.135377,24.854455,44.481377,25.311455,45.923377C26.114455,48.452377,29.163455,49.718377,31.515455,50.107377C33.231455,50.390377,35.185455,49.985377,36.865455,49.257377C39.268455,48.214377,40.011455,46.863377,40.638455,45.070377C41.281455,43.235377,41.693455,41.352377,40.669455,39.554377M63.295455,35.915377C62.342455,34.052377,60.819455,32.879377,58.981455,32.205377C58.940455,32.178377,58.914455,32.145377,58.869455,32.115377C57.728455,31.301377,56.175455,30.994377,54.722455,31.195377C51.317455,31.418377,48.218455,34.357377,47.196455,37.718377C46.676455,39.431377,46.739455,41.545377,47.616455,43.133377C48.929455,45.515377,51.113455,46.684377,53.703455,47.227377C58.027455,48.138377,62.773455,45.161377,63.849455,40.938377C64.266455,39.309377,64.062455,37.412377,63.295455,35.915377" fill="rgb(187,217,253)" stroke="none" stroke-width="1"/><path id="ehzj6171x7w17" d="M35.918455,45.193377C35.109388,45.282192,34.381467,44.698422,34.292455,43.889377C34.209455,43.251377,33.842455,42.179377,32.364455,42.344377C30.754455,42.519377,30.774455,43.864377,30.819455,44.272377C30.893686,44.803628,30.673254,45.333234,30.244010,45.654930C29.814766,45.976625,29.244578,46.039547,28.755517,45.819188C28.266457,45.598829,27.935849,45.130031,27.892455,44.595377C27.686455,42.722377,28.621455,39.796377,32.042455,39.415377C35.462455,39.041377,37.012455,41.694377,37.218455,43.565377C37.308455,44.374377,36.728455,45.104377,35.918455,45.193377M58.757455,41.905377C58.369349,41.949412,57.979706,41.836854,57.674866,41.592645C57.370027,41.348435,57.175163,40.992740,57.133455,40.604377C57.046455,39.967377,56.679455,38.897377,55.201455,39.059377C53.591455,39.239377,53.613455,40.581377,53.656455,40.989377C53.745296,41.797543,53.162546,42.524860,52.354455,42.614377C51.546827,42.700277,50.821544,42.117548,50.731455,41.310377C50.524455,39.440377,51.456455,36.512377,54.878455,36.135377C58.300455,35.754377,59.850455,38.409377,60.057455,40.281377C60.100679,40.669172,59.987949,41.058242,59.744103,41.362861C59.500258,41.667481,59.145306,41.862654,58.757455,41.905377" fill="rgb(50,129,238)" stroke="none" stroke-width="1"/><path id="ehzj6171x7w18" d="M24.051455,63.015377C23.929439,62.997533,23.805014,63.022630,23.699455,63.086377C22.826455,62.991377,21.909455,63.314377,21.199455,64.086377C19.872455,65.520377,19.999455,68.025377,21.566455,69.187377C23.020455,70.263377,25.628455,69.377377,26.529455,67.811377C27.735455,65.719377,26.069455,63.307377,24.051455,63.015377" fill="rgb(255,147,0)" stroke="none" stroke-width="1"/><path id="ehzj6171x7w19" d="M39.977455,39.832377C39.930183,39.825041,39.881992,39.837722,39.844455,39.867377C39.506455,39.851377,39.164455,39.997377,38.911455,40.310377C38.441455,40.894377,38.554455,41.850377,39.179455,42.252377C39.763455,42.628377,40.739455,42.223377,41.042455,41.601377C41.452455,40.774377,40.756455,39.894377,39.977455,39.831377M48.415455,38.730377C48.369795,38.724206,48.323656,38.737648,48.288455,38.767377C47.947455,38.750377,47.607455,38.897377,47.353455,39.210377C46.883455,39.794377,46.993455,40.746377,47.622455,41.150377C48.204455,41.526377,49.182455,41.123377,49.486455,40.500377C49.893455,39.671377,49.200455,38.792377,48.415455,38.730377" fill="rgb(255,147,0)" stroke="none" stroke-width="1"/><path id="ehzj6171x7w20" d="M49.145455,39.157377C48.630455,37.291377,46.125455,36.184377,44.350455,36.307377C42.240455,36.457377,39.535455,38.267377,39.150455,40.484377C38.942455,41.682377,40.944455,41.882377,41.141455,40.747377C41.581455,38.240377,46.127455,37.039377,47.141455,39.624377C47.160455,39.824377,47.267455,40.024377,47.519455,40.186377C47.532455,40.199377,47.547455,40.206377,47.559455,40.214377C48.349455,40.730377,49.403455,40.101377,49.144455,39.157377" fill="rgb(255,177,92)" stroke="none" stroke-width="1"/><path id="ehzj6171x7w21" d="M19.799455,29.407377C19.662249,29.379239,19.519513,29.400490,19.396455,29.467377C18.409455,29.314377,17.352455,29.637377,16.504455,30.475377C14.924455,32.036377,14.944455,34.890377,16.662455,36.289377C18.259455,37.585377,21.265455,36.712377,22.369455,34.979377C23.847455,32.664377,22.077455,29.841377,19.799455,29.407377M21.810455,46.754377C21.690200,46.730696,21.565454,46.749425,21.457455,46.807377C20.588455,46.672377,19.659455,46.957377,18.914455,47.694377C17.526455,49.067377,17.541455,51.574377,19.052455,52.807377C20.457455,53.947377,23.100455,53.180377,24.072455,51.654377C25.372455,49.617377,23.816455,47.134377,21.810455,46.754377M23.810455,63.754377C23.690200,63.730696,23.565454,63.749425,23.457455,63.807377C22.588455,63.672377,21.659455,63.957377,20.914455,64.694377C19.526455,66.067377,19.541455,68.574377,21.052455,69.807377C22.457455,70.947377,25.100455,70.180377,26.072455,68.654377C27.372455,66.617377,25.816455,64.134377,23.810455,63.754377" fill="rgb(255,147,0)" stroke="none" stroke-width="1"/><path id="ehzj6171x7w22" d="M15.261455,33.544377C15.039455,36.867377,10.385455,37.091377,7.539455,36.231377C7.304919,36.148128,7.074639,36.053346,6.849455,35.947377C6.575884,35.808596,6.315482,35.645258,6.071455,35.459377C5.856167,35.285331,5.644130,35.107300,5.435455,34.925377C4.827455,34.360377,4.279455,33.670377,4.082455,33.001377C3.949031,31.890447,3.819030,30.779108,3.692455,29.667377C3.168629,29.795309,2.670250,30.011026,2.218455,30.305377C1.430455,30.828377,0.943455,31.393377,0.590455,32.272377C0.541455,32.392377,0.520455,32.517377,0.495455,32.645377C0.309455,32.985377,0.185455,33.358377,0.183455,33.745377C-0.686545,36.897377,1.640455,39.246377,4.992455,40.420377C4.974455,40.284377,4.959455,40.153377,4.942455,40.018377L4.957455,40.027377C4.967455,40.157377,4.974455,40.284377,4.992455,40.420377C10.892455,42.487377,19.979455,40.901377,20.472455,33.544377C20.675455,30.521377,15.464455,30.521377,15.262455,33.544377L15.261455,33.544377ZM20.109455,47.853377L19.894455,47.851377C18.022455,47.819377,17.185455,49.287377,17.408455,50.581377C16.948455,52.282377,13.634455,52.868377,12.258455,53.131377C10.393455,53.488377,8.781455,53.209377,7.810455,52.181377C7.704347,52.063972,7.607396,51.938605,7.520455,51.806377C6.978455,50.997377,6.587455,50.140377,6.127455,49.304377L5.776455,46.589377C5.190455,46.596377,1.606455,47.111377,1.626372,49.440377C1.660455,53.586377,3.931455,56.146377,7.161455,57.232377C7.155831,57.188992,7.149831,57.145657,7.143455,57.102377C7.151553,57.104360,7.159560,57.106696,7.167455,57.109377L7.161455,57.232377C8.571455,57.705377,10.174455,57.902377,11.886455,57.817377C16.053455,57.613377,22.826455,55.352377,22.678455,50.217377C22.638455,48.835377,21.448455,47.875377,20.108455,47.853377L20.109455,47.853377ZM8.305455,66.022377C8.291455,66.106377,8.506455,67.758377,8.612455,68.497377C8.824455,70.124377,9.044455,71.752377,9.274455,73.377377C9.298455,73.545377,9.331455,73.822377,9.372455,74.168377C9.608455,74.231377,9.845455,74.298377,10.082455,74.350377C15.650455,75.593377,23.394455,73.080377,25.121455,67.076377C25.898455,64.372377,21.904455,63.239377,20.480455,65.096377C18.658455,66.778377,16.907455,67.492377,14.468455,67.890377C13.170455,68.101377,9.093455,68.548377,8.788455,67.328377L8.305455,66.022377L8.305455,66.022377Z" fill="rgb(187,217,253)" stroke="none" stroke-width="1"/><path id="ehzj6171x7w23" d="M8.612455,68.497377C8.506455,67.759377,8.291455,66.107377,8.306455,66.022377C8.198719,65.168087,8.088719,64.314084,7.976455,63.460377C7.175455,62.933377,6.097455,62.798377,5.223455,63.373377C2.966455,64.855377,2.270455,66.874377,3.243455,69.446377C4.247455,72.093377,6.781455,73.470377,9.373455,74.168377C9.342195,73.904828,9.309194,73.641489,9.274455,73.378377C9.044886,71.752597,8.824216,70.125572,8.612455,68.497377" fill="rgb(187,217,253)" stroke="none" stroke-width="1"/></g></g><g id="ehzj6171x7w24" transform="matrix(1 0 0 1 89.59999847412109 71.48699951171875)"><g id="ehzj6171x7w25"><g id="ehzj6171x7w26" mask="url(#ehzj6171x7w28)"><path id="ehzj6171x7w27" d="M0.402000,19.170000C1.396000,23.122000,4.298000,26.680000,6.709000,28.180000C13.290000,32.276000,22.865000,30.891000,27.235000,24.400000C31.640000,17.860000,32.365000,7.583000,22.355000,1.827000C13.832000,-3.073000,3.287000,2.466000,0.614000,11.533000C-0.103000,13.965000,-0.216000,16.713000,0.402000,19.171000" fill="rgb(203,247,216)" stroke="none" stroke-width="1"/><mask id="ehzj6171x7w28" mask-type="luminance"><use id="ehzj6171x7w29" width="0" height="0" xlink:href="#ehzj6171x7w2" fill="rgb(255,255,255)" fill-rule="evenodd" stroke="none" stroke-width="1"/></mask></g></g><g id="ehzj6171x7w30"><g id="ehzj6171x7w31" mask="url(#ehzj6171x7w33)"><path id="ehzj6171x7w32" d="M12.080000,9.625000C11.974000,10.236000,12.205000,11.115000,12.604000,11.598000L15.190000,14.723000L18.674000,12.646000C19.206000,12.329000,19.726000,11.569000,19.831000,10.964000L12.080000,9.625000ZM10.613000,8.231000C10.001621,8.125237,9.591737,7.543879,9.697500,6.932500C9.803263,6.321121,10.384621,5.911237,10.996000,6.017000L22.062000,7.928000C22.457672,7.996416,22.786788,8.270724,22.925373,8.647594C23.063959,9.024464,22.990959,9.446640,22.733873,9.755094C22.476787,10.063547,22.074672,10.211416,21.679000,10.143000L21.682000,10.144000L21.491000,11.251000C21.384000,11.866000,20.889000,12.648000,20.383000,13.004000L16.106000,16.021000L19.123000,20.298000C19.480000,20.805000,19.683000,21.707000,19.578000,22.322000L19.387000,23.430000L19.384000,23.430000C19.995379,23.535486,20.405486,24.116621,20.300000,24.728000C20.194514,25.339379,19.613379,25.749486,19.002000,25.644000L7.936000,23.732000C7.640964,23.682894,7.377786,23.517921,7.205008,23.273779C7.032231,23.029636,6.964182,22.726572,7.016000,22.432000C7.124741,21.820984,7.706279,21.412300,8.318000,21.517000L8.315000,21.517000L8.507000,20.409000C8.612000,19.799000,9.104000,19.016000,9.614000,18.656000L13.892000,15.639000L10.874000,11.361000C10.514000,10.851000,10.314000,9.949000,10.419000,9.338000L10.609000,8.230000L10.613000,8.231000Z" fill="rgb(53,206,104)" stroke="none" stroke-width="1"/><mask id="ehzj6171x7w33" mask-type="luminance"><use id="ehzj6171x7w34" width="0" height="0" xlink:href="#ehzj6171x7w3" fill="rgb(255,255,255)" fill-rule="evenodd" stroke="none" stroke-width="1"/></mask></g></g></g><g id="ehzj6171x7w35_to" transform="translate(20.039560,6.709373)"><path id="ehzj6171x7w35" d="M22.729000,11.428000C21.409000,6.422000,21.696000,6.313000,20.572000,1.232000C20.107000,-0.855000,16.869000,-0.085000,17.334000,2.010000C18.462000,7.083000,18.174000,7.190000,19.492000,12.200000C20.036000,14.267000,23.275000,13.500000,22.729000,11.428000" transform="translate(-20.187354,-6.709373)" fill="rgb(255,142,142)" stroke="none" stroke-width="1"/></g><g id="ehzj6171x7w36_to" transform="translate(6.839262,18.222190)"><path id="ehzj6171x7w36" d="M12.062000,19.660000C7.592000,17.050000,7.714000,16.775000,3.328000,13.980000C1.525000,12.829000,-0.222000,15.663000,1.590000,16.811000C5.976000,19.609000,5.847000,19.881000,10.324000,22.494000C12.167000,23.571000,13.917000,20.739000,12.062000,19.660000" transform="translate(-6.839262,-18.222190)" fill="rgb(255,142,142)" stroke="none" stroke-width="1"/></g><g id="ehzj6171x7w37_to" transform="translate(6.710789,35.636070)"><path id="ehzj6171x7w37" d="M11.428000,32.946000C6.421000,34.269000,6.308000,33.983000,1.234000,35.108000C-0.856000,35.570000,-0.086000,38.810000,2.011000,38.342000C7.086000,37.215000,7.191000,37.502000,12.204000,36.183000C14.268000,35.640000,13.506000,32.399000,11.428000,32.946000" transform="translate(-6.710789,-35.636070)" fill="rgb(255,142,142)" stroke="none" stroke-width="1"/></g></g></g></svg>