<svg xmlns="http://www.w3.org/2000/svg" xmlns:xlink="http://www.w3.org/1999/xlink" width="249" height="162" viewBox="0 0 250 162"><defs><linearGradient id="a" x1="0%" x2="100.01%" y1="50%" y2="50%"><stop offset="0%" stop-color="#FF9900"/><stop offset="100%" stop-color="#FF8000"/></linearGradient><linearGradient id="b" x1=".11%" x2="100.1%" y1="50%" y2="50%"><stop offset="0%" stop-color="#FF8000"/><stop offset="100%" stop-color="#CC1852"/></linearGradient><linearGradient id="c" x1="0%" x2="100%" y1="42.36%" y2="57.2%"><stop offset="0%" stop-color="#FFCA00"/><stop offset="100%" stop-color="#CF1B37"/></linearGradient><linearGradient id="d" x1="0%" x2="100%" y1="36.51%" y2="63.49%"><stop offset="0%" stop-color="#FFD000"/><stop offset="100%" stop-color="#FD5B22"/></linearGradient><linearGradient id="e" x1="0%" x2="100%" y1="50%" y2="50%"><stop offset="0%" stop-color="#CC1852"/><stop offset="100%" stop-color="#231183"/></linearGradient><linearGradient id="f" x1="-3.94%" x2="103.94%" y1="57.27%" y2="42.72%"><stop offset="0%" stop-color="#CC1852"/><stop offset="100%" stop-color="#231183"/></linearGradient><linearGradient id="g" x1=".01%" x2="100%" y1="50%" y2="50%"><stop offset="0%" stop-color="#212A90"/><stop offset="100%" stop-color="#3459A5"/></linearGradient><linearGradient id="h" x1="-1.52%" x2="101.53%" y1="62.1%" y2="37.89%"><stop offset="0%" stop-color="#212A90"/><stop offset="100%" stop-color="#367B99"/></linearGradient><linearGradient id="i" x1="50%" x2="50%" y1="0%" y2="100%"><stop offset="0%" stop-color="#33A65E"/><stop offset="100%" stop-color="#358E7A"/></linearGradient><polygon id="j" points="0 .002 2.77 .002 2.77 13.976 0 13.976"/><polygon id="l" points="0 .002 2.77 .002 2.77 9.437 0 9.437"/><polygon id="n" points="0 0 7.691 0 7.691 13.976 0 13.976"/><linearGradient id="p" x1="100%" x2="0%" y1="55.23%" y2="55.23%"><stop offset="0%" stop-color="#570345"/><stop offset="37.68%" stop-color="#E72E73"/><stop offset="59.89%" stop-color="#E72E73"/><stop offset="100%" stop-color="#360030"/></linearGradient><linearGradient id="q" x1="62.39%" x2="93.84%" y1="46.78%" y2="60.36%"><stop offset="0%" stop-color="#E72E73"/><stop offset="100%" stop-color="#9D095E"/></linearGradient><radialGradient id="r" cx="81.42%" cy="16.47%" r="93.41%" fx="81.42%" fy="16.47%" gradientTransform="matrix(-.67833 .7347 -.73462 -.6784 1.488 -.322)"><stop offset="0%" stop-color="#EE0005"/><stop offset="55.9%" stop-color="#EB0004"/><stop offset="100%" stop-color="#B30008"/></radialGradient><linearGradient id="s" x1="95.4%" x2="26.06%" y1="4.63%" y2="73.97%"><stop offset="0%" stop-color="#42B8EB"/><stop offset="10%" stop-color="#3EAADE"/><stop offset="32%" stop-color="#2E73AD"/><stop offset="51%" stop-color="#234C89"/><stop offset="66%" stop-color="#1C3373"/><stop offset="100%" stop-color="#192A6B"/></linearGradient><polygon id="t" points=".106 .302 3.363 .302 3.363 8.56 .106 8.56"/><polygon id="v" points="0 0 8.127 0 8.127 3.258 0 3.258"/><linearGradient id="x" x1="50%" x2="50%" y1="-2.46%" y2="103.1%"><stop offset="0%" stop-color="#008053"/><stop offset="60%" stop-color="#7FCBAE"/><stop offset="100%" stop-color="#00A76D"/></linearGradient><linearGradient id="y" x1="50.05%" x2="50.05%" y1="-27.84%" y2="96.75%"><stop offset="0%" stop-color="#00A76D"/><stop offset="30%" stop-color="#7FCBAE"/><stop offset="55%" stop-color="#00A76D"/><stop offset="83.52%" stop-color="#008053"/><stop offset="86.91%" stop-color="#008558"/><stop offset="92.44%" stop-color="#009264"/><stop offset="99.38%" stop-color="#00A97A"/><stop offset="100%" stop-color="#00AD7D"/></linearGradient><linearGradient id="z" x1="49.71%" x2="49.71%" y1="226.53%" y2="-2.33%"><stop offset="0%" stop-color="#00B387"/><stop offset="100%" stop-color="#00A76D"/></linearGradient><linearGradient id="A" x1="48.94%" x2="48.94%" y1="105.81%" y2="-171.32%"><stop offset="0%" stop-color="#00B387"/><stop offset="100%" stop-color="#00A76D"/></linearGradient><linearGradient id="B" x1="49.5%" x2="49.5%" y1="233.31%" y2="-84.22%"><stop offset="0%" stop-color="#00B387"/><stop offset="100%" stop-color="#00A76D"/></linearGradient><linearGradient id="C" x1="49.64%" x2="49.64%" y1="96.61%" y2="-445.24%"><stop offset="0%" stop-color="#00B387"/><stop offset="100%" stop-color="#00A76D"/></linearGradient></defs><g fill="none" fill-rule="evenodd"><g transform="translate(81 83)"><path fill="#BBD9FD" d="M11.46 76.37c2.65.93 9.45 1.73 14.93 2.05 14.97.88 35.88.4 44.74-1.2 8.93-1.63 9.33-4.1-13.38-5.31-19.32-1.04-41.89.44-46.71 2.64-1.3.6-1.22 1.25.42 1.82"/><path fill="#3281EE" d="M43 0l.22.01c1.88.07 3.74.36 5.53.84a24 24 0 0 1 17.5 18.96c4.9.87 9.75 3.63 13.52 7.72 3.62 3.93 5.76 8.58 6.16 13.44a19.5 19.5 0 0 1-.27 5.24 25.4 25.4 0 0 1-2.92 8.38c-4.52 7.8-12.52 10.1-18.98 11.22l-.95.16c-4.02.65-8.23 1-17.2 1.05l-2.64.01h-2.61c-9.67-.06-13.8-.47-18.12-1.22l-.67-.12c-6.34-1.17-13.95-3.56-18.31-11.1A25.53 25.53 0 0 1 .34 46.2a19.48 19.48 0 0 1-.27-5.24c.4-4.86 2.54-9.5 6.17-13.44 3.76-4.1 8.62-6.85 13.5-7.72A24 24 0 0 1 37.27.85 24.96 24.96 0 0 1 42.99 0zm0 3.8c-1.62.06-3.22.3-4.76.71A20.23 20.23 0 0 0 23.3 21.72a1.9 1.9 0 0 1-1.7 1.66c-4.4.44-9.1 2.95-12.57 6.72a18.76 18.76 0 0 0-5.18 11.19c-.1 1.24-.06 2.5.15 3.78l.1.56a21.9 21.9 0 0 0 2.44 7.05c2.9 5 7.66 7.8 15.87 9.3l.84.15c3.55.61 7.14 1.05 17.24 1.1h5.56c10.02-.07 13.45-.53 17.06-1.16 8.5-1.48 13.4-4.28 16.35-9.39a22.2 22.2 0 0 0 2.4-6.76l.06-.38c.24-1.27.33-2.54.26-3.79l-.03-.47c-.33-4-2.12-7.87-5.17-11.18-3.48-3.77-8.18-6.28-12.58-6.72a1.9 1.9 0 0 1-1.7-1.66 20.23 20.23 0 0 0-14.94-17.2A21.24 21.24 0 0 0 43 3.8zM31.61 37.4c.9-.1 1.94.46 2.08 1.58.12.98-.07 1.84-.42 2.59 5.57 3.33 13.42 3.45 19.33.34-.4-.7-.67-1.46-.62-2.37.04-.66.4-1.23.99-1.52a1.9 1.9 0 0 1 1.88.1c.51.33.79.89.75 1.53-.04.62.96 1.87 1.8 2.5.95.7.93 1.9.37 2.65a1.64 1.64 0 0 1-2.36.36 8.11 8.11 0 0 1-.8-.68 23.63 23.63 0 0 1-11.37 2.82 23.4 23.4 0 0 1-12.07-3.22c-.35.3-.7.55-.98.77-.3.22-.65.34-.99.34-.2 0-.41-.05-.6-.13a1.84 1.84 0 0 1-.35-3.12l.37-.28c1-.77 1.7-1.48 1.58-2.44-.11-.94.48-1.7 1.41-1.82z"/></g><g transform="translate(161 65)"><path fill="#BBD9FD" fill-rule="nonzero" d="M65.14.32l-.3 1.97A25.2 25.2 0 0 0 61 2V0c1.4 0 2.78.1 4.14.32zm7.92 2.52l-.9 1.79a24.83 24.83 0 0 0-3.56-1.45l.61-1.9c1.32.41 2.61.94 3.85 1.56zm6.77 4.8l-1.4 1.44a23.9 23.9 0 0 0-2.95-2.46l1.16-1.63c1.13.8 2.2 1.7 3.19 2.66zm4.97 6.6l-1.76.95c-.6-1.13-1.3-2.21-2.07-3.24l1.6-1.2c.83 1.1 1.58 2.27 2.23 3.5zm2.76 7.9l-1.97.35c-.23-1.27-.55-2.5-.98-3.72l1.9-.66c.45 1.31.8 2.65 1.05 4.02zm.24 8.2l-1.99-.25a25.26 25.26 0 0 0 .18-3.76l2-.05a27.5 27.5 0 0 1-.2 4.06zm-2.28 7.98l-1.82-.84c.54-1.16.99-2.37 1.34-3.6l1.93.54a26.81 26.81 0 0 1-1.45 3.9zm-4.6 6.91l-1.48-1.35a24.6 24.6 0 0 0 2.37-3.02l1.67 1.1a27.11 27.11 0 0 1-2.57 3.27zm-6.45 5.18l-1-1.74a25.06 25.06 0 0 0 3.17-2.17l1.26 1.56a27.06 27.06 0 0 1-3.43 2.35zm-7.8 3l-.41-1.96a24.8 24.8 0 0 0 3.68-1.1l.72 1.87c-1.3.5-2.63.9-3.99 1.18zm-8.2.47l.19-1.99a25.32 25.32 0 0 0 3.77.07l.11 2a27.41 27.41 0 0 1-4.07-.08zm-8.04-2.03l.78-1.84c1.18.5 2.4.91 3.65 1.23l-.5 1.94a26.8 26.8 0 0 1-3.93-1.33zm-7.05-4.4l1.3-1.5c.98.83 2.01 1.6 3.1 2.27l-1.06 1.7a27.09 27.09 0 0 1-3.34-2.46zM38 41.18l1.7-1.05a25.68 25.68 0 0 0 2.27 3.1l-1.52 1.3A27.08 27.08 0 0 1 38 41.17zm-3.23-7.7l1.94-.47a26.4 26.4 0 0 0 1.2 3.65l-1.84.77a26.8 26.8 0 0 1-1.3-3.95zm-.73-8.2l2 .13a25.4 25.4 0 0 0 .04 3.7l-2 .16a27.35 27.35 0 0 1-.04-3.98zm1.79-8.08l1.86.72a24.8 24.8 0 0 0-1.11 3.68l-1.96-.43c.3-1.36.7-2.69 1.21-3.97zm4.19-7.2l1.55 1.26c-.8 1-1.54 2.05-2.19 3.16l-1.72-1c.7-1.2 1.48-2.35 2.36-3.42zm6.13-5.56l1.1 1.67c-1.07.7-2.09 1.5-3.04 2.36L42.87 7a27.11 27.11 0 0 1 3.28-2.55zM53.73.99l.54 1.93c-1.24.34-2.44.78-3.61 1.31l-.83-1.82A26.81 26.81 0 0 1 53.73 1zM61 0v2c-.96 0-1.92.05-2.86.16L57.9.17C58.93.06 59.96 0 61 0z"/><g opacity=".5" transform="rotate(9 -66.232 404.847)"><rect width="3.36" height="1.75" y="6.55" fill="url(#a)"/><rect width="3.36" height="1.75" x="3.84" y="6.55" fill="url(#b)"/><rect width="3.36" height="1.75" x="3.84" y="4.37" fill="url(#c)"/><rect width="3.36" height="1.75" x="3.84" y="2.18" fill="url(#d)"/><rect width="3.36" height="1.75" x="7.69" y="6.55" fill="url(#e)"/><rect width="3.36" height="1.75" x="7.69" y="4.37" fill="url(#f)"/><rect width="3.36" height="1.75" x="11.53" y="6.55" fill="url(#g)"/><rect width="3.36" height="1.75" x="11.53" y="4.37" fill="url(#h)"/><rect width="3.36" height="1.75" x="11.53" y="2.18" fill="url(#i)"/><rect width="3.36" height="1.75" x="11.53" fill="#40AB5D"/></g><g opacity=".5" transform="rotate(19 -54.22 170.666)"><mask id="k" fill="white"><use xlink:href="#j"/></mask><path fill="#B1060F" d="M0 0v13.98l.54-.05a44.44 44.44 0 0 1 2.19-.18c.03 0 .03-.15.03-2.96l.01-2.95L0 0z" mask="url(#k)"/><mask id="m" fill="white"><use xlink:href="#l"/></mask><polygon fill="#9D030F" points="2.767 9.437 2.77 7.844 2.768 7.839 2.768 7.842 0 .002" mask="url(#m)"/><path fill="#B1060F" d="M4.96.01V3.1l-.01 3.09 2.74 7.78h-.02.02c.01 0 .02-3.15.01-6.98V0H4.96z"/><polygon fill="#9D030F" points="4.949 4.625 4.946 6.186 7.574 13.64"/><mask id="o" fill="white"><use xlink:href="#n"/></mask><path fill="#E50914" d="M0 0l2.77 7.84.22.62 1.87 5.29.4.02a31.56 31.56 0 0 1 2.43.2L4.95 6.2l-.26-.72-1.41-3.99-.5-1.43L2.75 0H0z" mask="url(#o)"/></g><g opacity=".5" transform="rotate(-4 485.939 -903.446)"><path fill="#FBBC05" fill-rule="nonzero" d="M10.38 4.21L5.24 4.2v2.1H8.2a3.15 3.15 0 1 1-.87-3.4L8.8 1.41a5.24 5.24 0 1 0 1.57 2.8z"/><path fill="#EA4335" fill-rule="nonzero" d="M.6 2.8l1.73 1.26a3.14 3.14 0 0 1 5-1.17L8.8 1.41a5.22 5.22 0 0 0-8.2 1.4z"/><path fill="#34A853" fill-rule="nonzero" d="M5.24 10.48c1.35 0 2.59-.52 3.52-1.36L7.13 7.75A3.12 3.12 0 0 1 2.28 6.3L.58 7.62a5.24 5.24 0 0 0 4.66 2.86z"/><path fill="#4285F4" fill-rule="nonzero" d="M10.38 4.21L5.24 4.2v2.1H8.2c-.2.59-.58 1.09-1.07 1.46l1.63 1.37c-.12.1 1.72-1.26 1.72-3.88a5 5 0 0 0-.1-1.03z"/></g><g opacity=".5" transform="rotate(6 -61.84 460.833)"><path fill="#1877F2" d="M13.98 6.99a6.99 6.99 0 1 0-8.08 6.9V9.01H4.12V6.99H5.9V5.45c0-1.75 1.04-2.72 2.64-2.72.76 0 1.56.14 1.56.14v1.72h-.88c-.87 0-1.14.53-1.14 1.09v1.3h1.94L9.7 9.02H8.08v4.88a6.99 6.99 0 0 0 5.9-6.9"/><path fill="#FFFFFF" d="M9.7 9l.33-2H8.08V5.68c0-.56.27-1.1 1.14-1.1h.88v-1.7s-.8-.14-1.56-.14c-1.6 0-2.64.97-2.64 2.72V7H4.12v2H5.9v4.88a7.04 7.04 0 0 0 2.18 0V9.01h1.63z"/></g><path fill="#CEE4FE" d="M.75 33.1c-.33.97.07 1.24.39 1.14 1.91-.6 3.83-1.23 5.62-2.1 1.1-.38 2.17-.85 3.25-1.29 1.48-.58.93-2.15-.42-1.54-1.8.81-3.65 1.52-5.48 2.28l.21-.26A18.12 18.12 0 0 1 10 27.67a27.54 27.54 0 0 1 7.11-2.1c3.72-.59 5.77-.96 9.4-.07 1.33.32 1.76-1.66.08-2.01a24.43 24.43 0 0 0-9.44-.13l-1.12.13c-4.81.67-10.63 2.9-12.6 7.7.16-.48.3-.98.45-1.46.45-1.48.86-2.97 1.3-4.45.25-.82-.85-1.53-1.42-.21-.1.24-2.22 5.74-3 8.04z"/></g><g transform="translate(144 8)"><path fill="#BBD9FD" fill-rule="nonzero" d="M52.14.32l-.3 1.97A25.2 25.2 0 0 0 48 2V0c1.4 0 2.78.1 4.14.32zm7.92 2.52l-.9 1.79a24.83 24.83 0 0 0-3.56-1.45l.61-1.9c1.32.41 2.61.94 3.85 1.56zm6.77 4.8l-1.4 1.44a23.9 23.9 0 0 0-2.95-2.46l1.16-1.63c1.13.8 2.2 1.7 3.19 2.66zm4.97 6.6l-1.76.95c-.6-1.13-1.3-2.21-2.07-3.24l1.6-1.2c.83 1.1 1.58 2.27 2.23 3.5zm2.76 7.9l-1.97.35c-.23-1.27-.55-2.5-.98-3.72l1.9-.66c.45 1.31.8 2.65 1.05 4.02zm.24 8.2l-1.99-.25a25.26 25.26 0 0 0 .18-3.76l2-.05a27.5 27.5 0 0 1-.2 4.06zm-2.28 7.98l-1.82-.84c.54-1.16.99-2.37 1.34-3.6l1.93.54a26.81 26.81 0 0 1-1.45 3.9zm-4.6 6.91l-1.48-1.35a24.6 24.6 0 0 0 2.37-3.02l1.67 1.1a27.11 27.11 0 0 1-2.57 3.27zm-6.45 5.18l-1-1.74a25.06 25.06 0 0 0 3.17-2.17l1.26 1.56a27.06 27.06 0 0 1-3.43 2.35zm-7.8 3l-.41-1.96a24.8 24.8 0 0 0 3.68-1.1l.72 1.87c-1.3.5-2.63.9-3.99 1.18zm-8.2.47l.19-1.99a25.32 25.32 0 0 0 3.77.07l.11 2a27.41 27.41 0 0 1-4.07-.08zm-8.04-2.03l.78-1.84c1.18.5 2.4.91 3.65 1.23l-.5 1.94a26.8 26.8 0 0 1-3.93-1.33zm-7.05-4.4l1.3-1.5c.98.83 2.01 1.6 3.1 2.27l-1.06 1.7a27.09 27.09 0 0 1-3.34-2.46zM25 41.18l1.7-1.05a25.68 25.68 0 0 0 2.27 3.1l-1.52 1.3A27.08 27.08 0 0 1 25 41.17zm-3.23-7.7l1.94-.47a26.4 26.4 0 0 0 1.2 3.65l-1.84.77a26.8 26.8 0 0 1-1.3-3.95zm-.73-8.2l2 .13a25.4 25.4 0 0 0 .04 3.7l-2 .16a27.35 27.35 0 0 1-.04-3.98zm1.79-8.08l1.86.72a24.8 24.8 0 0 0-1.11 3.68l-1.96-.43c.3-1.36.7-2.69 1.21-3.97zm4.19-7.2l1.55 1.26c-.8 1-1.54 2.05-2.19 3.16l-1.72-1c.7-1.2 1.48-2.35 2.36-3.42zm6.13-5.56l1.1 1.67c-1.07.7-2.09 1.5-3.04 2.36L29.87 7a27.11 27.11 0 0 1 3.28-2.55zM40.73.99l.54 1.93c-1.24.34-2.44.78-3.61 1.31l-.83-1.82A26.81 26.81 0 0 1 40.73 1zM48 0v2c-.96 0-1.92.05-2.86.16L44.9.17C45.93.06 46.96 0 48 0z"/><path fill="#0062AE" fill-rule="nonzero" d="M43.68 29.05c.53-.63.62-.63.7-.92.06-.23-.44-.57-.72-.83a1.84 1.84 0 0 0-.78-.44c-.14-.02-.33-.03-.3-.1.29-.53-.02-.72-.14-.77l.04-.3h-.05v-.06l-5.41-.86a5.14 5.14 0 0 0-.89-.3c-.14-.02-.45.09-.55.08a.65.65 0 0 1-.26-.15c-.07-.08-.12-.27-.58-.26a.55.55 0 0 0-.41.2l-2.43-.38v.06l-.06-.01-.48 3.04a.49.49 0 0 0-.27.03c-.03.01-.17.04-.21.14-.1.06-.15.21-.1.27 0 .04-.1.22.06.3a.25.25 0 0 1-.14.37 2.4 2.4 0 0 0-.75.17c-1.25.4-.22.85-.02.9.28.07.34.1.2.38a1.6 1.6 0 0 0-.1.7c-.24-.03-.3.22-.33.39-.23.5.24.45.42.24.4.26.64-.36.67-.33l-.06.42a2.7 2.7 0 0 1-.19.22c-.27.4-.07.26-.11.45-.05.18-.05.3.13.38l-.4 2.53h.05v.07l1.77.28.1.07c.18.12.2.13.27.04a.2.2 0 0 0 .03-.06l8.36 1.32.01-.06.06.01.52-3.3c.4.06.28-.07.38-.43l.23-.86c0 .38.03 1.04-.04 1.12a.55.55 0 0 1-.28.2c-.22.1-.23.17-.22.18 0 .02-.05.12.2.16.2.02.4-.01.6-.08.1-.04.21 0 .29-.15.03-.13.06-.27.06-.42.16-.4.26-.8.3-1.23.3-.48.45-1.66.45-1.73.25-.3.35-.36.39-.68h-.01zM32.3 34.73a.08.08 0 0 1 .02-.1v-.03l-.02.13zm.16-.3c.2-.21.47-.37.77-.43.23-.04 1-.18 1.35-.2l-.23 1.43-1.97-.31.08-.5v.02zm9.12-5.2c-.09.18-.16.38-.22.58l-1-.16c.2-.1.4-.23.57-.37.28-.04.19-.21.13-.33a.33.33 0 0 0-.37-.08c-.34-.05-.1.13-.16.18-.12.08-.58.22-.75.3l-.06.03.28-1.78c.49.3 1.37.34 1.48.45.19.36.22.77.1 1.15v.02zm-.3 1c-.19.75-.04 1.37-.06 1.75l-1.87-.3.27-1.71c.21-.06.41-.14.6-.26l1.11.18c-.04.17-.03.23-.05.33v.01zm-9.64-.55c0-.2.08-.4.22-.56.17-.08.36-.15.55-.19.3-.02.57-.1.83-.23l-.22 1.37a.4.4 0 0 1-.09-.01c-.2-.06-.22 0-.22.04 0 .05.01.04-.19 0-.32-.06-.25.17-.11.25.17.09.35.15.54.18l-.02.14-1.27-.2c.03-.47-.04-.6-.02-.78v-.01zm2.33-2.47c.05-.09-.01-.24.06-.35.08-.1.18-.18.28-.26l.9.14.25.07h.21l-.32 2.01-1.72-.27a.33.33 0 0 0 .12-.1c.07-.11.08-.24-.01-.26-.22.07-.1 0-.2 0a.58.58 0 0 1-.1.05l.11-.71c.16-.1.3-.2.42-.32zm2.26-1.31c.03-.1.09-.18.15-.26.06-.08.23-.23.25-.32l.27.06.43.04c.13.02.35.14.45.15l.26.04-.23 1.44-1.97-.3c.13-.1.24-.2.32-.33a.92.92 0 0 0 .06-.52zm3.67 1.62l-.3 1.86a.2.2 0 0 1-.1-.01l-.32-.2c-.03 0-.03.03-.31-.18a.98.98 0 0 0-.74-.29c-.29 0-.38.03-.37-.09.02-.11.2-.17.2-.17.22-.04.15-.2.14-.23a.65.65 0 0 0-.02-.25c.12-.08-.07-.21-.1-.27a1.01 1.01 0 0 0-.1-.33l.03-.17 1.94.31.05.04v-.02zm-6.53 1.15l.04-.01 1.93.3-.08.5c-.28.13-.43.24-.75.37-.38.15-.78.26-1.19.32 0 0-.12.02-.16-.03h-.02l.23-1.45zm2.08.31l.65.1-.71.32.06-.42zm2.34-1.73a.44.44 0 0 0-.38-.08 1.5 1.5 0 0 0-.88.38.4.4 0 0 0-.22.19c-.03.08.07.17-.05.33a.28.28 0 0 0-.05.32c0 .04 0 .21.1.26.3.08.2.1.32.17-.1.07-.22.13-.34.18l-.82-.13.32-2.02 2.01.31v.07l-.01.02zm-4.72 3.3c.04-.04.14-.1.4-.04.68.13 1.35-.2 1.68-.3l-.13.79-1.97-.31.02-.14zm2.2-.39c.3-.08.98-.32 1.1-.26.2.24.3.54.33.85-.09.17-.3.27-.4.46l-1.17-.19.14-.86zm.97 1.14c-.24.54-.02.53-.13.84-.04.1-.58.34-1 .67a1.5 1.5 0 0 1-.3.18l.3-1.87 1.13.18zm.6 1.89l-.03.24-.27-.04.31-.2zm.14-.09l.4-.34c.06.01.16.03.46.21.75.48.8.32.9.5l.05.27-1.87-.3.06-.35v.01zm2.14-.65l-.84-.82.94.15-.1.67zm-.97-.96l-.06-.06c.03-.15.07-.3.12-.44.03-.25.11-.49.24-.7.19-.09.19-.34.25-.46.27.07.54.12.81.13l-.27 1.68-1.09-.15zm.97-4.56c-.04 0-.15.01-.13.05.1.15.4.13.48.2l.21.17-1.75-.28.23-1.44c.08.01.17.04.25.07.08.05.44.33.5.3.06-.02-.04-.11-.02-.15.02-.04.34.1.4 0 .05-.08-.22-.25-.31-.3-.1-.04-.33-.08-.41-.1-.08-.03-.2-.13-.35-.2l.02-.17 2 .32-.27 1.7a1.19 1.19 0 0 1-.4-.23.85.85 0 0 0-.53-.29s-.23-.02-.25.1c.13.07.24.15.33.25zm-1-1.74a.66.66 0 0 0-.13-.04l-.43-.16-.08-.03.66.1-.02.13zm-3.72 1.32c.04-.06.07-.2.1-.2.03-.01.18.14.4.28l-.5-.08zm-.73-.4l-.1.27-1.95-.31.32-1.99 2 .32-.27 1.7zm-.15.38l-.22.49c0 .02-.2.22-.27.3-.06.07-.14.08-.2.12-.04.05-.05.14.06.19.1.04.24-.06.28-.05.03.02-.02.1.05.11a.4.4 0 0 0 .2-.06l-.1.72c-.04.06-.05.04-.14.06-.2.04-.4.04-.6 0l-.27-.02-.74-.11a.06.06 0 0 1-.02-.06c.23-.2.14-.23.19-.33.04-.12.06-.24.07-.36a.34.34 0 0 0 0-.25.83.83 0 0 0-.17-.1c-.06 0-.1-.07-.18-.1l.14-.86 1.92.3zm-2.54 5.58c.06-.08-.13-.33.02-.51.14-.19.58-.46.61-.68l.05-.3 1.27.2-.31 1.99-2-.32.05-.34c.18.05.25.03.31-.04zm2.07-1.28l1.97.31-.3 1.92-.22.04-1.78-.29.31-1.98h.02zm.97 2.3c-.27.08-.72.38-1.3.6l-.13.04.13-.84 1.3.2zm.7.7c.67.04.63-.1.9-.14.26-.02.52-.08.76-.19l.43.07-.32 2.01-2.02-.32.24-1.44zm2.2-.23l1.93.3.04.15-.3 1.87-2-.32.31-2h.03zm2.03.66c.07.19.16.37.27.53.18.21.28.48.28.75-.04.23-.21.38.17.55l-.99-.16.27-1.67zm1.77 1.84a.95.95 0 0 0-.26-.2 1.19 1.19 0 0 1-.53-.7c-.12-.39-.2-.79-.24-1.2l1.33.22-.3 1.88zm-1.05-2.2a5.16 5.16 0 0 1-.04-.48c.01-.34-.14-.66-.41-.86l.11-.73 1.88.3c-.02.3-.1.42-.53.6-.43.17.05.23.05.23s.03-.03.48.04l-.18 1.14-1.36-.24zm2.22-7.87c-.25.09-.18.26-.24.33-.05.06-.15.1-.16.18-.01.08.07.11.07.12l-.02.28c-.02.1.12.11.1.14-.03.03-.27.07-.45.15a.8.8 0 0 1-.42.1c-.2-.03-.4-.07-.6-.13l-.09-.02.28-1.72 2 .31-.04.24a.7.7 0 0 0-.43.02zm-7.71-1.24c0 .25.14.47.36.57.13.04.13 0 .25 0 .12-.01.12.04.17.04.05 0 .01-.04.08-.05.07 0 .2 0 .25-.06.05-.06.11-.1.11-.1-.2.49-.25.48-.25.48-.58-.26-1-.3-1.12-.23a.23.23 0 0 0-.15.13l.18-1.11.22.03c-.06.1-.08.2-.08.3h-.02zm-3.9 9.81l.32-2 2 .31-.14.9c-.23.07-.48.11-.72.13-.32.06-.2.28-.12.33.03.14.07.28.12.4.03.08.07.14.12.2l-1.58-.27z" opacity=".5"/><g opacity=".5" transform="rotate(-7 270.714 -362.959)"><path fill="#28377E" fill-rule="nonzero" d="M0 .92s7.99-2.13 13.97.1v12A28.06 28.06 0 0 1 0 13.16V.92z"/><path fill="#FEFEFE" fill-rule="nonzero" d="M8.2 9.27c.33 0 .65.1.9.33l-.35.44a.75.75 0 0 0-.52-.2.68.68 0 0 0-.66.75.68.68 0 0 0 .68.75.7.7 0 0 0 .51-.2l.34.44c-.24.21-.55.33-.86.32a1.26 1.26 0 0 1-1.3-1.18v-.13A1.24 1.24 0 0 1 8.2 9.27zm-6.53 0l.67.6.38.38.1.1.49-.48.64-.6h.08v2.56h-.61v-1.29c-.08.1-.17.19-.26.27l-.34.33h-.04l-.33-.33-.13-.13-.13-.14v1.3h-.6V9.26h.08zm3.96 0l1.3 2.56h-.7l-.16-.33H5.02l-.15.33h-.68l1.3-2.56h.14zm4.4.07v2.5h-.62v-2.5h.62zm2.36 0l-.12.57h-1.1v.58h.96v.53h-.95v.81h-.63V9.34h1.84zm-6.84 1c-.1.25-.18.45-.26.6l-.03.07h.58l-.03-.06a7.48 7.48 0 0 1-.2-.43l-.06-.17z"/><path fill="#BDD630" fill-rule="nonzero" d="M6.94 1.6v1.3a2.06 2.06 0 1 0 2.1 2.07h1.32a3.38 3.38 0 1 1-3.42-3.36zM7 3.4a1.57 1.57 0 1 1 0 3.14A1.57 1.57 0 0 1 7 3.4z"/></g><g opacity=".5" transform="rotate(6 -64.195 336.366)"><polygon fill="#FC0D1A" fill-rule="nonzero" points="14.866 11.654 10.624 0 0 9.565"/><path fill="#FFFFFF" fill-rule="nonzero" d="M9.73 5.83h.85v2.91h-.85V5.83zm-1.9 1.76h.51l-.25-.93-.26.93zm-.2-1.76h.92l1.04 2.91h-.94l-.15-.48h-.82l-.15.48h-.95l1.05-2.91zM3.14 8.74V5.83h1.01l.66 1.42.65-1.42h.99v2.91h-.82V7.1l-.57 1.2h-.53l-.56-1.2v1.64h-.83zm7.76-2.91h2.21l-.11.69h-1.26v.41h1.18l-.1.7h-1.08v1.11h-.84V5.83z"/></g><g opacity=".5" transform="rotate(-15 84.586 -187.015)"><path fill="url(#p)" d="M8.9 0h-.03c-1 0-2.18.6-2.94 2.58-.73 1.87-.9 1.93-1.07 1.93h-.03c-.17 0-.55-.44-.95-1.13C3.47 2.7 2.8 2.01 2 2.01c-1.39 0-.61 5.8-.61 4 0-1.8.31-2.04.57-2.04.26 0 .79.44 1.46 1.53.68 1.08 1.13 1.77 1.84 1.77.72 0 1.34-.93 1.87-2.5.53-1.57 1.18-2.1 1.56-2.1.38 0 1.41.52 1.41 2.54l.01.93C10.15 7.46 13.56.5 8.9 0"/><path fill="#E72E73" d="M2 2.01C.63 2.01 0 4 0 5.53a6.58 6.58 0 0 0 1.87 4.28c.35.36.48.26.58.2.1-.04.17-.24-.1-.6A5.95 5.95 0 0 1 1.4 6c0-.8.06-1.28.15-1.58.12-.47.3-.84.57-1.19.36-.46 1-.46 1.35-.42-.39-.45-.9-.8-1.46-.8"/><path fill="url(#q)" d="M5.73 11.37c.74 0 2.2-.24 2.87-1.2.68-.97.92-1.67 1.52-1.67s.91.43.91.94c0 .5-1.38 2.73-4.77 2.73a4.43 4.43 0 0 1-2.84-.83c-.4-.3-.51-.57-.4-.69.1-.11.32-.02.72.24.4.26 1.13.48 1.99.48"/><path fill="#E72E73" d="M8.88 0h-.14c.42.04 2.5.31 2.5 2.48 0 2.15-1.2 2.25-1.2 4.01 0 1.06.3 1.45.97 1.45.83 0 1.5-1.49 1.5-3.29C12.52.91 9.9 0 8.89 0"/></g><path fill="#CEE4FE" d="M3.15 75.5c.31 1.17.9 1.17 1.15.87 1.5-1.87 3-3.76 4.2-5.82.86-1.1 1.6-2.29 2.4-3.43 1.1-1.57-.5-2.76-1.44-1.26-1.26 2-2.64 3.93-3.96 5.9l.05-.4c.5-2.65 1.8-5.14 3.22-7.4a30.99 30.99 0 0 1 5.7-6.8C17.5 54.5 18.5 53.5 22 52c1.5-.65.46-2.94-1.45-2.18-2.79 1.1-3.38 1.64-5.7 3.53a29.9 29.9 0 0 0-1.8 1.58c-.35.28-.7.57-1.03.88-4.35 3.85-8.68 9.9-7.47 16-.16-.59-.35-1.17-.52-1.75-.53-1.78-1.1-3.53-1.64-5.3-.3-.98-1.86-.96-1.56.73.06.31 1.59 7.2 2.32 10z"/></g><g transform="translate(97)"><path fill="#BBD9FD" fill-rule="nonzero" d="M31.14.32l-.3 1.97A25.2 25.2 0 0 0 27 2V0c1.4 0 2.78.1 4.14.32zm7.92 2.52l-.9 1.79a24.83 24.83 0 0 0-3.56-1.45l.61-1.9c1.32.41 2.61.94 3.85 1.56zm6.77 4.8l-1.4 1.44a23.9 23.9 0 0 0-2.95-2.46l1.16-1.63c1.13.8 2.2 1.7 3.19 2.66zm4.97 6.6l-1.76.95c-.6-1.13-1.3-2.21-2.07-3.24l1.6-1.2c.83 1.1 1.58 2.27 2.23 3.5zm2.76 7.9l-1.97.35c-.23-1.27-.55-2.5-.98-3.72l1.9-.66c.45 1.31.8 2.65 1.05 4.02zm.24 8.2l-1.99-.25a25.26 25.26 0 0 0 .18-3.76l2-.05a27.5 27.5 0 0 1-.2 4.06zm-2.28 7.98l-1.82-.84c.54-1.16.99-2.37 1.34-3.6l1.93.54a26.81 26.81 0 0 1-1.45 3.9zm-4.6 6.91l-1.48-1.35a24.6 24.6 0 0 0 2.37-3.02l1.67 1.1a27.11 27.11 0 0 1-2.57 3.27zm-6.45 5.18l-1-1.74a25.06 25.06 0 0 0 3.17-2.17l1.26 1.56a27.06 27.06 0 0 1-3.43 2.35zm-7.8 3l-.41-1.96a24.8 24.8 0 0 0 3.68-1.1l.72 1.87c-1.3.5-2.63.9-3.99 1.18zm-8.2.47l.19-1.99a25.32 25.32 0 0 0 3.77.07l.11 2a27.41 27.41 0 0 1-4.07-.08zm-8.04-2.03l.78-1.84c1.18.5 2.4.91 3.65 1.23l-.5 1.94a26.8 26.8 0 0 1-3.93-1.33zm-7.05-4.4l1.3-1.5c.98.83 2.01 1.6 3.1 2.27l-1.06 1.7a27.09 27.09 0 0 1-3.34-2.46zM4 41.18l1.7-1.05a25.68 25.68 0 0 0 2.27 3.1l-1.52 1.3A27.08 27.08 0 0 1 4 41.17zm-3.23-7.7L2.72 33a26.4 26.4 0 0 0 1.2 3.65l-1.84.77a26.8 26.8 0 0 1-1.3-3.95zm-.73-8.2l2 .13a25.4 25.4 0 0 0 .04 3.7l-2 .16a27.35 27.35 0 0 1-.04-3.98zm1.79-8.08l1.86.72A24.8 24.8 0 0 0 2.6 21.6l-1.96-.43c.3-1.36.7-2.69 1.21-3.97zM6.02 10l1.55 1.26c-.8 1-1.54 2.05-2.19 3.16l-1.72-1c.7-1.2 1.48-2.35 2.36-3.42zm6.13-5.56l1.1 1.67c-1.07.7-2.09 1.5-3.04 2.36L8.87 7a27.11 27.11 0 0 1 3.28-2.55zM19.73.99l.54 1.93c-1.24.34-2.44.78-3.61 1.31l-.83-1.82A26.81 26.81 0 0 1 19.73 1zM27 0v2c-.96 0-1.92.05-2.86.16L23.9.17C24.93.06 25.96 0 27 0z"/><g opacity=".5" transform="rotate(7 -73.89 114.324)"><path fill="#EA5D0B" d="M7.82 10.27c.94.62 2.8-.4 4.17-2.26 1.36-1.86 1.7-3.88.75-4.5-.94-.61-2.76.35-4.12 2.21-1.36 1.87-1.75 3.93-.8 4.55"/><path fill="#0854A1" d="M5.46 10.27c-.94.62-2.81-.4-4.17-2.26-1.36-1.86-1.7-3.88-.75-4.5.94-.61 2.76.35 4.12 2.21 1.36 1.87 1.75 3.93.8 4.55"/><path fill="#009CCE" d="M10.98 1.97C10.98.88 9.03 0 6.64 0 4.24 0 2.3.88 2.3 1.97c0 1.08 1.94 1.96 4.34 1.96s4.34-.88 4.34-1.96"/></g><path fill="#CD1E25" fill-rule="nonzero" d="M32.08 30.8c-.46.04-.91.18-1.32.41a3.7 3.7 0 0 0-1.17.91c-.23.3-.42.63-.57.98l-1.03.07a.07.07 0 0 0-.06.05l-.12.27a.08.08 0 0 0 0 .08c.02.02.04.04.07.03l.99-.06-1.58 4.03a.08.08 0 0 0 0 .1l.05.03c.02.02.04.02.07.02l.73-.17c.03 0 .05-.02.05-.05l1.79-4.04 1.3-.1c.02 0 .05-.01.06-.04l.13-.27a.07.07 0 0 0 0-.08.08.08 0 0 0-.08-.03l-1.22.08.31-.8c.07-.2.17-.38.3-.53a.83.83 0 0 1 .28-.2 1.27 1.27 0 0 1 .81-.06c.13.03.27.04.4.04.06 0 .12-.03.18-.06a.4.4 0 0 0 .16-.18.43.43 0 0 0 .04-.1v-.08l-.03-.09a.26.26 0 0 0-.1-.1.62.62 0 0 0-.22-.05l-.25.01.03-.02zm6.69 1.2a4.8 4.8 0 0 0-2.43.88c-.3.2-.56.46-.77.76a1.3 1.3 0 0 0-.26.83c0 .12.04.24.1.35.13.18.32.32.53.38.33.1.68.13 1.02.1a5.6 5.6 0 0 0 2.77-1.03.09.09 0 0 0 .04-.08.08.08 0 0 0-.05-.06l-.18-.1a.08.08 0 0 0-.08 0c-.62.4-1.32.66-2.06.74-.23.02-.46 0-.69-.07a.46.46 0 0 1-.2-.12.24.24 0 0 1-.06-.16c-.01-.14 0-.28.04-.41.77-.1 1.53-.25 2.27-.47.34-.1.65-.25.94-.44.12-.08.22-.18.3-.29.06-.1.1-.23.09-.36a.3.3 0 0 0-.05-.15.5.5 0 0 0-.22-.17 1.5 1.5 0 0 0-.49-.11 4.08 4.08 0 0 0-.56 0V32zm4.66-.32a5 5 0 0 0-2.43.87c-.3.2-.55.47-.76.76a1.4 1.4 0 0 0-.27.84.8.8 0 0 0 .11.34c.13.19.32.33.53.39.33.1.68.13 1.02.09a5.6 5.6 0 0 0 2.77-1.03.1.1 0 0 0 .03-.07.08.08 0 0 0-.04-.07l-.18-.1a.08.08 0 0 0-.08.01c-.62.4-1.32.65-2.06.73-.23.02-.47 0-.7-.07a.47.47 0 0 1-.18-.12.25.25 0 0 1-.07-.15.99.99 0 0 1 .04-.42c.77-.09 1.53-.25 2.27-.47.33-.1.65-.25.94-.44.12-.08.21-.17.3-.29.06-.1.1-.23.09-.35l-.05-.16a.5.5 0 0 0-.22-.17 1.5 1.5 0 0 0-.49-.11 4.08 4.08 0 0 0-.57 0v-.01zm-10.06.78c-.18.02-.35.06-.51.14a4.9 4.9 0 0 0-1.36.9c0 .03.02.05.04.06l.17.1c.03.02.06.01.09 0a4.02 4.02 0 0 1 .71-.42.86.86 0 0 1 .25-.07.2.2 0 0 1 .13.03l.03.05v.06c-.03.1-.06.2-.1.28l-.84 1.84-.02.03v.07a.1.1 0 0 0 0 .05l.05.04.09.04.16.02.18.01.3-.02h.1l.06-.03a.1.1 0 0 0 .04-.05l.2-.42c.22-.43.49-.84.8-1.22.15-.2.34-.38.54-.52.17-.13.37-.21.58-.24h.46c.1 0 .19-.04.27-.09.1-.05.18-.14.23-.25a.57.57 0 0 0 .05-.25c0-.05-.01-.1-.04-.13a.37.37 0 0 0-.07-.08.42.42 0 0 0-.16-.05h-.2c-.24.02-.46.1-.66.23a5.23 5.23 0 0 0-1.27 1.07l.22-.5c.04-.07.06-.14.08-.2l.03-.1-.01-.08c0-.05-.03-.1-.06-.15a.34.34 0 0 0-.1-.07.56.56 0 0 0-.2-.05h-.25v-.03zm5.14-.07c.11-.02.23 0 .34.04a.2.2 0 0 1 .07.05.1.1 0 0 1 .03.07c0 .07-.01.14-.04.2a.9.9 0 0 1-.35.34c-.3.18-.62.3-.96.39a8.4 8.4 0 0 1-1 .19l.18-.26c.21-.25.46-.48.74-.66.29-.2.62-.33.97-.36h.02zm4.67-.33a.8.8 0 0 1 .34.04l.07.06c0 .02.01.04 0 .07.01.07 0 .14-.04.2a.85.85 0 0 1-.35.33c-.3.18-.61.31-.95.39-.33.09-.66.15-1 .2l.18-.26c.21-.26.46-.48.74-.67.3-.2.63-.32.97-.36h.04z" opacity=".5"/><g opacity=".5" transform="rotate(-11 151.028 -31.733)"><polygon fill="#FF7900" points="0 12.578 12.58 12.578 12.58 0 0 0"/><g fill="#FFFFFF" transform="translate(.524 8.91)"><path d="M3.77 2.08a.2.2 0 0 0 .2.23c.16 0 .32-.07.43-.18V1.7c-.43.06-.63.17-.63.37zm.64.37a1 1 0 0 1-.58.17.48.48 0 0 1-.52-.5c0-.4.36-.6 1.1-.69v-.1c0-.12-.1-.2-.27-.2a.52.52 0 0 0-.43.2l-.3-.17a.86.86 0 0 1 .74-.34c.46 0 .71.2.71.52V2.6h-.4l-.05-.16zM5.23.9L5.6.85l.04.2a.97.97 0 0 1 .6-.24.5.5 0 0 1 .55.57V2.6h-.47V1.46c0-.21-.05-.3-.22-.3a.68.68 0 0 0-.43.19V2.6h-.45V.9zm4.96.6a.34.34 0 0 0-.35-.38c-.2 0-.34.14-.36.38h.71zm-.34 1.14c-.53 0-.83-.34-.83-.91 0-.58.31-.92.82-.92.5 0 .8.32.8.9v.08H9.48c0 .34.15.5.42.5.16 0 .31-.08.4-.22l.33.19a.84.84 0 0 1-.77.38zM1.02 1.2c-.34 0-.4.3-.4.52 0 .22.06.53.4.53.35 0 .41-.32.41-.53 0-.21-.06-.52-.4-.52m0 1.45a.84.84 0 0 1-.87-.92.84.84 0 0 1 .86-.92.84.84 0 0 1 .87.92.84.84 0 0 1-.87.92M2.21.85h.43v.2A.68.68 0 0 1 3.2.8v.43h-.03c-.2 0-.42.03-.48.19v1.16H2.2V.85zm6.54 0V2.5c0 .29-.03.77-.86.78-.34 0-.66-.13-.73-.43l.46-.08c.01.09.07.18.33.18s.35-.12.35-.4v-.2a.46.46 0 0 1-.45.26c-.41 0-.73-.28-.73-.87 0-.6.33-.92.7-.92.37 0 .48.16.5.24l.05-.2.38-.02zm-.83 1.38c.35 0 .38-.36.38-.6 0-.23-.13-.49-.38-.49-.17 0-.35.12-.35.53 0 .2.01.56.35.56z"/><path d="M11.58 1.17h-.1V.36l-.18.82h-.06l-.2-.82v.82h-.1V.2h.16l.17.75.17-.75h.15v.97zm-.75-.85h-.18v.85h-.1V.32h-.18V.18h.46v.14z"/></g></g><g opacity=".5" transform="rotate(6 -116.135 307.024)"><polygon fill="url(#r)" fill-rule="nonzero" points="0 10.482 10.483 10.482 10.483 0 0 0"/><path fill="#FFFFFF" d="M5.17 6.77V3.53h1.98v.51H5.71v.89h1.24v.5H5.71v1.34h-.54zm4.23 0l-.72-1.3h-.54v1.3H7.6V3.53h1.2c.48 0 1.13.13 1.13.94 0 .55-.29.8-.74.92l.85 1.38H9.4zm-.67-1.8c.49 0 .64-.2.64-.5 0-.21-.1-.46-.62-.46h-.61v.97h.6zM3.41 4.8c-.38-.1-.43-.31-.43-.44 0-.25.2-.42.55-.42.24 0 .45.1.6.3L4.57 4c-.2-.3-.52-.55-1.04-.55-.6 0-1.1.38-1.1.93s.47.8.97.94l.23.07c.43.11.47.3.47.47 0 .3-.32.5-.6.5-.3 0-.52-.1-.71-.43l-.42.25c.27.47.6.66 1.13.66.59 0 1.15-.44 1.15-1 0-.66-.53-.85-1-.97l-.23-.07z"/></g><path fill="#CEE4FE" d="M29.56 67.86c-.84 1.33-1.72 2.64-2.55 3.97-.28.43-.56.87-.83 1.32 1.4-2.76 1.32-10.71.79-13.6-.39-2.1-2-1.91-2.04.67-.03 2.12.7 10.24.52 12.42l-.04.32c-.67-1.76-1.39-3.49-2-5.26-.44-1.33-2.03-.62-1.48.79.41 1.02.78 2.07 1.23 3.07a34.98 34.98 0 0 0 2.22 5.24c.14.28.63.36 1.14-.53 1.25-2.12 4.06-7.36 4.18-7.6.63-1.3-.68-1.54-1.14-.8"/></g><g fill="#297EF1" transform="translate(29 8)"><path fill-rule="nonzero" d="M31.14.32l-.3 1.97A25.2 25.2 0 0 0 27 2V0c1.4 0 2.78.1 4.14.32zm7.92 2.52l-.9 1.79a24.83 24.83 0 0 0-3.56-1.45l.61-1.9c1.32.41 2.61.94 3.85 1.56zm6.77 4.8l-1.4 1.44a23.9 23.9 0 0 0-2.95-2.46l1.16-1.63c1.13.8 2.2 1.7 3.19 2.66zm4.97 6.6l-1.76.95c-.6-1.13-1.3-2.21-2.07-3.24l1.6-1.2c.83 1.1 1.58 2.27 2.23 3.5zm2.76 7.9l-1.97.35c-.23-1.27-.55-2.5-.98-3.72l1.9-.66c.45 1.31.8 2.65 1.05 4.02zm.24 8.2l-1.99-.25a25.26 25.26 0 0 0 .18-3.76l2-.05a27.5 27.5 0 0 1-.2 4.06zm-2.28 7.98l-1.82-.84c.54-1.16.99-2.37 1.34-3.6l1.93.54a26.81 26.81 0 0 1-1.45 3.9zm-4.6 6.91l-1.48-1.35a24.6 24.6 0 0 0 2.37-3.02l1.67 1.1a27.11 27.11 0 0 1-2.57 3.27zm-6.45 5.18l-1-1.74a25.06 25.06 0 0 0 3.17-2.17l1.26 1.56a27.06 27.06 0 0 1-3.43 2.35zm-7.8 3l-.41-1.96a24.8 24.8 0 0 0 3.68-1.1l.72 1.87c-1.3.5-2.63.9-3.99 1.18zm-8.2.47l.19-1.99a25.32 25.32 0 0 0 3.77.07l.11 2a27.41 27.41 0 0 1-4.07-.08zm-8.04-2.03l.78-1.84c1.18.5 2.4.91 3.65 1.23l-.5 1.94a26.8 26.8 0 0 1-3.93-1.33zm-7.05-4.4l1.3-1.5c.98.83 2.01 1.6 3.1 2.27l-1.06 1.7a27.09 27.09 0 0 1-3.34-2.46zM4 41.18l1.7-1.05a25.68 25.68 0 0 0 2.27 3.1l-1.52 1.3A27.08 27.08 0 0 1 4 41.17zm-3.23-7.7L2.72 33a26.4 26.4 0 0 0 1.2 3.65l-1.84.77a26.8 26.8 0 0 1-1.3-3.95zm-.73-8.2l2 .13a25.4 25.4 0 0 0 .04 3.7l-2 .16a27.35 27.35 0 0 1-.04-3.98zm1.79-8.08l1.86.72A24.8 24.8 0 0 0 2.6 21.6l-1.96-.43c.3-1.36.7-2.69 1.21-3.97zM6.02 10l1.55 1.26c-.8 1-1.54 2.05-2.19 3.16l-1.72-1c.7-1.2 1.48-2.35 2.36-3.42zm6.13-5.56l1.1 1.67c-1.07.7-2.09 1.5-3.04 2.36L8.87 7a27.11 27.11 0 0 1 3.28-2.55zM19.73.99l.54 1.93c-1.24.34-2.44.78-3.61 1.31l-.83-1.82A26.81 26.81 0 0 1 19.73 1zM27 0v2c-.96 0-1.92.05-2.86.16L23.9.17C24.93.06 25.96 0 27 0z"/><path d="M68.93 72.23c-.17.58-.36 1.16-.52 1.75 1.21-6.1-3.12-12.15-7.47-16-.34-.3-.68-.6-1.04-.88a29.76 29.76 0 0 0-1.79-1.58A132.96 132.96 0 0 0 53 51.5c-3.08-2.31-4.8.69-3.34 1.46 3.84 2.04 5.51 3.33 8.83 6.37 2.19 2 4.12 4.29 5.7 6.8 1.42 2.26 2.73 4.75 3.22 7.4l.05.4c-1.32-1.97-2.7-3.9-3.96-5.9-.94-1.5-2.53-.3-1.44 1.26.8 1.14 1.55 2.32 2.4 3.43a48.97 48.97 0 0 0 4.2 5.82c.26.3.84.3 1.15-.88.74-2.8 2.26-9.69 2.32-10 .3-1.7-1.27-1.7-1.56-.73-.53 1.77-1.11 3.53-1.64 5.3z"/></g><g transform="translate(0 65)"><path fill="#BBD9FD" fill-rule="nonzero" d="M31.14.32l-.3 1.97A25.2 25.2 0 0 0 27 2V0c1.4 0 2.78.1 4.14.32zm7.92 2.52l-.9 1.79a24.83 24.83 0 0 0-3.56-1.45l.61-1.9c1.32.41 2.61.94 3.85 1.56zm6.77 4.8l-1.4 1.44a23.9 23.9 0 0 0-2.95-2.46l1.16-1.63c1.13.8 2.2 1.7 3.19 2.66zm4.97 6.6l-1.76.95c-.6-1.13-1.3-2.21-2.07-3.24l1.6-1.2c.83 1.1 1.58 2.27 2.23 3.5zm2.76 7.9l-1.97.35c-.23-1.27-.55-2.5-.98-3.72l1.9-.66c.45 1.31.8 2.65 1.05 4.02zm.24 8.2l-1.99-.25a25.26 25.26 0 0 0 .18-3.76l2-.05a27.5 27.5 0 0 1-.2 4.06zm-2.28 7.98l-1.82-.84c.54-1.16.99-2.37 1.34-3.6l1.93.54a26.81 26.81 0 0 1-1.45 3.9zm-4.6 6.91l-1.48-1.35a24.6 24.6 0 0 0 2.37-3.02l1.67 1.1a27.11 27.11 0 0 1-2.57 3.27zm-6.45 5.18l-1-1.74a25.06 25.06 0 0 0 3.17-2.17l1.26 1.56a27.06 27.06 0 0 1-3.43 2.35zm-7.8 3l-.41-1.96a24.8 24.8 0 0 0 3.68-1.1l.72 1.87c-1.3.5-2.63.9-3.99 1.18zm-8.2.47l.19-1.99a25.32 25.32 0 0 0 3.77.07l.11 2a27.41 27.41 0 0 1-4.07-.08zm-8.04-2.03l.78-1.84c1.18.5 2.4.91 3.65 1.23l-.5 1.94a26.8 26.8 0 0 1-3.93-1.33zm-7.05-4.4l1.3-1.5c.98.83 2.01 1.6 3.1 2.27l-1.06 1.7a27.09 27.09 0 0 1-3.34-2.46zM4 41.18l1.7-1.05a25.68 25.68 0 0 0 2.27 3.1l-1.52 1.3A27.08 27.08 0 0 1 4 41.17zm-3.23-7.7L2.72 33a26.4 26.4 0 0 0 1.2 3.65l-1.84.77a26.8 26.8 0 0 1-1.3-3.95zm-.73-8.2l2 .13a25.4 25.4 0 0 0 .04 3.7l-2 .16a27.35 27.35 0 0 1-.04-3.98zm1.79-8.08l1.86.72A24.8 24.8 0 0 0 2.6 21.6l-1.96-.43c.3-1.36.7-2.69 1.21-3.97zM6.02 10l1.55 1.26c-.8 1-1.54 2.05-2.19 3.16l-1.72-1c.7-1.2 1.48-2.35 2.36-3.42zm6.13-5.56l1.1 1.67c-1.07.7-2.09 1.5-3.04 2.36L8.87 7a27.11 27.11 0 0 1 3.28-2.55zM19.73.99l.54 1.93c-1.24.34-2.44.78-3.61 1.31l-.83-1.82A26.81 26.81 0 0 1 19.73 1zM27 0v2c-.96 0-1.92.05-2.86.16L23.9.17C24.93.06 25.96 0 27 0z"/><path fill="#CEE4FE" d="M82.57 34.1c.15.5.28.99.44 1.47-1.97-4.8-7.78-7.02-12.59-7.7-.37-.05-.75-.1-1.13-.13a24.56 24.56 0 0 0-9.43.13c-1.69.36-.8 2.34.64 2.13 3.5-.5 5.12-.64 8.84-.05a27.9 27.9 0 0 1 7.1 2.1c2.05.92 4.1 2.05 5.67 3.67l.22.25c-1.83-.76-3.68-1.46-5.48-2.27-1.35-.61-1.9.95-.43 1.54 1.09.43 2.15.9 3.26 1.28 1.8.88 3.7 1.5 5.62 2.1.31.1.72-.17.39-1.13-.79-2.3-2.9-7.8-3-8.04-.57-1.32-1.67-.6-1.43.22.45 1.47.85 2.96 1.3 4.44z"/><g opacity=".5" transform="rotate(-15 65.383 -32.714)"><rect width="12.87" height="1.05" x=".15" y="7.81" fill="#006A4E" fill-rule="nonzero"/><path fill="#ED1B2F" fill-rule="nonzero" d="M13.98 1.26s-2.04 1.05-2.5 1.2c-.44.16-.62-.05-.65-.13-.08-.08-.35-.76-.35-.76s.15.03.38-.02c.32-.08 3.12-1.5 3.12-1.5v1.2z"/><g fill-rule="nonzero" transform="translate(0 .524)"><path fill="#006A4E" d="M8.33 1.65l.87 1.97 1.55-.74L9.4.24H7.48L4.78 4.8s1.34-.03 2.18-.63c.2-.1.81-1.55 1.37-2.52z"/><path fill="#009597" d="M10.75 2.88l-1.55.74c-1.3.6-2.56 1.12-3.23 1.3-1.78.45-3.93.74-4.72.11-.73-.58.96-3.01 4.14-3.56.52-.1.81-.08.81-.08S5.97.55 5.82.37C5.6.1 5.36.05 5.01.07 4.3.17 1.37.85.23 3.05c-.64 1.26.27 2.57.82 2.9.17.14 1.9 1.48 5.73.14 3.79-1.34 7.2-3.4 7.2-3.4v-1.4l-3.23 1.6z"/><path fill="#006A4E" d="M9.73 4.87c.14.3.55 1.18.64 1.42.14.29.46.29.46.26h1.78L11.3 4.1c-.47.29-1 .55-1.57.78z"/></g></g><g opacity=".5" transform="rotate(-15 120.973 -24.34)"><path fill="url(#s)" fill-rule="nonzero" d="M3.7 0L.1 3.58a.36.36 0 0 0-.1.25v8.4c0 .2.16.35.35.35h8.39c.1 0 .2-.04.26-.1l3.58-3.59V.24c0-.13-.1-.24-.24-.24H3.7z"/><path fill="#FFFFFF" d="M10.9 9.43H9.5a.09.09 0 0 1-.08-.03L8.07 7.59l-1.34 1.8a.1.1 0 0 1-.08.04H5.23a.1.1 0 0 1-.07-.16L7.2 6.53a.1.1 0 0 0 0-.12L5.12 3.64a.06.06 0 0 1 .05-.1h1.5a.1.1 0 0 1 .08.05l1.3 1.74 1.3-1.75a.09.09 0 0 1 .07-.04h1.52c.03 0 .06.03.06.06l-.01.03-2.05 2.79a.09.09 0 0 0 0 .1L11 9.3c.04.05 0 .14-.08.14"/><path fill="#FFFFFF" d="M0 5.8h2.07V3.63c0-.06.05-.1.1-.1H3.3c.05 0 .1.04.1.1v2.14h2c.06 0 .1.05.1.1v1.2a.1.1 0 0 1-.1.1h-2v2.15a.1.1 0 0 1-.1.1H2.17a.1.1 0 0 1-.1-.1V7.2H0V5.8z"/></g><g opacity=".5" transform="rotate(-10 203.184 -146.531)"><g transform="translate(6.42 1.223)"><mask id="u" fill="white"><use xlink:href="#t"/></mask><path fill="#E2077B" d="M3.36.3v.1c0 .45-.18.85-.48 1.14l-.72.73L.11 4.33v2.55c0 .92.73 1.68 1.62 1.68.9 0 1.63-.76 1.63-1.68V.3" mask="url(#u)"/></g><path fill="#22BBEA" d="M4.23 3.26L.45 7.05C-.14 7.7-.13 8.7.48 9.3l6.05-6.05h-2.3z"/><path fill="#139BD8" d="M.48 9.31c.6.6 1.6.61 2.26.03l.07-.07 3.72-3.72V3.26L.48 9.3z"/><path fill="#046FB7" d="M8.58 3.5l.72-.74c-.3.3-.73.5-1.2.5H6.53v2.29l2.05-2.06"/><mask id="w" fill="white"><use xlink:href="#v"/></mask><path fill="#E2077B" d="M7.97.01h.15V0H1.69C.76 0 0 .73 0 1.63c0 .9.76 1.63 1.68 1.63h2.55l2.7-2.7c.26-.3.63-.5 1.04-.55" mask="url(#w)"/><path fill="#046FB7" d="M6.53 1.64v-.02a1.33 1.33 0 0 1 0-.05v-.09l.01-.04.03-.15c.06-.28.19-.53.36-.73l-2.7 2.7h2.3V1.64"/><path fill="#1F3D79" d="M9.78 1.53l-.04-.23A1.62 1.62 0 0 0 8.13 0h-.1l-.05.01h-.01a1.61 1.61 0 0 0-1.4 1.28c0 .05-.02.1-.03.14a2.09 2.09 0 0 0 0 .1v.01l-.01.03v1.69H8.1a1.66 1.66 0 0 0 1.68-1.73"/></g><g opacity=".5" transform="rotate(6 -108.793 291.918)"><rect width="13.98" height="13.98" fill="url(#x)" fill-rule="nonzero"/><path fill="url(#y)" fill-rule="nonzero" d="M13.54 7.08c0 2.9.15 5.9.15 5.9 0 .36-.24.56-.5.56H1.08c-.26 0-.47-.23-.5-.55 0 0-.35-2.57-.35-6.44C.26 2.62.61.8.61.8c.03-.32.23-.56.5-.56h12.08c.26 0 .5.26.5.56 0 0-.15 3.37-.15 6.29z"/><g fill-rule="nonzero" transform="translate(1.165 1.456)"><path fill="url(#z)" d="M9.7 2.33c-.88.5-1.14.55-2.07 1.1l.06-.11c.5-.52.7-.76 1.02-1.22-.88.05-2.13.14-3.03.35l.06-.1c.81-.4 2.33-.78 3.08-.9A9.75 9.75 0 0 0 6.72.2l.06-.08c1.17.14 2.71.67 3.38 1.07.3-.08.59-.08 1.1-.14 0 0-.08.32-.63.7.14.38-.2 2.47-.5 3.05-.03-.9-.11-2-.43-2.47z"/><path fill="url(#A)" d="M3.38 9.87l.06-.09c-.47-.17-.94-.32-1.29-.67.12-.32.27-.58.47-.9l.06-.09c-.4.06-.76.2-1.1.27a5.53 5.53 0 0 1-.5-1.75l-.06.09a5 5 0 0 0 0 1.77c-.3.09-.52.09-.76.18l-.03.08c.38.24.67.41 1.08.59.23.46.44.78.82 1.16l.05-.09c-.05-.26-.14-.5-.11-.78.38.14.78.23 1.3.23z"/><path fill="url(#B)" d="M4.66 2.85s-.18.32-.32.76H4.3c1.08.15 2.1.58 2.36.73l-.06.09a7.72 7.72 0 0 0-2.13-.15c-.4.03-.5.09-.5.09-.22.52-.37 1.37-.43 1.69l-.06.14C3.3 5.7 3 4.72 3 4.72a15.1 15.1 0 0 0-1.85 1.51 7.78 7.78 0 0 1 1.42-2.07c-.26-.26-.9-.37-1.37-.4l.06-.1c.3-.08.9-.1 1.34-.14.5-.03.79 0 .79 0a3.62 3.62 0 0 1 1.28-.67z"/><path fill="url(#C)" d="M6.03 9c-.24.32-.41.55-.67.81-.38.12-.82.06-1.14.06l-.06.09c.27.14.5.2.79.26-.2.2-.5.35-.7.5l-.06.08a5.22 5.22 0 0 0 1.43-.55c.23 0 .44 0 .58-.03l.06-.09c-.03-.08-.12-.14-.14-.29.4-.32.7-.58 1.01-.93l.06-.09c-.32.24-.73.56-1.13.73-.03-.17-.03-.35-.03-.55z"/><path fill="#FFFFFF" d="M9.73 2.21c-.88.5-1.14.56-2.07 1.1.55-.57.73-.84 1.08-1.33-.88.06-2.13.15-3.03.35.78-.4 2.33-.87 3.14-1-.2-.25-1.72-1.1-2.1-1.24 1.23.08 2.71.55 3.41.99.3-.09.59-.09 1.1-.15-.14.23-.14.35-.66.7.15.38-.2 2.48-.5 3.06.03-.88-.02-1.98-.37-2.48zM3.4 9.78a3.7 3.7 0 0 1-1.26-.75c.12-.32.27-.59.47-.9-.4.05-.7.11-1.05.17a5.3 5.3 0 0 1-.55-1.63 5 5 0 0 0 0 1.77c-.32.1-.55.18-.82.3.38.23.67.4 1.08.58.23.46.44.78.82 1.16a2.24 2.24 0 0 1-.1-.87c.5.09.88.14 1.4.17zm1.3-7.01c-.14.2-.31.58-.37.75 1.28.18 2.3.82 2.3.82a7.72 7.72 0 0 0-2.13-.15c-.4.03-.5.09-.5.09-.28.67-.49 1.8-.49 1.8-.2-.49-.5-1.48-.5-1.48-.54.3-1.86 1.51-1.86 1.51.7-1.42 1.43-2.06 1.43-2.06-.26-.26-.9-.38-1.37-.41a5.1 5.1 0 0 1 1.37-.23h.79c.43-.32 1.1-.61 1.34-.64zm1.35 6.11c-.24.32-.41.55-.67.82a4.7 4.7 0 0 1-1.2.17c.27.15.5.2.79.26-.26.24-.5.41-.76.58a5.22 5.22 0 0 0 1.43-.55c.23 0 .44 0 .58-.03a4.7 4.7 0 0 1-.09-.4c.41-.33.7-.59 1.02-.94-.35.27-.67.44-1.07.64 0-.17 0-.32-.03-.55z"/></g></g></g></g></svg>
