<svg id="Calque_1" data-name="Calque 1" xmlns="http://www.w3.org/2000/svg" xmlns:xlink="http://www.w3.org/1999/xlink" viewBox="0 0 249 162">
  <defs>
    <style>
      .cls-1, .cls-44 {
        fill: #fff;
      }

      .cls-1, .cls-10, .cls-11, .cls-12, .cls-13, .cls-14, .cls-15, .cls-17, .cls-19, .cls-21, .cls-26, .cls-32, .cls-33, .cls-34, .cls-35, .cls-37, .cls-50, .cls-51, .cls-52, .cls-53, .cls-54, .cls-55, .cls-57, .cls-6, .cls-60, .cls-62, .cls-63, .cls-64, .cls-7, .cls-8, .cls-9 {
        fill-rule: evenodd;
      }

      .cls-2, .cls-4 {
        fill: none;
        stroke-width: 2px;
        stroke-dasharray: 4;
      }

      .cls-2 {
        stroke: #297ef1;
      }

      .cls-3 {
        opacity: 0.72;
      }

      .cls-4 {
        stroke: #bbd9fd;
      }

      .cls-45, .cls-5, .cls-56 {
        opacity: 0.5;
      }

      .cls-6 {
        fill: url(#Dégradé_sans_nom);
      }

      .cls-7 {
        fill: url(#Dégradé_sans_nom_2);
      }

      .cls-8 {
        fill: url(#Dégradé_sans_nom_3);
      }

      .cls-9 {
        fill: url(#Dégradé_sans_nom_4);
      }

      .cls-10 {
        fill: url(#Dégradé_sans_nom_5);
      }

      .cls-11 {
        fill: url(#Dégradé_sans_nom_6);
      }

      .cls-12 {
        fill: url(#Dégradé_sans_nom_7);
      }

      .cls-13 {
        fill: url(#Dégradé_sans_nom_8);
      }

      .cls-14 {
        fill: url(#Dégradé_sans_nom_9);
      }

      .cls-15 {
        fill: #40ab5d;
      }

      .cls-16 {
        mask: url(#mask);
      }

      .cls-17 {
        fill: #b1060f;
      }

      .cls-18 {
        mask: url(#mask-2);
      }

      .cls-19 {
        fill: #9d030f;
      }

      .cls-20 {
        mask: url(#mask-3);
      }

      .cls-21 {
        fill: #e50914;
      }

      .cls-22 {
        fill: #fbbc05;
      }

      .cls-23 {
        fill: #ea4335;
      }

      .cls-24 {
        fill: #34a853;
      }

      .cls-25 {
        fill: #4285f4;
      }

      .cls-26 {
        fill: #1877f2;
      }

      .cls-27 {
        fill: #006a4e;
      }

      .cls-28 {
        fill: #ed1b2f;
      }

      .cls-29 {
        fill: #009597;
      }

      .cls-30 {
        fill: url(#Dégradé_sans_nom_10);
      }

      .cls-31 {
        mask: url(#mask-4);
      }

      .cls-32 {
        fill: #e2077b;
      }

      .cls-33 {
        fill: #22bbea;
      }

      .cls-34 {
        fill: #139bd8;
      }

      .cls-35 {
        fill: #046fb7;
      }

      .cls-36 {
        mask: url(#mask-5);
      }

      .cls-37 {
        fill: #1f3d79;
      }

      .cls-38 {
        fill: url(#Dégradé_sans_nom_11);
      }

      .cls-39 {
        fill: url(#Dégradé_sans_nom_12);
      }

      .cls-40 {
        fill: url(#Dégradé_sans_nom_13);
      }

      .cls-41 {
        fill: url(#Dégradé_sans_nom_14);
      }

      .cls-42 {
        fill: url(#Dégradé_sans_nom_15);
      }

      .cls-43 {
        fill: url(#Dégradé_sans_nom_16);
      }

      .cls-45 {
        fill: #0062ae;
      }

      .cls-45, .cls-56, .cls-63 {
        isolation: isolate;
      }

      .cls-46 {
        fill: #28377e;
      }

      .cls-47 {
        fill: #fefefe;
      }

      .cls-48 {
        fill: #bdd630;
      }

      .cls-49 {
        fill: #fc0d1a;
      }

      .cls-50 {
        fill: url(#Dégradé_sans_nom_17);
      }

      .cls-51 {
        fill: #e72e73;
      }

      .cls-52 {
        fill: url(#Dégradé_sans_nom_18);
      }

      .cls-53 {
        fill: #ea5d0b;
      }

      .cls-54 {
        fill: #0854a1;
      }

      .cls-55 {
        fill: #009cce;
      }

      .cls-56 {
        fill: #cd1e25;
      }

      .cls-57 {
        fill: #ff7900;
      }

      .cls-58 {
        fill: url(#Dégradé_sans_nom_19);
      }

      .cls-59 {
        mask: url(#mask-6);
      }

      .cls-60, .cls-63 {
        fill: #bbd9fd;
      }

      .cls-61 {
        mask: url(#mask-7);
      }

      .cls-62 {
        fill: #3281ee;
      }

      .cls-63 {
        opacity: 0.5;
      }

      .cls-64 {
        fill: #297ef1;
      }

      .cls-65 {
        mask: url(#mask-8);
      }

      .cls-66 {
        mask: url(#mask-9);
      }
    </style>
    <linearGradient id="Dégradé_sans_nom" data-name="Dégradé sans nom" x1="73.96" y1="123.49" x2="74.96" y2="123.49" gradientTransform="matrix(3.32, 0.53, 0.27, -1.73, -57.07, 261.84)" gradientUnits="userSpaceOnUse">
      <stop offset="0" stop-color="#f90"/>
      <stop offset="1" stop-color="#ff8000"/>
    </linearGradient>
    <linearGradient id="Dégradé_sans_nom_2" data-name="Dégradé sans nom 2" x1="73.97" y1="123.49" x2="74.97" y2="123.49" gradientTransform="matrix(3.32, 0.53, 0.27, -1.73, -53.27, 262.45)" gradientUnits="userSpaceOnUse">
      <stop offset="0" stop-color="#ff8000"/>
      <stop offset="1" stop-color="#cc1852"/>
    </linearGradient>
    <linearGradient id="Dégradé_sans_nom_3" data-name="Dégradé sans nom 3" x1="73.96" y1="123.56" x2="74.96" y2="123.41" gradientTransform="matrix(3.32, 0.53, 0.27, -1.73, -52.93, 260.29)" gradientUnits="userSpaceOnUse">
      <stop offset="0" stop-color="#ffca00"/>
      <stop offset="1" stop-color="#cf1b37"/>
    </linearGradient>
    <linearGradient id="Dégradé_sans_nom_4" data-name="Dégradé sans nom 4" x1="73.96" y1="123.62" x2="74.96" y2="123.35" gradientTransform="matrix(3.32, 0.53, 0.27, -1.73, -52.59, 258.13)" gradientUnits="userSpaceOnUse">
      <stop offset="0" stop-color="#ffd000"/>
      <stop offset="1" stop-color="#fd5b22"/>
    </linearGradient>
    <linearGradient id="Dégradé_sans_nom_5" data-name="Dégradé sans nom 5" x1="73.96" y1="123.49" x2="74.96" y2="123.49" gradientTransform="matrix(3.32, 0.53, 0.27, -1.73, -49.48, 263.05)" gradientUnits="userSpaceOnUse">
      <stop offset="0" stop-color="#cc1852"/>
      <stop offset="1" stop-color="#231183"/>
    </linearGradient>
    <linearGradient id="Dégradé_sans_nom_6" data-name="Dégradé sans nom 6" x1="73.92" y1="123.42" x2="75" y2="123.56" gradientTransform="matrix(3.32, 0.53, 0.27, -1.73, -49.14, 260.89)" xlink:href="#Dégradé_sans_nom_5"/>
    <linearGradient id="Dégradé_sans_nom_7" data-name="Dégradé sans nom 7" x1="73.96" y1="123.49" x2="74.96" y2="123.49" gradientTransform="matrix(3.32, 0.53, 0.27, -1.73, -45.68, 263.65)" gradientUnits="userSpaceOnUse">
      <stop offset="0" stop-color="#212a90"/>
      <stop offset="1" stop-color="#3459a5"/>
    </linearGradient>
    <linearGradient id="Dégradé_sans_nom_8" data-name="Dégradé sans nom 8" x1="73.95" y1="123.37" x2="74.98" y2="123.61" gradientTransform="matrix(3.32, 0.53, 0.27, -1.73, -45.34, 261.49)" gradientUnits="userSpaceOnUse">
      <stop offset="0" stop-color="#212a90"/>
      <stop offset="1" stop-color="#367b99"/>
    </linearGradient>
    <linearGradient id="Dégradé_sans_nom_9" data-name="Dégradé sans nom 9" x1="74.46" y1="123.99" x2="74.46" y2="122.99" gradientTransform="matrix(3.32, 0.53, 0.27, -1.73, -45, 259.34)" gradientUnits="userSpaceOnUse">
      <stop offset="0" stop-color="#33a65e"/>
      <stop offset="1" stop-color="#358e7a"/>
    </linearGradient>
    <mask id="mask" x="209.06" y="91.95" width="7.17" height="14.11" maskUnits="userSpaceOnUse">
      <g id="k">
        <path id="j" class="cls-1" d="M213.61,92l2.62.9-4.55,13.22-2.62-.91Z"/>
      </g>
    </mask>
    <mask id="mask-2" x="210.54" y="91.95" width="5.69" height="9.82" maskUnits="userSpaceOnUse">
      <g id="m">
        <path id="l" class="cls-1" d="M213.61,92l2.62.9-3.07,8.93-2.62-.91Z"/>
      </g>
    </mask>
    <mask id="mask-3" x="209.06" y="91.95" width="11.82" height="15.72" maskUnits="userSpaceOnUse">
      <g id="o">
        <path id="n" class="cls-1" d="M213.61,92l7.27,2.5-4.55,13.22-7.27-2.51Z"/>
      </g>
    </mask>
    <linearGradient id="Dégradé_sans_nom_10" data-name="Dégradé sans nom 10" x1="102.92" y1="104.19" x2="102.23" y2="103.49" gradientTransform="matrix(12.15, -3.26, -3.26, -12.15, -889.3, 1693.87)" gradientUnits="userSpaceOnUse">
      <stop offset="0" stop-color="#42b8eb"/>
      <stop offset="0.1" stop-color="#3eaade"/>
      <stop offset="0.32" stop-color="#2e73ad"/>
      <stop offset="0.51" stop-color="#234c89"/>
      <stop offset="0.66" stop-color="#1c3373"/>
      <stop offset="1" stop-color="#192a6b"/>
    </linearGradient>
    <mask id="mask-4" x="35.22" y="97.86" width="4.64" height="8.7" maskUnits="userSpaceOnUse">
      <g id="r">
        <path id="q" class="cls-1" d="M35.22,98.42l3.21-.56L39.87,106l-3.21.57Z"/>
      </g>
    </mask>
    <mask id="mask-5" x="28.53" y="96.65" width="8.57" height="4.62" maskUnits="userSpaceOnUse">
      <g id="t">
        <path id="s" class="cls-1" d="M28.53,98.06l8-1.41.56,3.2-8,1.41Z"/>
      </g>
    </mask>
    <linearGradient id="Dégradé_sans_nom_11" data-name="Dégradé sans nom 11" x1="101.26" y1="100.83" x2="101.26" y2="99.78" gradientTransform="matrix(13.9, 1.46, 1.46, -13.9, -1517.94, 1331.97)" gradientUnits="userSpaceOnUse">
      <stop offset="0" stop-color="#008053"/>
      <stop offset="0.6" stop-color="#7fcbae"/>
      <stop offset="1" stop-color="#00a76d"/>
    </linearGradient>
    <linearGradient id="Dégradé_sans_nom_12" data-name="Dégradé sans nom 12" x1="100.94" y1="101.28" x2="100.94" y2="100.03" gradientTransform="matrix(13.38, 1.41, 1.39, -13.23, -1454.13, 1273.56)" gradientUnits="userSpaceOnUse">
      <stop offset="0" stop-color="#00a76d"/>
      <stop offset="0.3" stop-color="#7fcbae"/>
      <stop offset="0.55" stop-color="#00a76d"/>
      <stop offset="0.84" stop-color="#008053"/>
      <stop offset="0.87" stop-color="#008558"/>
      <stop offset="0.92" stop-color="#009264"/>
      <stop offset="0.99" stop-color="#00a97a"/>
      <stop offset="1" stop-color="#00ad7d"/>
    </linearGradient>
    <linearGradient id="Dégradé_sans_nom_13" data-name="Dégradé sans nom 13" x1="88.9" y1="106.09" x2="88.9" y2="108.38" gradientTransform="matrix(5.56, 0.58, 0.49, -4.66, -508.05, 533.79)" gradientUnits="userSpaceOnUse">
      <stop offset="0" stop-color="#00b387"/>
      <stop offset="1" stop-color="#00a76d"/>
    </linearGradient>
    <linearGradient id="Dégradé_sans_nom_14" data-name="Dégradé sans nom 14" x1="73.53" y1="109.69" x2="73.53" y2="112.47" gradientTransform="matrix(3.19, 0.33, 0.4, -3.85, -247.01, 488.2)" xlink:href="#Dégradé_sans_nom_13"/>
    <linearGradient id="Dégradé_sans_nom_15" data-name="Dégradé sans nom 15" x1="88.68" y1="110.43" x2="88.68" y2="113.61" gradientTransform="matrix(5.5, 0.58, 0.35, -3.36, -493.18, 410.34)" xlink:href="#Dégradé_sans_nom_13"/>
    <linearGradient id="Dégradé_sans_nom_16" data-name="Dégradé sans nom 16" x1="71.46" y1="122.93" x2="71.46" y2="128.35" gradientTransform="matrix(3.01, 0.32, 0.21, -1.97, -205.18, 310.26)" xlink:href="#Dégradé_sans_nom_13"/>
    <linearGradient id="Dégradé_sans_nom_17" data-name="Dégradé sans nom 17" x1="101.3" y1="109.02" x2="100.3" y2="109.02" gradientTransform="matrix(9.82, -2.63, -1.88, -7.02, -582.87, 1056.3)" gradientUnits="userSpaceOnUse">
      <stop offset="0" stop-color="#570345"/>
      <stop offset="0.38" stop-color="#e72e73"/>
      <stop offset="0.6" stop-color="#e72e73"/>
      <stop offset="1" stop-color="#360030"/>
    </linearGradient>
    <linearGradient id="Dégradé_sans_nom_18" data-name="Dégradé sans nom 18" x1="98.63" y1="121.32" x2="98.94" y2="121.19" gradientTransform="matrix(7.78, -2.08, -0.95, -3.54, -446.7, 666.7)" gradientUnits="userSpaceOnUse">
      <stop offset="0" stop-color="#e72e73"/>
      <stop offset="1" stop-color="#9d095e"/>
    </linearGradient>
    <radialGradient id="Dégradé_sans_nom_19" data-name="Dégradé sans nom 19" cx="113.54" cy="85.31" r="0.93" gradientTransform="matrix(-7.88, 6.92, 6.92, 7.88, 441.11, -1440.78)" gradientUnits="userSpaceOnUse">
      <stop offset="0" stop-color="#ee0005"/>
      <stop offset="0.56" stop-color="#eb0004"/>
      <stop offset="1" stop-color="#b30008"/>
    </radialGradient>
    <mask id="mask-6" x="91.14" y="154.2" width="66.68" height="7.29" maskUnits="userSpaceOnUse">
      <g id="E">
        <path id="D" class="cls-1" d="M91.14,154.2h66.68v7.29H91.14Z"/>
      </g>
    </mask>
    <mask id="mask-7" x="81" y="82.63" width="86" height="67.03" maskUnits="userSpaceOnUse">
      <g id="G">
        <path id="F" class="cls-1" d="M81,82.63h86v67H81Z"/>
      </g>
    </mask>
    <mask id="mask-8" x="161.63" y="87.97" width="30.81" height="11.3" maskUnits="userSpaceOnUse">
      <g id="I">
        <path id="H" class="cls-1" d="M161.63,88h30.81V99.26H161.63Z"/>
      </g>
    </mask>
    <mask id="mask-9" x="55" y="92.35" width="30.81" height="11.3" maskUnits="userSpaceOnUse">
      <g id="K-2" data-name="K">
        <path id="J-2" data-name="J" class="cls-1" d="M55,92.35H85.81v11.29H55Z"/>
      </g>
    </mask>
  </defs>
  <title>ggfh150Plan de travail 1</title>
  <g>
    <path class="cls-2" d="M56,61A26,26,0,1,0,30,35,26,26,0,0,0,56,61Z"/>
    <g class="cls-3">
      <path class="cls-4" d="M222,118a26,26,0,1,0-26-26A26,26,0,0,0,222,118Z"/>
      <g class="cls-5">
        <path class="cls-6" d="M222.49,86.82l3.32.52-.27,1.73-3.32-.53Z"/>
        <path class="cls-7" d="M226.29,87.42l3.32.52-.27,1.73L226,89.14Z"/>
        <path class="cls-8" d="M226.63,85.26l3.32.53-.27,1.72L226.36,87Z"/>
        <path class="cls-9" d="M227,83.1l3.32.53L230,85.36l-3.32-.53Z"/>
        <path class="cls-10" d="M230.09,88l3.32.52-.28,1.73-3.32-.53Z"/>
        <path class="cls-11" d="M230.43,85.86l3.32.53-.27,1.72-3.33-.52Z"/>
        <path class="cls-12" d="M233.88,88.62l3.32.53-.27,1.72-3.32-.53Z"/>
        <path class="cls-13" d="M234.22,86.46l3.32.53-.27,1.72L234,88.19Z"/>
        <path class="cls-14" d="M234.56,84.31l3.33.52-.28,1.73L234.29,86Z"/>
        <path class="cls-15" d="M234.91,82.15l3.32.53L238,84.4l-3.32-.52Z"/>
      </g>
      <g class="cls-5">
        <g class="cls-16">
          <path class="cls-17" d="M213.61,92l-2.27,6.6c-1.25,3.63-2.27,6.61-2.27,6.62l.52.12.86.21,1.26.34a24.32,24.32,0,0,0,1-2.78l1-2.79h0Z"/>
        </g>
        <g class="cls-18">
          <path class="cls-19" d="M213.15,101.77l.52-1.5h0L213.61,92Z"/>
        </g>
        <path class="cls-17" d="M218.29,93.57l-1,2.92-1,2.92.06,8.26h0s1-3,2.28-6.61l2.27-6.59-2.6-.9Z"/>
        <path class="cls-19" d="M216.78,97.93l-.51,1.48.06,7.9Z"/>
        <g class="cls-20">
          <path class="cls-21" d="M213.61,92l.06,8.32h0v.66c0,3.65,0,5.6,0,5.61l.38.16c.62.25,1.39.59,2,.87l.26.11-.06-8.26h0v-.76c0-.74,0-1.24,0-4.23,0-.81,0-1.49,0-1.52v-.05l-1.31-.45Z"/>
        </g>
      </g>
      <g class="cls-5">
        <path class="cls-22" d="M235.85,100.18l-5.12.33.14,2.09,3-.2a3.14,3.14,0,1,1-1.11-3.33l1.37-1.58A5.23,5.23,0,1,0,236,101.2a5,5,0,0,0-.18-1Z"/>
        <path class="cls-23" d="M226,99.45l1.81,1.14a3.14,3.14,0,0,1,2.77-2.17,3.19,3.19,0,0,1,2.14.65l1.37-1.58a5.23,5.23,0,0,0-8.09,2Z"/>
        <path class="cls-24" d="M231.16,106.79a5.24,5.24,0,0,0,3.41-1.6l-1.71-1.26a3.13,3.13,0,0,1-1.84.77,3.17,3.17,0,0,1-3.1-1.87l-1.61,1.43a5.22,5.22,0,0,0,4.85,2.53Z"/>
        <path class="cls-25" d="M235.85,100.18l-5.12.33.14,2.09,3-.2a3.17,3.17,0,0,1-1,1.53h0l1.72,1.25a5.06,5.06,0,0,0,1.45-4,5,5,0,0,0-.18-1Z"/>
      </g>
      <g class="cls-5">
        <path class="cls-26" d="M222,82.4a7,7,0,0,0-6.22-7.68h0a7,7,0,0,0-2.54,13.7l.51-4.86L212,83.38l.21-2,1.77.18.16-1.53A2.46,2.46,0,0,1,217,77.6a11.46,11.46,0,0,1,1.54.29l-.18,1.71-.88-.09a1,1,0,0,0-1.25,1l-.13,1.3,1.93.21-.52,2-1.62-.17-.51,4.86A7,7,0,0,0,222,82.4"/>
        <path class="cls-1" d="M217.55,84l.52-2-1.93-.21.13-1.3a1,1,0,0,1,1.25-1l.88.09.18-1.71a10.67,10.67,0,0,0-1.54-.3A2.47,2.47,0,0,0,214.13,80L214,81.55l-1.77-.18-.21,2,1.76.18-.51,4.86a7,7,0,0,0,2.18.23l.51-4.86,1.62.17Z"/>
      </g>
    </g>
    <g class="cls-3">
      <path class="cls-4" d="M27,118A26,26,0,1,0,1,92,26,26,0,0,0,27,118Z"/>
      <g class="cls-5">
        <path class="cls-27" d="M12.86,88.31,25.29,85l.27,1L13.13,89.33Z"/>
        <path class="cls-28" d="M24.52,78.4s-1.7,1.54-2.11,1.82-.6.11-.65,0a5.87,5.87,0,0,1-.53-.65,1,1,0,0,0,.36-.12c.29-.16,2.62-2.25,2.62-2.25Z"/>
        <path class="cls-27" d="M19.3,80.75l1.36,1.67L22,81.32l-2-2.21-1.86.49-1.44,5.11a4.54,4.54,0,0,0,1.95-1.17A24,24,0,0,0,19.3,80.75Z"/>
        <path class="cls-29" d="M22,81.32l-1.29,1.11a26.65,26.65,0,0,1-2.79,2.1c-1.6.89-3.61,1.72-4.53,1.32s.15-3.16,3.07-4.51a3.12,3.12,0,0,1,.77-.29,5.23,5.23,0,0,0-.63-.89.88.88,0,0,0-.86-.07c-.66.26-3.32,1.68-3.85,4.1a2.42,2.42,0,0,0,1.54,2.6c.21.08,2.21.93,5.58-1.36A43.84,43.84,0,0,0,25,80.28l-.36-1.34L22,81.32Z"/>
        <path class="cls-27" d="M21.49,83.5c.21.24.84,1,1,1.2a.45.45,0,0,0,.52.14l1.71-.46-1.9-2A9.4,9.4,0,0,1,21.49,83.5Z"/>
      </g>
      <g class="cls-5">
        <path class="cls-30" d="M14,94.52l-2.54,4.4a.34.34,0,0,0,0,.26l2.18,8.12a.35.35,0,0,0,.43.24l8.1-2.17a.44.44,0,0,0,.23-.17l2.53-4.38-2.25-8.37a.22.22,0,0,0-.28-.16h0Z"/>
        <path class="cls-1" d="M23.4,101.77l-1.37.37a.1.1,0,0,1-.09,0l-1.76-1.4-.83,2.09a.09.09,0,0,1-.06.06l-1.37.37a.1.1,0,0,1-.12-.06.08.08,0,0,1,0-.08l1.26-3.18a.11.11,0,0,0,0-.11l-2.73-2.14a.06.06,0,0,1,0-.08l0,0,1.46-.39a.08.08,0,0,1,.08,0l1.71,1.35.8-2a.1.1,0,0,1,.06-.05l1.46-.39a.06.06,0,0,1,.08,0,.08.08,0,0,1,0,0l-1.25,3.21a.08.08,0,0,0,0,.11l2.7,2.14c.05,0,0,.14-.05.16"/>
        <path class="cls-1" d="M11.92,101.08l2-.54-.56-2.08a.1.1,0,0,1,.07-.12l1.09-.3a.1.1,0,0,1,.12.08l.56,2.07,1.94-.52a.1.1,0,0,1,.12.07l.31,1.16a.09.09,0,0,1-.07.12l-1.94.52.56,2.07a.11.11,0,0,1-.07.13L15,104a.09.09,0,0,1-.12-.07l-.55-2.06-2,.53Z"/>
      </g>
      <g class="cls-5">
        <g class="cls-31">
          <path class="cls-32" d="M38.42,97.86l0,.1a1.62,1.62,0,0,1-.28,1.2l-.58.84h0l-1.67,2.38.45,2.51a1.63,1.63,0,1,0,3.2-.57L38.46,98a.75.75,0,0,0,0-.16"/>
        </g>
        <path class="cls-33" d="M33.27,100.53l-3.07,4.39h0a1.64,1.64,0,0,0,.42,2.22h0l4.91-7Z"/>
        <path class="cls-34" d="M30.62,107.14a1.65,1.65,0,0,0,2.23-.37h0l.06-.08,3-4.31-.39-2.25h0l-4.91,7Z"/>
        <path class="cls-35" d="M37.59,100l.58-.84a1.7,1.7,0,0,1-1.1.7l-1.54.27.39,2.26L37.59,100h0"/>
        <g class="cls-36">
          <path class="cls-32" d="M36.38,96.68h.06l.05,0h0l-6.32,1.11a1.63,1.63,0,1,0,.56,3.21l2.52-.44,2.19-3.13a1.63,1.63,0,0,1,.92-.72"/>
        </g>
        <path class="cls-35" d="M35.24,98.53h0v-.13h0v0h0a.75.75,0,0,1,0-.15,1.61,1.61,0,0,1,.23-.78l-2.19,3.13,2.26-.4-.28-1.55v0"/>
        <path class="cls-37" d="M38.42,97.86a1.87,1.87,0,0,0-.07-.22,1.64,1.64,0,0,0-1.81-1h0l-.05,0h0a1.6,1.6,0,0,0-1.17,1.5h0a.66.66,0,0,0,0,.14h0v.18h0v0l.27,1.55,1.55-.27A1.68,1.68,0,0,0,38.45,98a.36.36,0,0,1,0-.1"/>
      </g>
      <g class="cls-5">
        <path class="cls-38" d="M29.92,78l13.9,1.46-1.46,13.9-13.9-1.46Z"/>
        <path class="cls-39" d="M42.64,86.42c-.3,2.9-.47,5.9-.47,5.9a.51.51,0,0,1-.55.49l-12-1.26a.55.55,0,0,1-.43-.6,53.11,53.11,0,0,1,.32-6.44,37.74,37.74,0,0,1,1-5.69c.07-.32.29-.53.55-.5l12,1.26a.55.55,0,0,1,.44.6s-.5,3.35-.81,6.24Z"/>
        <path class="cls-40" d="M40.32,82.87c-.92.4-1.18.43-2.17.89l.07-.11a8.09,8.09,0,0,0,1.14-1.11,20.62,20.62,0,0,0-3,0l.06-.08a13.39,13.39,0,0,1,3.17-.58,9.71,9.71,0,0,0-2-1.46l.07-.08a10.34,10.34,0,0,1,3.25,1.42,6,6,0,0,1,1.11,0,1.5,1.5,0,0,1-.71.63,8,8,0,0,1-.81,3,5.89,5.89,0,0,0-.18-2.51Z"/>
        <path class="cls-41" d="M33.25,89.71l.07-.08a3.46,3.46,0,0,1-1.21-.8,4.79,4.79,0,0,1,.56-.85l.07-.08c-.41,0-.77.12-1.13.15a6.08,6.08,0,0,1-.31-1.79l-.07.08a5,5,0,0,0-.18,1.76c-.3.06-.53,0-.77.1l0,.08a6.93,6.93,0,0,0,1,.69,3.94,3.94,0,0,0,.69,1.25l.07-.08a2.37,2.37,0,0,1,0-.8,3.51,3.51,0,0,0,1.28.37Z"/>
        <path class="cls-42" d="M35.26,82.87a5.14,5.14,0,0,0-.4.71h0a8,8,0,0,1,2.27,1l-.06.08a7.46,7.46,0,0,0-2.1-.36,1.28,1.28,0,0,0-.51,0,9.56,9.56,0,0,0-.61,1.64l-.07.13c-.15-.51-.34-1.52-.34-1.52a14.93,14.93,0,0,0-2,1.31A7.78,7.78,0,0,1,33,84a2.49,2.49,0,0,0-1.32-.55l.07-.08a7.46,7.46,0,0,1,1.34,0,5.37,5.37,0,0,1,.79.08A3.53,3.53,0,0,1,35.26,82.87Z"/>
        <path class="cls-43" d="M36,89.12a7.45,7.45,0,0,1-.75.74,3.84,3.84,0,0,1-1.14-.06l-.07.08a2.73,2.73,0,0,0,.76.34,5.19,5.19,0,0,1-.75.42l-.07.08a5.25,5.25,0,0,0,1.48-.4,2.46,2.46,0,0,0,.58,0l.07-.08c0-.09-.1-.15-.11-.3a8.87,8.87,0,0,0,1.11-.82l.06-.08a6.72,6.72,0,0,1-1.2.6,3.57,3.57,0,0,1,0-.55Z"/>
        <path class="cls-44" d="M40.37,82.76c-.92.4-1.19.43-2.18.88a8.73,8.73,0,0,0,1.22-1.22,24,24,0,0,0-3,0,12.78,12.78,0,0,1,3.23-.65,10.78,10.78,0,0,0-2-1.47,9,9,0,0,1,3.29,1.34,7.46,7.46,0,0,1,1.11,0,1.56,1.56,0,0,1-.74.62,8,8,0,0,1-.81,3,5,5,0,0,0-.11-2.5Zm-7.08,6.87a3.87,3.87,0,0,1-1.17-.89,4.6,4.6,0,0,1,.56-.85L31.62,88a5.25,5.25,0,0,1-.38-1.68A5,5,0,0,0,31.06,88a6.21,6.21,0,0,0-.85.21,9.5,9.5,0,0,0,1,.69,4.19,4.19,0,0,0,.69,1.24,2.31,2.31,0,0,1,0-.87,11.43,11.43,0,0,0,1.37.32Zm2-6.84a3.41,3.41,0,0,0-.46.71,6.39,6.39,0,0,1,2.2,1,8,8,0,0,0-2.1-.37,1.31,1.31,0,0,0-.5,0A10.09,10.09,0,0,0,33.79,86c-.15-.51-.34-1.53-.34-1.53a14.93,14.93,0,0,0-2,1.31,7.12,7.12,0,0,1,1.64-1.9,2.49,2.49,0,0,0-1.32-.55,5.09,5.09,0,0,1,1.38-.09l.79.08a4,4,0,0,1,1.4-.49ZM36,89a7.49,7.49,0,0,1-.75.74,4.53,4.53,0,0,1-1.21,0,2.6,2.6,0,0,0,.76.34,7.46,7.46,0,0,1-.82.5,5.25,5.25,0,0,0,1.48-.4,4.31,4.31,0,0,0,.58,0c0-.14,0-.28,0-.42A7.94,7.94,0,0,0,37.13,89a6.25,6.25,0,0,1-1.14.53A4.44,4.44,0,0,0,36,89Z"/>
      </g>
    </g>
    <g class="cls-3">
      <path class="cls-4" d="M192,61a26,26,0,1,0-26-26A26,26,0,0,0,192,61Z"/>
      <path class="cls-45" d="M187.68,37.05c.53-.63.63-.63.7-.92s-.44-.57-.72-.83a1.78,1.78,0,0,0-.78-.44c-.14,0-.33,0-.29-.09.28-.54,0-.73-.15-.78l0-.3h0v0L181,32.78a4.66,4.66,0,0,0-.89-.3,4.34,4.34,0,0,0-.55.07.76.76,0,0,1-.26-.15c-.07-.08-.12-.27-.58-.26a.55.55,0,0,0-.41.21L175.9,32V32h0l-.48,3a.42.42,0,0,0-.27,0s-.17,0-.21.14-.15.21-.1.27-.09.22.06.3a.24.24,0,0,1-.08.34l-.06,0a2.41,2.41,0,0,0-.75.17c-1.25.39-.22.85,0,.9s.34.1.2.38a1.57,1.57,0,0,0-.1.71c-.24,0-.31.21-.33.38-.23.5.24.45.42.24.39.26.64-.36.67-.33l-.06.42c-.06.07-.12.15-.19.22-.27.41-.07.26-.11.45s-.05.3.13.38l-.4,2.53h.05v.07L176,43l.09.07c.19.12.21.13.28,0s0,0,0-.06l8.36,1.32v-.06h.06l.52-3.31c.4.07.28,0,.38-.42s.24-.9.23-.86a5.66,5.66,0,0,1,0,1.12.5.5,0,0,1-.28.21c-.22.09-.23.16-.22.17s-.05.12.2.16a1.26,1.26,0,0,0,.6-.09c.09,0,.21,0,.29-.14a1.85,1.85,0,0,0,.06-.42,4.34,4.34,0,0,0,.3-1.23,5.9,5.9,0,0,0,.46-1.73c.24-.3.34-.36.38-.68Zm-11.37,5.68a.09.09,0,0,1,0-.1v0l0,.13Zm.16-.29a1.43,1.43,0,0,1,.77-.44c.23,0,1-.17,1.35-.2l-.23,1.43-2-.31.08-.5Zm9.12-5.22a4.19,4.19,0,0,0-.22.59l-1-.16a3.87,3.87,0,0,0,.56-.37c.28,0,.19-.21.13-.33a.32.32,0,0,0-.37-.07c-.33-.06-.1.12-.16.17s-.58.22-.75.3l-.06,0L184,35.6a10.75,10.75,0,0,0,1.48.45,1.49,1.49,0,0,1,.1,1.15v0Zm-.31,1a6.7,6.7,0,0,0-.05,1.75l-1.87-.3.27-1.71a2.08,2.08,0,0,0,.59-.26l1.12.18c0,.17,0,.23-.05.33Zm-9.63-.55a.82.82,0,0,1,.22-.56,2.55,2.55,0,0,1,.55-.19,2.19,2.19,0,0,0,.83-.23L177,38.07h-.09c-.2-.06-.22,0-.22,0s0,0-.19,0-.25.18-.11.26a1.72,1.72,0,0,0,.54.18l0,.14-1.27-.2c0-.47,0-.6,0-.78ZM178,35.21c.05-.09,0-.24.06-.34a1.79,1.79,0,0,1,.28-.27l.91.14.24.07h.21l-.32,2-1.72-.27a.34.34,0,0,0,.12-.09c.07-.12.08-.25,0-.27s-.1,0-.19,0l-.11.05.11-.71a1.94,1.94,0,0,0,.42-.32Zm2.26-1.31a.71.71,0,0,1,.16-.26c0-.08.22-.23.24-.32l.27.06.43,0c.13,0,.35.14.45.15l.26,0-.23,1.44-2-.31a1,1,0,0,0,.32-.32.92.92,0,0,0,.06-.52Zm3.67,1.62-.3,1.86a.17.17,0,0,1-.1,0,2.69,2.69,0,0,0-.32-.19s0,0-.31-.18a1,1,0,0,0-.74-.3c-.29,0-.38,0-.37-.09s.19-.17.19-.17c.23,0,.16-.19.15-.23a.71.71,0,0,0,0-.25c.12-.08-.07-.21-.1-.27a1,1,0,0,0-.1-.33l0-.17,1.94.31,0,0Zm-6.53,1.15h0l1.93.3-.08.49c-.28.14-.43.25-.75.38a5.36,5.36,0,0,1-1.19.32s-.12,0-.16,0h0l.23-1.45Zm2.08.31.65.1-.71.32Zm2.34-1.73a.41.41,0,0,0-.38-.08,1.52,1.52,0,0,0-.88.38.41.41,0,0,0-.22.19c0,.08.07.17,0,.34a.27.27,0,0,0-.05.31s0,.21.1.26c.3.08.2.1.32.17a2.21,2.21,0,0,1-.34.18l-.82-.13.32-2,2,.32v.09Zm-4.72,3.3s.14-.09.39,0a3.17,3.17,0,0,0,1.69-.31L179,39l-2-.31,0-.14Zm2.2-.38a3.75,3.75,0,0,1,1.1-.27,1.47,1.47,0,0,1,.33.85c-.09.17-.29.27-.41.46L179.14,39l.14-.86Zm1,1.13c-.24.54,0,.53-.13.84,0,.1-.58.34-1,.67a1.75,1.75,0,0,1-.29.18l.29-1.87,1.13.18Zm.61,1.89,0,.24-.27,0a2.11,2.11,0,0,0,.31-.21Zm.13-.09a4.62,4.62,0,0,1,.41-.34,1.37,1.37,0,0,1,.45.21c.76.48.8.32.91.49a2.36,2.36,0,0,0,0,.28l-1.87-.29.06-.36Zm2.14-.65c-.21-.19-.6-.58-.84-.82l.94.15Zm-1-1-.06-.06a3.17,3.17,0,0,1,.12-.44,1.81,1.81,0,0,1,.24-.71c.19-.08.19-.33.25-.45a3.8,3.8,0,0,0,.81.13l-.26,1.68-1.09-.15Zm1-4.56s-.14,0-.13,0,.39.13.48.2l.22.17-1.76-.27.23-1.45a1.17,1.17,0,0,1,.25.07c.08,0,.44.33.5.3s0-.11,0-.15.34.09.39,0-.21-.25-.3-.29a2.28,2.28,0,0,0-.41-.11c-.08,0-.2-.13-.35-.2l0-.17,2,.32L184,35.09a1.25,1.25,0,0,1-.41-.22.8.8,0,0,0-.52-.29s-.23,0-.25.11a1,1,0,0,1,.33.24Zm-1-1.74-.12,0c-.06,0-.38-.14-.44-.16l-.08,0,.66.11,0,.12Zm-3.71,1.32c0-.06.06-.21.09-.21s.18.15.4.29l-.5-.08Zm-.74-.41-.11.28-1.94-.31.32-2,2,.32-.27,1.71h0Zm-.15.39c-.07.16-.14.33-.22.49s-.2.22-.27.3-.14.08-.19.12-.06.14.05.19.24-.06.28-.05,0,.1,0,.11a.46.46,0,0,0,.21,0l-.12.72s0,0-.13,0a1.73,1.73,0,0,1-.6,0l-.27,0-.74-.12a.07.07,0,0,1,0-.06c.23-.19.14-.23.19-.33a1.53,1.53,0,0,0,.07-.36.31.31,0,0,0,0-.25.83.83,0,0,0-.16-.09c-.06,0-.1-.08-.18-.11l.13-.86,1.93.31ZM175,40.07c.06-.08-.13-.33,0-.51s.58-.46.61-.68l0-.3,1.27.2-.31,2-2-.32.06-.34C174.86,40.16,174.93,40.14,175,40.07Zm2.07-1.28,2,.31-.3,1.92-.22,0-1.78-.28.31-2Zm1,2.31c-.27.07-.72.37-1.29.58l-.14,0,.13-.84Zm.69.68c.68,0,.64-.1.91-.12a2.51,2.51,0,0,0,.76-.2l.43.07-.32,2-2-.32Zm2.22-.22,1.92.3s0,.11,0,.15l-.29,1.87-2-.32.31-2Zm2,.66a2.4,2.4,0,0,0,.27.53,1.16,1.16,0,0,1,.28.75c0,.23-.21.38.17.55l-1-.16.26-1.67Zm1.77,1.84a1,1,0,0,0-.26-.19,1.19,1.19,0,0,1-.53-.71A6.13,6.13,0,0,1,183.7,42l1.33.21-.3,1.88Zm-1-2.2c0-.16,0-.32,0-.48a1,1,0,0,0-.41-.86l.11-.73,1.88.3c0,.31-.1.42-.53.6s.05.23.05.23,0,0,.48,0L185,42.1l-1.36-.24ZM185.9,34c-.25.09-.18.26-.23.33s-.16.09-.17.18.08.11.07.12a2,2,0,0,0,0,.28c0,.11.12.12.09.14s-.26.07-.44.15a.87.87,0,0,1-.42.1,4,4,0,0,1-.6-.13l-.09,0,.28-1.72,2,.31,0,.24A.7.7,0,0,0,185.9,34Zm-7.71-1.24a.6.6,0,0,0,.36.57c.13,0,.13,0,.25,0s.12,0,.17,0,0,0,.08,0,.2,0,.25-.06a.5.5,0,0,1,.12-.1c-.21.49-.25.48-.25.48A1.83,1.83,0,0,0,178,33.4a.24.24,0,0,0-.15.13l.18-1.11.22,0a.56.56,0,0,0-.08.3Zm-3.9,9.81.32-2,2,.32-.14.89a3,3,0,0,1-.72.14c-.33.06-.2.28-.12.33a2.77,2.77,0,0,0,.12.41.76.76,0,0,0,.12.19l-1.58-.27Z"/>
      <g class="cls-5">
        <path class="cls-46" d="M190.37,39.2s7.66-3.09,13.87-1.6l1.47,11.91a28.12,28.12,0,0,1-13.85,1.84L190.37,39.2Z"/>
        <path class="cls-47" d="M199.52,46.49a1.34,1.34,0,0,1,.93.21l-.29.48a.8.8,0,0,0-.54-.14.68.68,0,0,0-.57.77.13.13,0,0,0,0,.06.68.68,0,0,0,.67.68h.09a.68.68,0,0,0,.48-.26l.39.39a1.3,1.3,0,0,1-.81.43,1.27,1.27,0,0,1-1.44-1V48a1.23,1.23,0,0,1,1-1.45Zm-6.48.79.73.52a4.64,4.64,0,0,1,.43.32l.11.1c.13-.18.34-.43.43-.54l.56-.68h.08l.31,2.55-.61.07-.15-1.28a2.37,2.37,0,0,1-.23.3l-.3.37h0l-.37-.29-.15-.11-.14-.13.16,1.28-.6.08L193,47.29ZM197,46.8l1.6,2.38-.68.09-.21-.31-1,.12-.12.36-.67.08,1-2.7.13,0Zm4.38-.46.3,2.47-.62.07-.3-2.46Zm2.34-.29-.05.57-1.09.14.07.58.95-.12.06.52-.94.12.1.81-.62.07-.31-2.47,1.83-.22ZM197,47.88q-.08.32-.18.63l0,.06.58-.07,0-.06-.24-.39-.09-.17Z"/>
        <path class="cls-48" d="M197.34,39l.16,1.3a2.06,2.06,0,1,0,2.33,1.79l1.32-.15A3.38,3.38,0,1,1,197.34,39Zm.26,1.78a1.57,1.57,0,0,1,.44,3.11H198a1.57,1.57,0,0,1-.38-3.11Z"/>
      </g>
      <g class="cls-5">
        <path class="cls-49" d="M192.38,29.7l-3-12-11.57,8.41Z"/>
        <path class="cls-44" d="M187.87,23.36l.85.09-.31,2.9-.84-.09.3-2.9Zm-2.06,1.55.5.06-.16-.95-.34.9Zm0-1.77.91.1.74,3-.94-.1-.11-.49-.81-.09-.2.46-.94-.1,1.35-2.78ZM181,25.57l.3-2.89,1,.1.5,1.48.8-1.34,1,.1-.3,2.9-.82-.09.17-1.63L183,25.34l-.54-.06L182,24l-.17,1.63-.82-.09Zm8-2.08,2.2.23-.19.68-1.24-.14-.05.41,1.18.13-.19.67-1.06-.11-.12,1.11-.84-.08Z"/>
      </g>
      <g class="cls-5">
        <path class="cls-50" d="M203.88,21.22h0c-1,.26-1.94,1.14-2.17,3.25s-.37,2.1-.53,2.14h0c-.16,0-.65-.29-1.22-.84a2.43,2.43,0,0,0-2.15-.85c-1.34.36.91,5.77.44,4s-.22-2.06,0-2.12.87.21,1.8,1.09,1.55,1.42,2.24,1.24,1.05-1.25,1.16-2.9.59-2.33,1-2.43,1.5.13,2,2.09c.09.33.17.63.25.89.37,1.26,1.86-6.33-2.77-5.61"/>
        <path class="cls-51" d="M197.75,24.94c-1.34.36-1.43,2.44-1,3.93a6.6,6.6,0,0,0,2.91,3.64c.43.26.53.13.62.05s.1-.28-.27-.56a5.94,5.94,0,0,1-1.79-3,5.66,5.66,0,0,1-.26-1.58,3,3,0,0,1,.24-1.29,1.47,1.47,0,0,1,1.2-.75,2,2,0,0,0-1.62-.41"/>
        <path class="cls-52" d="M203.76,33a3.68,3.68,0,0,0,2.46-1.91c.41-1.1.46-1.84,1-2a.87.87,0,0,1,1.12.67c.13.49-.63,3-3.9,3.88a4.45,4.45,0,0,1-3-.07c-.46-.18-.64-.42-.56-.56s.3-.11.76,0a4,4,0,0,0,2,0"/>
        <path class="cls-51" d="M203.87,21.22l-.14,0A2.51,2.51,0,0,1,206.78,23c.56,2.09-.57,2.49-.11,4.19.27,1,.66,1.33,1.3,1.15.81-.21,1.08-1.83.61-3.57-1-3.61-3.74-3.81-4.71-3.55"/>
      </g>
    </g>
    <g class="cls-3">
      <path class="cls-4" d="M124,53A26,26,0,1,0,98,27,26,26,0,0,0,124,53Z"/>
      <g class="cls-5">
        <path class="cls-53" d="M116.89,21c.86.73,2.84,0,4.42-1.73s2.15-3.64,1.29-4.37-2.79,0-4.36,1.69S116,20.27,116.89,21"/>
        <path class="cls-54" d="M114.55,20.72c-1,.49-2.74-.73-3.86-2.75s-1.22-4.06-.2-4.56,2.7.68,3.82,2.69,1.25,4.12.24,4.62"/>
        <path class="cls-55" d="M121,13.15c.13-1.08-1.69-2.19-4.07-2.48s-4.41.34-4.54,1.42,1.68,2.19,4.06,2.48,4.42-.35,4.55-1.42"/>
      </g>
      <path class="cls-56" d="M129.08,30.8a3.28,3.28,0,0,0-1.32.41,3.7,3.7,0,0,0-1.17.91,4.56,4.56,0,0,0-.57,1l-1,.07a.08.08,0,0,0-.07,0l-.11.28a.09.09,0,0,0,0,.07.08.08,0,0,0,.07,0l1-.07-1.58,4a.08.08,0,0,0,0,.08l0,0a.08.08,0,0,0,.07,0l.73-.17s0,0,0,0l1.79-4,1.29-.09a.08.08,0,0,0,.07,0l.13-.27a.11.11,0,0,0,0-.08.08.08,0,0,0-.08,0l-1.22.08.31-.79a1.78,1.78,0,0,1,.3-.54.9.9,0,0,1,.28-.2,1.25,1.25,0,0,1,.81-.06,1.81,1.81,0,0,0,.4,0,.64.64,0,0,0,.18-.06.59.59,0,0,0,.17-.18l0-.09a.27.27,0,0,0,0-.09.11.11,0,0,0,0-.08.19.19,0,0,0-.1-.1.46.46,0,0,0-.22-.06h-.25l0,0Zm6.68,1.2a4.81,4.81,0,0,0-2.42.88,2.93,2.93,0,0,0-.77.76,1.3,1.3,0,0,0-.26.83.66.66,0,0,0,.11.35.94.94,0,0,0,.53.38,2.66,2.66,0,0,0,1,.1,5.64,5.64,0,0,0,2.77-1,.12.12,0,0,0,0-.08s0,0-.05-.06l-.18-.1a.06.06,0,0,0-.07,0,4.82,4.82,0,0,1-2.06.73,1.84,1.84,0,0,1-.7-.07.62.62,0,0,1-.19-.12.26.26,0,0,1-.07-.16,1.12,1.12,0,0,1,0-.41,13.45,13.45,0,0,0,2.27-.47,3.52,3.52,0,0,0,.94-.44,1,1,0,0,0,.29-.29.65.65,0,0,0,.1-.36.44.44,0,0,0-.05-.15.46.46,0,0,0-.22-.17,1.35,1.35,0,0,0-.49-.11,2.62,2.62,0,0,0-.56,0v0Zm4.67-.32a5,5,0,0,0-2.43.87,3.42,3.42,0,0,0-.76.76,1.4,1.4,0,0,0-.27.84.8.8,0,0,0,.11.34,1,1,0,0,0,.53.39,2.52,2.52,0,0,0,1,.09,5.58,5.58,0,0,0,2.77-1,.09.09,0,0,0,0-.07.08.08,0,0,0,0-.07l-.18-.1a.08.08,0,0,0-.08,0,4.72,4.72,0,0,1-2.06.73,1.61,1.61,0,0,1-.69-.07.47.47,0,0,1-.19-.12.23.23,0,0,1-.07-.15,1,1,0,0,1,0-.42,13.45,13.45,0,0,0,2.27-.47,3.66,3.66,0,0,0,.94-.44,1,1,0,0,0,.29-.29.62.62,0,0,0,.1-.35.75.75,0,0,0,0-.16.62.62,0,0,0-.22-.17,1.66,1.66,0,0,0-.49-.11,5.42,5.42,0,0,0-.57,0Zm-10.06.78a1.49,1.49,0,0,0-.51.14,4.2,4.2,0,0,0-.78.43,5.23,5.23,0,0,0-.55.41.07.07,0,0,0,0,.06.09.09,0,0,0,0,.06l.17.1a.08.08,0,0,0,.09,0c.14-.1.29-.19.44-.28a2.24,2.24,0,0,1,.27-.13.72.72,0,0,1,.25-.07.31.31,0,0,1,.13,0,.09.09,0,0,1,0,0v.06a1.36,1.36,0,0,1-.11.28L129,35.43l0,0a.08.08,0,0,0,0,.07v0l0,0a.72.72,0,0,0,.25.07h.18l.3,0h.11l.05,0a.1.1,0,0,0,0,0l.2-.42a6.93,6.93,0,0,1,.8-1.22,2.65,2.65,0,0,1,.54-.52,1.24,1.24,0,0,1,.58-.24c.14,0,.3,0,.46,0a.66.66,0,0,0,.27-.09.51.51,0,0,0,.23-.25.54.54,0,0,0,.06-.25.29.29,0,0,0-.05-.13l-.07-.08a.33.33,0,0,0-.16,0h-.2a1.55,1.55,0,0,0-.66.24,5.2,5.2,0,0,0-.94.74l-.33.33.22-.5a1,1,0,0,0,.08-.2l0-.09a.28.28,0,0,0,0-.09.32.32,0,0,0-.06-.15l-.1-.07a.49.49,0,0,0-.2,0,1,1,0,0,0-.25,0v0Zm5.14-.07a.67.67,0,0,1,.34,0,.18.18,0,0,1,.07,0,.11.11,0,0,1,0,.07.52.52,0,0,1,0,.21,1,1,0,0,1-.35.33,3.34,3.34,0,0,1-1,.39,8.4,8.4,0,0,1-1,.19l.18-.26a3.33,3.33,0,0,1,.74-.66,2,2,0,0,1,1-.36Zm4.67-.33a.8.8,0,0,1,.34,0s0,0,.07.06a.15.15,0,0,1,0,.07.35.35,0,0,1,0,.2.83.83,0,0,1-.34.33,3.34,3.34,0,0,1-1,.39,6.78,6.78,0,0,1-1,.19l.18-.25a3.9,3.9,0,0,1,.74-.67,2.16,2.16,0,0,1,1-.36Z"/>
      <g class="cls-5">
        <path class="cls-57" d="M108.23,40.58l12.35-2.4-2.4-12.35-12.35,2.4Z"/>
        <g>
          <path class="cls-1" d="M112.14,38.2a.21.21,0,0,0,.23.19h0a.67.67,0,0,0,.38-.26l-.08-.41c-.41.14-.59.28-.55.49Zm.7.24a.92.92,0,0,1-.53.28.47.47,0,0,1-.6-.33.15.15,0,0,1,0-.07c-.08-.38.24-.65,1-.87l0-.1c0-.13-.13-.18-.31-.15a.54.54,0,0,0-.38.28l-.33-.11a.84.84,0,0,1,.67-.48c.45-.09.73.06.79.38l.25,1.24-.4.08Zm.51-1.67.36-.13.08.2a.93.93,0,0,1,.54-.35.5.5,0,0,1,.63.31.78.78,0,0,1,0,.14l.23,1.2-.45.09-.22-1.12c0-.21-.11-.3-.28-.26a.64.64,0,0,0-.38.27l.24,1.23-.45.09Zm5-.37a.32.32,0,0,0-.36-.3h0a.34.34,0,0,0-.28.43Zm-.12,1.19a.92.92,0,0,1-.35-1.79.78.78,0,0,1,1,.72l0,.09-1.15.22c.06.33.23.47.5.41a.42.42,0,0,0,.34-.29l.37.12a.83.83,0,0,1-.69.52Zm-8.93.27c-.34.07-.34.38-.3.59s.16.5.5.44.34-.38.3-.59-.16-.5-.5-.44m.28,1.43a.83.83,0,0,1-1-.62.5.5,0,0,1,0-.12.84.84,0,0,1,.56-1l.11,0a.83.83,0,0,1,1,.62.5.5,0,0,1,0,.12.83.83,0,0,1-.56,1,.35.35,0,0,1-.11,0m.81-2,.43-.08,0,.19a.7.7,0,0,1,.49-.34l.08.43h0c-.2,0-.41.11-.45.28l.23,1.14-.46.09ZM116.79,36l.32,1.63c0,.29.12.76-.69.94a.68.68,0,0,1-.8-.29l.43-.16c0,.08.1.15.36.11s.32-.19.27-.45l0-.21a.47.47,0,0,1-.39.35c-.4.07-.77-.14-.89-.72s.15-1,.52-1,.5.07.55.15v-.22l.37-.09Zm-.54,1.52c.34-.07.3-.43.26-.66s-.23-.46-.47-.41-.32.19-.25.58C115.83,37.28,115.92,37.62,116.25,37.56Z"/>
          <path class="cls-1" d="M119.64,35.82l-.1,0-.15-.8,0,.85h-.06l-.35-.77.16.81H119l-.19-1,.14,0,.32.7,0-.77.14,0,.19,1Zm-.91-.69-.17,0,.16.84-.1,0-.16-.84-.18,0,0-.13.45-.08Z"/>
        </g>
      </g>
      <g class="cls-5">
        <path class="cls-58" d="M127.36,24.25l10.43,1.09,1.09-10.42-10.42-1.1Z"/>
        <path class="cls-1" d="M132.89,21.09l.34-3.22,2,.21,0,.51-1.44-.15-.09.88,1.24.13-.06.5-1.24-.13-.14,1.33Zm4.21.44-.58-1.37L136,20.1l-.14,1.3-.53,0,.34-3.22,1.19.12c.48.05,1.11.25,1,1.05a.86.86,0,0,1-.82.84l.69,1.46-.63-.07Zm-.48-1.84c.48,0,.66-.14.69-.45s-.05-.47-.57-.52l-.61-.06-.1,1ZM131.35,19c-.37-.14-.4-.35-.38-.48s.23-.4.58-.36a.75.75,0,0,1,.58.37l.44-.2a1.2,1.2,0,0,0-1-.66,1,1,0,0,0-1.19.81c-.06.55.38.84.86,1l.23.09c.41.16.43.35.41.52a.57.57,0,0,1-.65.43.73.73,0,0,1-.66-.5l-.45.2a1.18,1.18,0,0,0,1.06.78,1.12,1.12,0,0,0,1.26-.88c.07-.66-.45-.9-.9-1.07l-.22-.09Z"/>
      </g>
    </g>
    <g class="cls-59">
      <path class="cls-60" d="M92.46,159c2.65.92,9.45,1.73,14.93,2.05,15,.87,35.88.4,44.74-1.22s9.33-4.08-13.38-5.3c-19.32-1-41.89.44-46.71,2.64-1.3.6-1.23,1.25.42,1.83"/>
    </g>
    <g class="cls-61">
      <path class="cls-62" d="M124,86.43a21.63,21.63,0,0,0-4.76.71,20.22,20.22,0,0,0-14.94,17.21,1.9,1.9,0,0,1-1.7,1.67A20.6,20.6,0,0,0,90,112.73a18.79,18.79,0,0,0-5.18,11.19,15.54,15.54,0,0,0,.23,4.25v.09a22.32,22.32,0,0,0,2.45,7.06c3,5.1,7.85,7.9,16.35,9.38,3.91.68,7.61,1.17,19.71,1.17h.8c12.1,0,15.8-.49,19.71-1.17,8.51-1.48,13.39-4.28,16.35-9.38a22.07,22.07,0,0,0,2.45-7.06v-.09a15.66,15.66,0,0,0,.23-4.25h0A18.83,18.83,0,0,0,158,112.73,20.65,20.65,0,0,0,145.4,106a1.9,1.9,0,0,1-1.7-1.67,20.22,20.22,0,0,0-14.94-17.21,21.81,21.81,0,0,0-4.76-.71Zm0,63.23h-.39c-11.29,0-15.72-.41-20.36-1.22-6.46-1.12-14.46-3.41-19-11.22a25.64,25.64,0,0,1-2.92-8.38,19.6,19.6,0,0,1-.27-5.24,22.54,22.54,0,0,1,6.17-13.44,24.65,24.65,0,0,1,13.51-7.72,24,24,0,0,1,17.5-19,25.58,25.58,0,0,1,5.53-.84h.44a25.58,25.58,0,0,1,5.53.84,24,24,0,0,1,17.5,19,24.71,24.71,0,0,1,13.52,7.72,22.62,22.62,0,0,1,6.16,13.44,19.6,19.6,0,0,1-.27,5.24,25.64,25.64,0,0,1-2.92,8.38c-4.52,7.81-12.52,10.1-19,11.22-4.64.81-9.07,1.22-20.36,1.22H124Z"/>
    </g>
    <path class="cls-62" d="M138.4,124.78c-.84-.63-1.83-1.88-1.8-2.5a1.68,1.68,0,0,0-.75-1.54,1.93,1.93,0,0,0-1.88-.09,1.81,1.81,0,0,0-1,1.52,4.16,4.16,0,0,0,.62,2.37,20.51,20.51,0,0,1-19.33-.34,4.59,4.59,0,0,0,.42-2.58,1.85,1.85,0,0,0-2.08-1.58,1.57,1.57,0,0,0-1.41,1.81c.14,1.07-.76,1.83-2,2.72a1.77,1.77,0,0,0-.71,1.65,1.83,1.83,0,0,0,1,1.47,1.49,1.49,0,0,0,.61.13,1.72,1.72,0,0,0,1-.34c.29-.22.63-.47,1-.77a24.28,24.28,0,0,0,23.44.4,7.54,7.54,0,0,0,.8.68,1.7,1.7,0,0,0,1,.35,1.64,1.64,0,0,0,1.34-.71,1.87,1.87,0,0,0-.37-2.65"/>
    <g>
      <path class="cls-63" d="M147.15,83.49c.31,1.18.9,1.18,1.14.88a48.67,48.67,0,0,0,4.22-5.82c.84-1.11,1.59-2.29,2.39-3.43,1.09-1.57-.49-2.76-1.44-1.26-1.26,2-2.64,3.93-4,5.89,0-.13,0-.26.05-.39a21.72,21.72,0,0,1,3.22-7.4,31.36,31.36,0,0,1,5.7-6.81c3-2.65,4-3.65,7.53-5.15,1.51-.65.46-2.94-1.45-2.18a16.47,16.47,0,0,0-5.7,3.53c-.62.5-1.22,1-1.79,1.58-.35.28-.7.58-1,.88-4.35,3.85-8.68,9.9-7.47,16-.16-.59-.35-1.17-.52-1.75-.53-1.78-1.11-3.53-1.64-5.3-.29-1-1.86-1-1.56.73C144.89,73.8,146.42,80.68,147.15,83.49Z"/>
      <path class="cls-64" d="M97.93,80.22c-.17.59-.36,1.17-.52,1.76,1.21-6.1-3.12-12.15-7.46-16-.34-.3-.69-.6-1-.88-.57-.55-1.17-1.08-1.79-1.58C84.79,61.63,84,61,82,59.5c-3.08-2.31-4.81.69-3.34,1.47a35.55,35.55,0,0,1,8.83,6.35,33.81,33.81,0,0,1,5.7,6.81,21.94,21.94,0,0,1,3.23,7.4l0,.39c-1.32-2-2.7-3.89-4-5.89-.94-1.5-2.53-.31-1.44,1.26.79,1.14,1.55,2.32,2.39,3.43a48.67,48.67,0,0,0,4.22,5.82c.25.3.83.3,1.14-.88.74-2.81,2.26-9.69,2.32-10,.3-1.69-1.27-1.71-1.56-.73C99,76.7,98.46,78.45,97.93,80.22Z"/>
      <g class="cls-65">
        <path class="cls-60" d="M161.75,98.11c-.33,1,.07,1.23.39,1.13a40.74,40.74,0,0,0,5.62-2.1c1.1-.38,2.17-.86,3.25-1.29,1.48-.59.93-2.15-.42-1.54-1.81.81-3.65,1.52-5.48,2.28l.21-.26A18.35,18.35,0,0,1,171,92.67a27.29,27.29,0,0,1,7.11-2.1c3.72-.59,5.77-1,9.4-.07,1.33.32,1.76-1.66.08-2a24.27,24.27,0,0,0-7.46-.4q-1,.09-2,.27l-1.12.13c-4.81.67-10.63,2.89-12.6,7.7.16-.48.3-1,.45-1.47.45-1.47.85-3,1.3-4.44.25-.82-.85-1.53-1.42-.21C164.65,90.31,162.53,95.81,161.75,98.11Z"/>
      </g>
      <g class="cls-66">
        <path class="cls-63" d="M82.57,99.11c.15.49.28,1,.44,1.46-2-4.8-7.78-7-12.59-7.69-.37-.06-.75-.1-1.13-.14-.65-.11-1.31-.21-2-.27a24.52,24.52,0,0,0-7.45.4c-1.69.36-.81,2.34.64,2.13a24.07,24.07,0,0,1,8.84,0,27.71,27.71,0,0,1,7.11,2.11,18,18,0,0,1,5.66,3.66l.22.25c-1.83-.76-3.68-1.46-5.48-2.27-1.35-.61-1.91,1-.43,1.54,1.09.43,2.15.9,3.26,1.28a40.3,40.3,0,0,0,5.62,2.11c.31.1.72-.18.39-1.14-.79-2.3-2.9-7.79-3-8-.57-1.32-1.67-.6-1.43.22C81.71,96.14,82.11,97.63,82.57,99.11Z"/>
      </g>
      <path class="cls-63" d="M126.56,67.86c-.84,1.33-1.72,2.64-2.55,4-.28.43-.56.87-.83,1.32,1.4-2.76,1.32-10.71.79-13.61-.39-2.09-2-1.9-2,.68,0,2.12.7,10.24.52,12.42l0,.32c-.66-1.75-1.38-3.49-2-5.26-.46-1.33-2-.62-1.49.79.41,1,.78,2.07,1.23,3.07a34.89,34.89,0,0,0,2.22,5.24c.14.28.63.36,1.14-.53,1.25-2.12,4.06-7.36,4.18-7.6.63-1.3-.68-1.54-1.14-.81"/>
    </g>
  </g>
</svg>
